<svg xmlns="http://www.w3.org/2000/svg" width="1067" height="790.158" viewBox="0 0 1067 790.158">
  <g id="Business_Agreement_Partnership" data-name="Business Agreement Partnership" transform="translate(0 -89.221)">
    <path id="Path_1085" data-name="Path 1085" d="M1067,879h0Z" transform="translate(0 0.379)" fill="#5fbfa7"/>
    <path id="Path_1086" data-name="Path 1086" d="M316.59,0c174.848,0,316.59,12.017,316.59,26.84s-141.742,26.84-316.59,26.84S0,41.663,0,26.84,141.742,0,316.59,0Z" transform="translate(217.01 784.834)" fill="#ffb93e"/>
    <g id="Group_1661" data-name="Group 1661" transform="translate(256.91 89.221)">
      <g id="Group_1649" data-name="Group 1649" transform="translate(0 3.227)">
        <path id="Path_952" data-name="Path 952" d="M909.062,1642.023c-6.44-6.243-13.166-12.368-21.142-16.915s-17.394-7.436-26.75-6.623c-4.26.371-8.929,1.879-10.653,5.425a12.039,12.039,0,0,0-.916,4.566c-.39,6.069-.719,12.156-.512,18.244.193,5.679.46,11.785,3.147,16.919,1.39,2.654,3.715,3.556,5.979,1.339,1.921-1.884,2.893-4.941,3.448-7.44.028-.132.056-.258.089-.376a2.472,2.472,0,0,1,.822-1.517c1-.7,2.41.07,3.415.775,7.858,5.5,17.408,7.8,26.75,9.206,6.468.977,14.561,2.508,20.79-.24C924.868,1660.37,914.327,1647.12,909.062,1642.023Z" transform="translate(-707.133 -950.563)" fill="#271b1b"/>
        <path id="Path_953" data-name="Path 953" d="M740.682,1636.073c-6.44-6.243-13.166-12.368-21.142-16.915s-17.394-7.436-26.75-6.623c-4.26.371-8.929,1.879-10.653,5.425a12.039,12.039,0,0,0-.916,4.566c-.39,6.069-.719,12.156-.512,18.244.193,5.679.46,11.785,3.147,16.919,1.39,2.654,3.715,3.556,5.979,1.339,1.921-1.884,2.893-4.942,3.448-7.44.028-.132.056-.258.089-.376a2.472,2.472,0,0,1,.822-1.517c1-.7,2.41.07,3.415.775,7.858,5.5,17.408,7.8,26.75,9.207,6.468.977,14.561,2.508,20.79-.24C756.488,1654.421,745.942,1641.17,740.682,1636.073Z" transform="translate(-617.844 -947.408)" fill="#271b1b"/>
        <path id="Path_954" data-name="Path 954" d="M1195.5,920.965a28.81,28.81,0,0,0-14.58-12.711,21.881,21.881,0,0,0-15.665.178c-3-.794-6.487-2.344-9.6-2.133,0,0-.014,0-.019,0a4.757,4.757,0,0,0-.963-.028l-.216-.056a1.054,1.054,0,0,0-1.362,1.113c-.155.258-.305.531-.442.808a3.035,3.035,0,0,0-1.461.2c-1.935.836-1.512,6.28-1.437,7.957a.9.9,0,0,0,.282.644c-.019.2-.024.395-.028.587-.014.766,0,1.531.024,2.292-.047.611-.089,1.207-.132,1.785a1.2,1.2,0,0,0,.385,1.837c.061.554.127,1.113.207,1.663.69-.061,1.376-.122,2.067-.188a33.555,33.555,0,0,0,8.352,2.142,46.679,46.679,0,0,0,15.487,10,9.164,9.164,0,0,0,5.242.831c1.752-.39,3.335-2.076,2.987-3.838a3.069,3.069,0,0,0,5.05-2.973,2.24,2.24,0,0,0,3.2-3.109c1.447.963,3.537-.385,3.908-2.086S1196.383,922.464,1195.5,920.965Z" transform="translate(-866.54 -572.911)" fill="#fdba86"/>
        <path id="Path_955" data-name="Path 955" d="M728.506,1177.64c-8.967.329-14.331,7.563-14.806,15.928q-1.374,24.265-3.236,48.508-.93,12.119-1.992,24.228-.528,6.052-1.09,12.1-.3,3.3-.62,6.6c-.061.667-.127,1.329-.193,2-.056.564-.127,1.287-.155,1.6q-2.811,28.6-6.336,57.127-1.783,14.43-3.734,28.845c-.911,6.736-5.266,16.388.319,22.081,6.989,7.116,18.958,10.681,28.5,12.2,4.124.658,14.007,1.437,11.475-5.965-1.785-5.209-6.9-8.911-10.691-12.654-.249-.244-.5-.484-.752-.723q13.62-98.077,19.235-197.061C744.913,1184.061,736.294,1177.354,728.506,1177.64Z" transform="translate(-624.856 -716.858)" fill="#fdba86"/>
        <path id="Path_956" data-name="Path 956" d="M896.9,1183.59c-8.967.329-14.331,7.562-14.805,15.928q-1.374,24.266-3.236,48.508-.93,12.119-1.992,24.223-.528,6.052-1.09,12.1-.3,3.3-.62,6.6c-.061.667-.127,1.329-.193,2-.056.563-.127,1.287-.155,1.6q-2.811,28.6-6.336,57.127-1.783,14.43-3.734,28.845c-.911,6.736-5.266,16.388.319,22.081,6.989,7.116,18.958,10.681,28.5,12.2,4.124.657,14.007,1.437,11.475-5.966-1.785-5.209-6.9-8.911-10.691-12.654-.249-.244-.5-.484-.752-.723q13.62-98.077,19.235-197.061C913.3,1190.011,904.684,1183.3,896.9,1183.59Z" transform="translate(-714.15 -720.013)" fill="#fdba86"/>
        <path id="Path_957" data-name="Path 957" d="M1050.65,365.558c-.155-.911-.305-1.827-.47-2.738-.164,1.2-.348,2.391-.54,3.584A6.3,6.3,0,0,1,1050.65,365.558Z" transform="translate(-813.516 -284.778)" fill="#431807"/>
        <path id="Path_958" data-name="Path 958" d="M834.194,1078.505c5.914-32.2,6.153-64.854,4.035-97.429-.4-6.233-.921-12.316-2.654-18.338a114.73,114.73,0,0,1-3.828-15.388,15.344,15.344,0,0,0-1.7-2.607c-.028-.033-.052-.07-.08-.1a281.027,281.027,0,0,0-107.039.845c-.808-2.081-2.861-3.617-4.909-3.265a5.208,5.208,0,0,0-1.935-1.32.262.262,0,0,0-.028-.038,4.269,4.269,0,0,0-2.823-2.536c-2.18-.639-5.28.77-5.641,3.4-.052.371-.108.733-.179,1.09l-.113.225c-.352.6-.7,1.2-1.052,1.8a67.024,67.024,0,0,0-9.408,17.812c-.568,1.606-1.038,3.241-1.447,4.9-.507,1.029-.991,2.067-1.428,3.138-4.185,10.249-4.054,21.771-4.11,32.739a445.714,445.714,0,0,0,5.341,70.04,3.958,3.958,0,0,0,1.841,2.959c-.023.489-.052.972-.075,1.461-.122,2.349,27.779,8.849,31.058,9.61a239.1,239.1,0,0,0,35.271,5.369c21.151,1.653,48.287,3.5,68.668-3.443Q833.2,1083.97,834.194,1078.505Z" transform="translate(-622.725 -589.879)" fill="#1f1818"/>
        <g id="Group_1645" data-name="Group 1645" transform="translate(0 399.773)">
          <path id="Path_959" data-name="Path 959" d="M676.778,1056.895c-5.261-6.731-13.232-10.216-21.724-8.826-7.553,1.24-15.867,3.6-22.321,7.816-7.6,4.965-10.7,13.049-11.593,21.757-.249,2.428,2.222,4.472,4.472,4.472,2.626,0,4.227-2.048,4.472-4.472.606-5.9,2.753-11.156,7.844-14.481,5.129-3.349,11.677-4.805,17.577-6.12s10.677,1.057,14.439,5.533c4.256,5.059,4.894,12.668,4.96,18.972.061,5.768,9,5.773,8.948,0C683.763,1072.851,682.26,1063.917,676.778,1056.895Z" transform="translate(-586.28 -1047.766)" fill="#3a0e08"/>
          <g id="Group_1644" data-name="Group 1644" transform="translate(0 27.19)">
            <path id="Path_960" data-name="Path 960" d="M646.1,1124.053c-21.724,4.03-42.956,10.395-63.806,17.718-6.618,2.325-13.312,4.805-18.892,9.061a4.763,4.763,0,0,0-1.423,1.484,5.162,5.162,0,0,0-.4,2.438c0,10.78.4,24.909.925,37.075.254,5.9,2.964,8.6,8.77,9.672,30.7,5.693,95.921,2.936,107.532,1.672a38.316,38.316,0,0,0,10.146-2.1c11.362-4.552,8.793-21.485,8.694-30.865-.183-16.783-4.176-56.014-5.176-57.456-2.024-2.917-6.44-1.245-9.972-.869-8.972.954-16.6,6.825-25.172,9.634A85.933,85.933,0,0,1,646.1,1124.053Z" transform="translate(-554.706 -1108.525)" fill="#4b1106"/>
            <path id="Path_961" data-name="Path 961" d="M824.841,1112.766c-2.025-2.917-6.44-1.245-9.972-.869-.183.019-.366.052-.55.075-1.235,8.563-2.931,17.135-3.1,25.8a199.3,199.3,0,0,0,1.865,28.286c1.057,8.5,2.076,17.365,4.364,25.632,1.1,4,2.828,7.248,5.787,8.431,9.141-5.622,6.872-21.09,6.773-29.9C829.839,1153.439,825.846,1114.208,824.841,1112.766Z" transform="translate(-687.075 -1108.53)" fill="#34120e"/>
            <g id="Group_1642" data-name="Group 1642" transform="translate(6.874 3.367)">
              <path id="Path_962" data-name="Path 962" d="M850.286,1278.11c-.042.23-.094.456-.146.681C850.192,1278.566,850.243,1278.34,850.286,1278.11Z" transform="translate(-714.598 -1200.47)" fill="#4b1106"/>
              <path id="Path_963" data-name="Path 963" d="M849.784,1280.33c-.052.216-.108.427-.164.639C849.676,1280.757,849.733,1280.546,849.784,1280.33Z" transform="translate(-714.323 -1201.648)" fill="#4b1106"/>
              <path id="Path_964" data-name="Path 964" d="M850.7,1275.85c-.042.254-.085.5-.132.756C850.617,1276.357,850.659,1276.1,850.7,1275.85Z" transform="translate(-714.826 -1199.272)" fill="#4b1106"/>
              <path id="Path_965" data-name="Path 965" d="M849.2,1282.49c-.056.207-.122.409-.183.606C849.081,1282.9,849.147,1282.7,849.2,1282.49Z" transform="translate(-714.004 -1202.793)" fill="#4b1106"/>
              <path id="Path_966" data-name="Path 966" d="M851.223,1269.37c-.075.986-.183,1.959-.333,2.917C851.036,1271.329,851.144,1270.356,851.223,1269.37Z" transform="translate(-714.996 -1195.836)" fill="#4b1106"/>
              <path id="Path_967" data-name="Path 967" d="M846.863,1288.63c-.085.183-.169.362-.263.536C846.694,1288.987,846.783,1288.809,846.863,1288.63Z" transform="translate(-712.721 -1206.049)" fill="#4b1106"/>
              <path id="Path_968" data-name="Path 968" d="M851.672,1267.4c-.014.258-.028.521-.052.78C851.639,1267.921,851.658,1267.663,851.672,1267.4Z" transform="translate(-715.383 -1194.791)" fill="#4b1106"/>
              <path id="Path_969" data-name="Path 969" d="M848.527,1284.6c-.066.2-.136.39-.207.582C848.391,1284.995,848.461,1284.8,848.527,1284.6Z" transform="translate(-713.633 -1203.912)" fill="#4b1106"/>
              <path id="Path_970" data-name="Path 970" d="M844.784,1292.34c-.1.164-.211.329-.324.489C844.573,1292.669,844.676,1292.5,844.784,1292.34Z" transform="translate(-711.586 -1208.016)" fill="#4b1106"/>
              <path id="Path_971" data-name="Path 971" d="M847.745,1286.65c-.075.188-.155.376-.235.559C847.595,1287.026,847.67,1286.838,847.745,1286.65Z" transform="translate(-713.204 -1204.999)" fill="#4b1106"/>
              <path id="Path_972" data-name="Path 972" d="M851.9,1255.87c0,.221.009.437.009.658C851.9,1256.307,851.9,1256.086,851.9,1255.87Z" transform="translate(-715.532 -1188.677)" fill="#4b1106"/>
              <path id="Path_973" data-name="Path 973" d="M851.77,1251.27c.009.216.014.432.023.648C851.784,1251.7,851.779,1251.486,851.77,1251.27Z" transform="translate(-715.463 -1186.238)" fill="#4b1106"/>
              <path id="Path_974" data-name="Path 974" d="M851.68,1248.96c.009.225.019.456.028.681C851.7,1249.416,851.689,1249.19,851.68,1248.96Z" transform="translate(-715.415 -1185.013)" fill="#4b1106"/>
              <path id="Path_975" data-name="Path 975" d="M851.46,1243.55c.028.728.061,1.475.094,2.245C851.521,1245.03,851.488,1244.278,851.46,1243.55Z" transform="translate(-715.298 -1182.144)" fill="#4b1106"/>
              <path id="Path_976" data-name="Path 976" d="M851.38,1241.54c.009.211.014.418.023.634C851.394,1241.958,851.389,1241.751,851.38,1241.54Z" transform="translate(-715.256 -1181.078)" fill="#4b1106"/>
              <path id="Path_977" data-name="Path 977" d="M851.32,1239.49c0,.207.009.413.019.625C851.329,1239.9,851.325,1239.7,851.32,1239.49Z" transform="translate(-715.224 -1179.991)" fill="#4b1106"/>
              <path id="Path_978" data-name="Path 978" d="M851.879,1262.85c0,.235-.01.465-.019.7C851.869,1263.315,851.874,1263.085,851.879,1262.85Z" transform="translate(-715.51 -1192.378)" fill="#4b1106"/>
              <path id="Path_979" data-name="Path 979" d="M851.925,1260.53c0,.225,0,.451,0,.676C851.925,1260.981,851.925,1260.755,851.925,1260.53Z" transform="translate(-715.542 -1191.148)" fill="#4b1106"/>
              <path id="Path_980" data-name="Path 980" d="M851.8,1265.16c-.009.24-.019.484-.033.724C851.784,1265.644,851.794,1265.4,851.8,1265.16Z" transform="translate(-715.463 -1193.603)" fill="#4b1106"/>
              <path id="Path_981" data-name="Path 981" d="M843.557,1294.06c-.117.155-.235.315-.357.465C843.327,1294.37,843.444,1294.215,843.557,1294.06Z" transform="translate(-710.918 -1208.928)" fill="#4b1106"/>
              <path id="Path_982" data-name="Path 982" d="M851.84,1253.56c0,.216.014.432.019.648C851.854,1253.992,851.849,1253.776,851.84,1253.56Z" transform="translate(-715.5 -1187.452)" fill="#4b1106"/>
              <path id="Path_983" data-name="Path 983" d="M851.93,1258.2c0,.221,0,.442,0,.662C851.935,1258.642,851.93,1258.421,851.93,1258.2Z" transform="translate(-715.548 -1189.912)" fill="#4b1106"/>
              <path id="Path_984" data-name="Path 984" d="M845.881,1290.52c-.094.174-.193.343-.291.512C845.689,1290.868,845.787,1290.694,845.881,1290.52Z" transform="translate(-712.186 -1207.051)" fill="#4b1106"/>
              <path id="Path_985" data-name="Path 985" d="M839.143,1298.57c-.164.136-.324.272-.493.4C838.819,1298.843,838.979,1298.706,839.143,1298.57Z" transform="translate(-708.505 -1211.32)" fill="#4b1106"/>
              <path id="Path_986" data-name="Path 986" d="M840.742,1297.19c-.146.141-.286.282-.442.418C840.455,1297.472,840.6,1297.331,840.742,1297.19Z" transform="translate(-709.38 -1210.588)" fill="#4b1106"/>
              <path id="Path_987" data-name="Path 987" d="M804.694,1112.98a39.786,39.786,0,0,0-11.654,3.8c3.763.146,7.44.305,11.01.474Q804.381,1115.108,804.694,1112.98Z" transform="translate(-684.319 -1112.905)" fill="#4b1106"/>
              <path id="Path_988" data-name="Path 988" d="M837.422,1299.8c-.193.131-.38.268-.582.395C837.042,1300.073,837.23,1299.936,837.422,1299.8Z" transform="translate(-707.546 -1211.972)" fill="#4b1106"/>
              <path id="Path_989" data-name="Path 989" d="M850.942,1227.684c0,.287.009.578.014.878,0-.3-.009-.6-.014-.878-.023-2.358-.127-5.162-.282-8.244C850.815,1222.517,850.918,1225.321,850.942,1227.684Z" transform="translate(-714.874 -1169.359)" fill="#4b1106"/>
              <path id="Path_990" data-name="Path 990" d="M842.214,1295.68c-.132.15-.258.3-.395.442C841.956,1295.976,842.088,1295.826,842.214,1295.68Z" transform="translate(-710.186 -1209.787)" fill="#4b1106"/>
              <path id="Path_991" data-name="Path 991" d="M846.64,1166.01c.07.761.141,1.531.211,2.306C846.781,1167.541,846.71,1166.771,846.64,1166.01Z" transform="translate(-712.742 -1141.026)" fill="#34120e"/>
              <path id="Path_992" data-name="Path 992" d="M851.94,1259.61v0Z" transform="translate(-715.553 -1190.66)" fill="#34120e"/>
              <path id="Path_993" data-name="Path 993" d="M670.93,1177.774c3.762-.023,8.2-.418,10.141-3.626-.117-.935-.23-1.87-.348-2.8a199.335,199.335,0,0,1-1.865-28.286c.136-7.224,1.339-14.383,2.447-21.527-3.57-.164-7.248-.324-11.01-.474-4.284,2-8.5,4.3-12.969,5.763a87.007,87.007,0,0,1-11.226,2.532c-21.724,4.03-42.956,10.395-63.806,17.718-6.618,2.325-13.316,4.805-18.892,9.061a4.765,4.765,0,0,0-1.423,1.484,5.162,5.162,0,0,0-.4,2.438c0,4.693.075,10.019.207,15.548a19.107,19.107,0,0,0,2.879.277Q617.77,1178.079,670.93,1177.774Z" transform="translate(-561.58 -1117.19)" fill="#3a0e08"/>
              <path id="Path_994" data-name="Path 994" d="M850.54,1217.23c.019.348.038.7.056,1.038C850.578,1217.925,850.559,1217.578,850.54,1217.23Z" transform="translate(-714.81 -1168.187)" fill="#34120e"/>
              <path id="Path_995" data-name="Path 995" d="M851.854,1264.34c0,.127-.009.258-.014.385C851.845,1264.6,851.849,1264.467,851.854,1264.34Z" transform="translate(-715.5 -1193.168)" fill="#34120e"/>
              <path id="Path_996" data-name="Path 996" d="M851.43,1242.89l.014.31Z" transform="translate(-715.282 -1181.794)" fill="#34120e"/>
              <path id="Path_997" data-name="Path 997" d="M848.17,1183.39c.066.784.127,1.574.193,2.358C848.3,1184.964,848.236,1184.179,848.17,1183.39Z" transform="translate(-713.554 -1150.242)" fill="#34120e"/>
              <path id="Path_998" data-name="Path 998" d="M851.909,1261.97c0,.136,0,.277-.009.413C851.9,1262.247,851.909,1262.106,851.909,1261.97Z" transform="translate(-715.532 -1191.911)" fill="#34120e"/>
              <path id="Path_999" data-name="Path 999" d="M849.15,1195.89c.146,1.94.277,3.847.395,5.7C849.427,1199.737,849.3,1197.825,849.15,1195.89Z" transform="translate(-714.073 -1156.87)" fill="#34120e"/>
              <path id="Path_1000" data-name="Path 1000" d="M851.66,1248.34q.007.148.014.3C851.665,1248.533,851.66,1248.439,851.66,1248.34Z" transform="translate(-715.404 -1184.684)" fill="#34120e"/>
              <path id="Path_1001" data-name="Path 1001" d="M851.35,1240.82l.014.338Z" transform="translate(-715.24 -1180.696)" fill="#34120e"/>
              <path id="Path_1002" data-name="Path 1002" d="M851.92,1257.27c0,.146,0,.291,0,.437C851.925,1257.561,851.925,1257.416,851.92,1257.27Z" transform="translate(-715.542 -1189.419)" fill="#34120e"/>
              <path id="Path_1003" data-name="Path 1003" d="M851.74,1250.42c0,.132.009.268.014.4C851.749,1250.683,851.745,1250.552,851.74,1250.42Z" transform="translate(-715.447 -1185.787)" fill="#34120e"/>
              <path id="Path_1004" data-name="Path 1004" d="M851.3,1238.85c0,.1,0,.2.009.3C851.3,1239.052,851.3,1238.949,851.3,1238.85Z" transform="translate(-715.213 -1179.651)" fill="#34120e"/>
              <path id="Path_1005" data-name="Path 1005" d="M851.82,1252.65c0,.141.009.287.014.427C851.825,1252.937,851.82,1252.8,851.82,1252.65Z" transform="translate(-715.489 -1186.969)" fill="#34120e"/>
              <path id="Path_1006" data-name="Path 1006" d="M851.88,1254.95c0,.146,0,.286.009.432C851.885,1255.237,851.885,1255.091,851.88,1254.95Z" transform="translate(-715.521 -1188.189)" fill="#34120e"/>
              <path id="Path_1007" data-name="Path 1007" d="M851.6,1269.06l-.014.141A1.189,1.189,0,0,0,851.6,1269.06Z" transform="translate(-715.367 -1195.671)" fill="#34120e"/>
              <path id="Path_1008" data-name="Path 1008" d="M848.161,1285.85c-.047.127-.094.254-.141.376C848.067,1286.1,848.114,1285.977,848.161,1285.85Z" transform="translate(-713.474 -1204.575)" fill="#34120e"/>
              <path id="Path_1009" data-name="Path 1009" d="M847.324,1287.84c-.052.122-.108.244-.164.366C847.216,1288.089,847.273,1287.967,847.324,1287.84Z" transform="translate(-713.018 -1205.63)" fill="#34120e"/>
              <path id="Path_1010" data-name="Path 1010" d="M839.982,1298.07c-.089.08-.188.155-.282.235C839.794,1298.23,839.893,1298.155,839.982,1298.07Z" transform="translate(-709.062 -1211.055)" fill="#34120e"/>
              <path id="Path_1011" data-name="Path 1011" d="M851.749,1266.7c0,.108-.014.221-.019.329C851.735,1266.921,851.744,1266.813,851.749,1266.7Z" transform="translate(-715.441 -1194.42)" fill="#34120e"/>
              <path id="Path_1012" data-name="Path 1012" d="M841.512,1296.61c-.089.094-.183.178-.272.268C841.329,1296.793,841.423,1296.7,841.512,1296.61Z" transform="translate(-709.879 -1210.281)" fill="#34120e"/>
              <path id="Path_1013" data-name="Path 1013" d="M842.914,1295.05c-.08.1-.169.2-.254.3C842.745,1295.247,842.834,1295.149,842.914,1295.05Z" transform="translate(-710.632 -1209.453)" fill="#34120e"/>
              <path id="Path_1014" data-name="Path 1014" d="M849.513,1281.69c-.033.127-.066.254-.1.38C849.448,1281.944,849.476,1281.817,849.513,1281.69Z" transform="translate(-714.211 -1202.369)" fill="#34120e"/>
              <path id="Path_1015" data-name="Path 1015" d="M845.351,1291.62q-.1.169-.211.338Q845.253,1291.789,845.351,1291.62Z" transform="translate(-711.947 -1207.634)" fill="#34120e"/>
              <path id="Path_1016" data-name="Path 1016" d="M846.4,1289.77c-.061.122-.122.24-.188.357C846.276,1290,846.337,1289.887,846.4,1289.77Z" transform="translate(-712.514 -1206.653)" fill="#34120e"/>
              <path id="Path_1017" data-name="Path 1017" d="M848.882,1283.79c-.042.127-.08.258-.122.385C848.8,1284.044,848.84,1283.917,848.882,1283.79Z" transform="translate(-713.867 -1203.482)" fill="#34120e"/>
              <path id="Path_1018" data-name="Path 1018" d="M836.84,1300.64Z" transform="translate(-707.546 -1212.418)" fill="#34120e"/>
              <path id="Path_1019" data-name="Path 1019" d="M850.869,1275.58c0,.042-.014.084-.019.127C850.855,1275.665,850.864,1275.622,850.869,1275.58Z" transform="translate(-714.975 -1199.129)" fill="#34120e"/>
              <path id="Path_1020" data-name="Path 1020" d="M817.85,1112.9h0c.183-.023.362-.056.55-.075C818.212,1112.834,818.033,1112.872,817.85,1112.9Z" transform="translate(-697.476 -1112.82)" fill="#34120e"/>
              <path id="Path_1021" data-name="Path 1021" d="M844.2,1293.38c-.075.108-.155.211-.23.319C844.045,1293.591,844.125,1293.488,844.2,1293.38Z" transform="translate(-711.327 -1208.568)" fill="#34120e"/>
              <path id="Path_1022" data-name="Path 1022" d="M845.26,1151.88c.07.7.146,1.423.216,2.156C845.4,1153.3,845.331,1152.585,845.26,1151.88Z" transform="translate(-712.011 -1133.533)" fill="#34120e"/>
              <path id="Path_1023" data-name="Path 1023" d="M850.506,1277.46c-.019.1-.037.2-.056.305C850.469,1277.667,850.488,1277.563,850.506,1277.46Z" transform="translate(-714.763 -1200.126)" fill="#34120e"/>
              <path id="Path_1024" data-name="Path 1024" d="M838.343,1299.42c-.084.061-.178.122-.263.183C838.169,1299.537,838.259,1299.481,838.343,1299.42Z" transform="translate(-708.203 -1211.771)" fill="#34120e"/>
              <path id="Path_1025" data-name="Path 1025" d="M850.05,1279.56c-.028.122-.052.244-.08.362C850,1279.8,850.022,1279.682,850.05,1279.56Z" transform="translate(-714.508 -1201.239)" fill="#34120e"/>
            </g>
            <path id="Path_1026" data-name="Path 1026" d="M547.445,1118.057a57.362,57.362,0,0,0-.423,6.882q-.282,14.253.46,28.5c.136,2.588.451,5.491,2.471,7.111,1.536,1.231,3.65,1.367,5.613,1.451q53.1,2.205,106.259,1.9c3.777-.024,8.234-.423,10.165-3.664,1.076-1.8,1.043-4.025.977-6.12q-.352-11.323-.7-22.645c-.136-4.434-.249-9.019,1.409-13.133s4.119-10.409,8.549-10.169c-46.126-2.555-121.1-3.448-126.594-1.3C550.034,1109.052,548.131,1113.219,547.445,1118.057Z" transform="translate(-546.945 -1105.657)" fill="#5f170c"/>
            <path id="Path_1027" data-name="Path 1027" d="M556.472,1106.858c-5.073,1.982-7.107,5.58-7.962,9.822,20.8,1.747,41.683,2.034,62.543,2.288,10.789.132,21.584.47,32.368.559,10.169.08,20.344-.08,30.5.568a16.9,16.9,0,0,1,.6-1.761c1.658-4.115,4.119-10.409,8.549-10.169C636.934,1105.6,561.963,1104.712,556.472,1106.858Z" transform="translate(-547.775 -1105.652)" fill="#6d210b"/>
            <path id="Path_1028" data-name="Path 1028" d="M674.616,1210a3.1,3.1,0,0,0-.662-1.569,3.208,3.208,0,0,0-2.024-.723,68.632,68.632,0,0,0-23.021,1.447,1.339,1.339,0,0,0-1.254,1.583,57.65,57.65,0,0,0,.442,10.418,4.334,4.334,0,0,0,1.362,3.1,4.393,4.393,0,0,0,2.325.6q9.554.627,19.132.535a4.752,4.752,0,0,0,3.171-.8,4.526,4.526,0,0,0,1.165-3.072A38.02,38.02,0,0,0,674.616,1210Z" transform="translate(-600.314 -1159.563)" fill="#caae58"/>
            <g id="Group_1643" data-name="Group 1643" transform="translate(47.913 48.079)">
              <path id="Path_1029" data-name="Path 1029" d="M675.339,1210.363a3.1,3.1,0,0,0-.662-1.569,3.207,3.207,0,0,0-2.024-.723c-.244-.028-.489-.038-.733-.061a37.881,37.881,0,0,1,.531,11,4.525,4.525,0,0,1-1.165,3.072,4.777,4.777,0,0,1-3.171.8q-9.568.092-19.132-.535a.079.079,0,0,1-.033,0,3.522,3.522,0,0,0,1.226,2.273,4.391,4.391,0,0,0,2.325.6q9.554.627,19.132.535a4.751,4.751,0,0,0,3.171-.8,4.526,4.526,0,0,0,1.165-3.072A37.868,37.868,0,0,0,675.339,1210.363Z" transform="translate(-648.95 -1208.01)" fill="#b4903d"/>
            </g>
          </g>
        </g>
        <path id="Path_1030" data-name="Path 1030" d="M680.225,1015.634a12.173,12.173,0,0,0-9.094-6.811q-.451-3.9-1.005-7.774c-.3-2.09-2.917-3.2-4.749-2.7a3.516,3.516,0,0,0-2.3,1.837l-3.255.042-.634.014c-1.968-2.659-7.182-1.954-6.989,2.151q.2,4.256.672,8.492a7.934,7.934,0,0,0-6.6,5.049,15.338,15.338,0,0,0-.69,5.444,75.731,75.731,0,0,0,.606,9.113,15.993,15.993,0,0,0,1.527,5.679,5.682,5.682,0,0,0,4.467,3.185,3.675,3.675,0,0,0,3.762-3.514,3.687,3.687,0,0,0,3.908,3.067,4.415,4.415,0,0,0,3.6-3.683,3.6,3.6,0,0,0,7.2.061c-.423,2.231,2.659,3.725,4.5,2.546s2.442-3.7,2.508-5.975-.038-3.091-.038-5.266a1.5,1.5,0,0,0,.442.042C683.246,1026.357,681.752,1018.433,680.225,1015.634Z" transform="translate(-599.249 -621.725)" fill="#fdba86"/>
        <path id="Path_1031" data-name="Path 1031" d="M1151.5,898.165a2.1,2.1,0,0,1,1.879,2.076,83.519,83.519,0,0,1-.756,11.987,77.219,77.219,0,0,1-2.64,11.2,2.094,2.094,0,0,1-2.48,1.414l-8.079-1.907,3.781-25.628Z" transform="translate(-861.124 -568.209)" fill="#fff"/>
        <path id="Path_1032" data-name="Path 1032" d="M783.92,469.828a23.73,23.73,0,0,0,4.547,7.022c2.63,2.532,6.219,3.8,9.751,4.725,9.662,2.541,19.719,3.1,29.691,3.631,15.642.845,32.749,1.268,45.239-8.182,8.511-6.44,13.457-16.553,16.647-26.736,4.368-13.932-8.042-56.427-11.823-57.865-14.284-5.435-34.5,5.256-49.776,5.529-16.05.286-33.928,1.973-44.59,13.974-6.806,7.661-9.338,18.446-8.6,28.662S779.481,460.594,783.92,469.828Z" transform="translate(-667.817 -299.661)" fill="#3b1516"/>
        <path id="Path_1033" data-name="Path 1033" d="M1033.962,722.34c-.465-.188-.878-.352-1.1-.437q-2.008-.895-3.988-1.855c-3.279-1.592-6.463-3.368-9.587-5.242s-6.139-3.927-9.089-6.069c-.2-.146-.606-.451-.968-.728-.5-.4-1.005-.8-1.5-1.207-1.541-1.259-3.034-2.569-4.509-3.9-2.71-2.438-5.28-5.026-7.76-7.689-1.127-1.212-2.217-2.461-3.293-3.72-.648-.756-1.273-1.527-1.9-2.292-.117-.146-.324-.409-.536-.681a133.908,133.908,0,0,1-12.086-19.62c-.784-1.536-1.522-3.091-2.255-4.655-.437-.939-.86-1.884-1.278-2.828-.075-.169-.136-.31-.193-.432-1.428-3.457-2.72-6.975-3.936-10.512-2.612-7.6-4.721-15.355-6.576-23.167-3.654-15.393-6.1-31.044-8.507-46.671-1.24-8.06-11.226-12.405-18.38-10.437-8.525,2.344-11.677,10.339-10.437,18.38,5.143,33.383,10.977,66.944,26.7,97.241,15.862,30.56,42.749,53.642,74.718,65.934C1031.9,742.806,1032.68,732.416,1033.962,722.34Z" transform="translate(-747.859 -394.498)" fill="#1f1818"/>
        <path id="Path_1034" data-name="Path 1034" d="M847.973,665.208c3.532-11.137,4.711-23.852-.968-34.064-2.452-4.406-6.078-8.15-8.013-12.8-1.79-4.3-2.01-9.056-2.212-13.706q-.5-11.59-1-23.176c-.07-1.616-.216-3.405-1.4-4.5a6.114,6.114,0,0,0-3.142-1.235c-35.727-6.581-72.3,2.63-108.622,3.255,3.265,33.153,9.169,84.079,8.2,119.59-3.589,21.391-12.194,28.479-18.845,49.128-1.545,4.8-3.706,9.672-1.005,14.477,1.151,2.053,3.429,3.227,5.453,4.218,2.753,1.353,5.6,2.536,8.455,3.65a98.288,98.288,0,0,0,33.641,6.412,4.345,4.345,0,0,0,2.231-.517,338.027,338.027,0,0,0,50.819-.874c4.087-.362,8.168-.784,12.236-1.31.207-.028.352-.047.465-.061.014,0,.019,0,.033,0l1.306-.183c.841-.122,1.686-.249,2.527-.38,1.559-.244,3.119-.507,4.674-.8,2.64-.493,5.284-1.038,7.872-1.776,1-.286,1.987-.587,2.95-.963.343-.127.254-.108-.272.052l.911-.46c.653-.338,1.31-.676,1.959-1.024q-7.638-28.268-13.068-57.061a83.947,83.947,0,0,1,2.48-13.091C838.761,686.739,844.44,676.344,847.973,665.208Z" transform="translate(-633.244 -396.423)" fill="#231c1b"/>
        <path id="Path_1035" data-name="Path 1035" d="M883.45,773.083q10.153-.352,20.259-1.254c4.087-.362,8.168-.784,12.236-1.31.207-.028.352-.047.465-.061.014,0,.019,0,.033,0l1.306-.183c.841-.122,1.686-.249,2.527-.381,1.56-.244,3.119-.507,4.674-.8,2.64-.493,5.284-1.038,7.872-1.776,1-.286,1.987-.587,2.95-.963.343-.127.254-.108-.272.052l.911-.46c.653-.338,1.31-.676,1.959-1.024q-7.638-28.268-13.068-57.061a83.933,83.933,0,0,1,2.48-13.091c3.114-11.264,8.793-21.659,12.33-32.8s4.711-23.852-.968-34.064c-2.452-4.406-6.078-8.15-8.013-12.8-1.79-4.3-2.01-9.056-2.212-13.706q-.5-11.59-1-23.176c-.07-1.616-.216-3.405-1.4-4.5a6.114,6.114,0,0,0-3.142-1.235,140.886,140.886,0,0,0-16.534-2q-.556,1.945-1.094,3.894c-2.414,8.727-4.664,17.5-6.966,26.257-2.259,8.615-5.111,17.178-7,25.877-3.617,16.642-3.1,33.787-2.56,50.7a456.848,456.848,0,0,1-1.01,50.847C887.034,743.111,885.324,758.109,883.45,773.083Z" transform="translate(-725.388 -394.897)" fill="#27201f"/>
        <path id="Path_1036" data-name="Path 1036" d="M867.937,582.1a87.374,87.374,0,0,0-5.43-8.5,14.079,14.079,0,0,0-3.993-4.082c-2.767.5-6.045.117-8.643.08-7.821-.117-15.759.756-23.533,1.348-6.482.493-13,.277-19.489.8-.071.019-.141.038-.207.061a1.965,1.965,0,0,1-.343.061,20.271,20.271,0,0,0-2.306,2.231,67.226,67.226,0,0,0-8.009,10.822,3.474,3.474,0,0,0-.681,2.118,3.576,3.576,0,0,0,1.376,2.02q19.073,17.276,39.381,33.12a31.28,31.28,0,0,0,7.539,4.777,106.556,106.556,0,0,0,25.008-34.971,8.775,8.775,0,0,0-.672-9.892Z" transform="translate(-678.638 -394.388)" fill="#1f1818"/>
        <path id="Path_1037" data-name="Path 1037" d="M676.088,996.148a2.057,2.057,0,0,1-1.644,2.161,71.736,71.736,0,0,1-11.076,1,66.843,66.843,0,0,1-10.615-.977,2.071,2.071,0,0,1-1.63-2.25l.658-8.272h23.979Z" transform="translate(-602.185 -616.199)" fill="#fff"/>
        <path id="Path_1038" data-name="Path 1038" d="M838.624,597.957c8.474,13.847,16.384,27.633,16.849,28.206a.618.618,0,0,0,1-.056,0,0,0,0,1,0,0c.512-.85,5.9-16.036,9.93-30.607C869.757,583.382,871.9,571.69,872,569a.624.624,0,0,0-.568-.644c-16.586-1.419-32.744.207-49.616,2.753C821.663,571.127,830.437,584.584,838.624,597.957Z" transform="translate(-692.704 -393.491)" fill="#f2ab76"/>
        <path id="Path_1039" data-name="Path 1039" d="M869.388,574.5a1.3,1.3,0,0,1,.146-.117c.023-.052.052-.113.094-.193.188-.366.244-.484.174-.348.291-.808.554-1.63.77-2.466.39-1.512.714-3.034,1.057-4.561.766-3.41,1.625-6.783,2.325-10.2a30.818,30.818,0,0,1,.376-3.715,71.124,71.124,0,0,0-7.8-.484l.573-13.016-27.554-1.217-.714,16.186c-2.212.141-4.42.324-6.632.531a28.716,28.716,0,0,1,2.048,7.774,44.944,44.944,0,0,0,3.415,8.154c8.483,7.191,17.76,14.016,23.218,17.023a1.349,1.349,0,0,1,.211-.254,47.07,47.07,0,0,0,7.872-8.784A3.034,3.034,0,0,1,869.388,574.5Z" transform="translate(-698.211 -377.774)" fill="#f2ab76"/>
        <path id="Path_1040" data-name="Path 1040" d="M702.6,591.457c-.216-.479-.465-.972-.747-1.47-2.541-4.542-7.572-9.578-13.021-8.939a9.574,9.574,0,0,0-3.6,1.09c-5.909,3.349-7.112,11.87-8.864,17.788q-3.72,12.563-7.008,25.252-6.581,25.365-11.438,51.133a797.206,797.206,0,0,0-12.335,99.279c-.009.122-.009.249-.009.371a109.978,109.978,0,0,0,18.676,1c3.706-.038,7.412-.16,11.118-.282.042-.362.08-.723.1-1.085q1.388-22.687,4.087-45.267.282-2.374.587-4.749c.07-.573.437-3.335.55-4.213q.74-5.39,1.555-10.771,1.7-11.238,3.748-22.415,4.664-25.682,11.118-50.993c2.1-8.248,4.171-16.562,6.745-24.674A29.845,29.845,0,0,0,702.6,591.457Z" transform="translate(-599.25 -400.471)" fill="#1f1818"/>
        <path id="Path_1041" data-name="Path 1041" d="M732.255,226.969c-2.94.817-9.075-1.357-19.254,5.547-12.025,8.164-17.464,26.177-21.438,41.438-7.722,29.686-4.707,63.318,1.667,91.91,3.293,14.782,11.785,47.963,33.021,44.351a32.736,32.736,0,0,1-.991-20.884c-1.522,7.431,3.359,15.271,10.278,18.38s15.238,1.982,21.884-1.667a209.663,209.663,0,0,1-13.2-147.609c1.879-6.642,4.115-13.547,2.72-20.306S738.906,225.123,732.255,226.969Z" transform="translate(-621.198 -212.565)" fill="#532020"/>
        <path id="Path_1042" data-name="Path 1042" d="M847.283,538.19s-.493,11.222-.493,11.226c-.08,2.062,12.833,2.555,14.237,2.56,1.832.009,13.284-.681,13.312-1.32l.5-11.25Z" transform="translate(-705.947 -377.774)" fill="#e48b4e"/>
        <g id="Group_1648" data-name="Group 1648" transform="translate(68.881 33.741)">
          <path id="Path_1043" data-name="Path 1043" d="M861.494,300.257c-14.82-18.211-36.192-30.565-59.588-31.64-13.4-.615-27.253,1.249-38.709,8.46a46.361,46.361,0,0,0-13.509,12.471c-3.241,4.777-5.571,10.179-6.064,15.364a8.226,8.226,0,0,1-1.127,3.49c-1,24.364,5.562,49.612,12.48,63.515,23.678,47.6,99.543,37.794,106.006-14.115a92.432,92.432,0,0,0,.254-22.119C859.944,326.185,861.6,317.354,861.494,300.257Z" transform="translate(-719.469 -268.507)" fill="#fdba86"/>
          <ellipse id="Ellipse_186" data-name="Ellipse 186" cx="11.067" cy="7.346" rx="11.067" ry="7.346" transform="translate(45.561 77.886) rotate(-2.585)" fill="#fb8f89"/>
          <path id="Path_1044" data-name="Path 1044" d="M973.677,439c.155,3.481-3.964,6.491-9.2,6.726s-9.615-2.391-9.77-5.871,3.964-6.491,9.2-6.726S973.517,435.524,973.677,439Z" transform="translate(-832.052 -355.798)" fill="#fb8f89"/>
          <circle id="Ellipse_187" data-name="Ellipse 187" cx="16.219" cy="16.219" r="16.219" transform="translate(0 64.917) rotate(-22.007)" fill="#fdba86"/>
          <path id="Path_1045" data-name="Path 1045" d="M901.958,426.863c-.094-1.456-2.372-1.466-2.278,0a11.453,11.453,0,0,0,2.879,6.421c1.4,1.776,3.321,3.565,3.589,5.937.465,4.157-5.867,3.786-8.521,3.8a1.14,1.14,0,0,0,0,2.278c3.65-.023,9.8.07,10.719-4.575C909.492,434.938,902.31,432.2,901.958,426.863Z" transform="translate(-801.203 -351.899)" fill="#e58749"/>
          <g id="Group_1646" data-name="Group 1646" transform="translate(55.012 54.449)">
            <ellipse id="Ellipse_188" data-name="Ellipse 188" cx="6.947" cy="8.544" rx="6.947" ry="8.544" transform="translate(6.573 0.735)" fill="#3f1c12"/>
            <path id="Path_1046" data-name="Path 1046" d="M846.6,401.711a1.921,1.921,0,1,1-1.921-1.921A1.92,1.92,0,0,1,846.6,401.711Z" transform="translate(-827.704 -392.573)" fill="#fff"/>
            <path id="Path_1047" data-name="Path 1047" d="M828.069,385.095a9.469,9.469,0,0,0-6.031-.348,11.3,11.3,0,0,0-4.57,2.156c-1.1.808-3.88,3.255-5.219,1.954a.9.9,0,0,0-1.414,1.09c2.292,3.861,7.379-.615,9.892-1.8a10.745,10.745,0,0,1,4.49-.7,3.556,3.556,0,0,1,1.837.545c.5.333.362,1.4.747,1.9a1.267,1.267,0,0,0,1.959.254C831.3,388.482,829.741,385.936,828.069,385.095Z" transform="translate(-810.706 -384.426)" fill="#3f1c12"/>
          </g>
          <g id="Group_1647" data-name="Group 1647" transform="translate(112.413 53.479)">
            <ellipse id="Ellipse_189" data-name="Ellipse 189" cx="6.595" cy="8.112" rx="6.595" ry="8.112" transform="translate(3.636 0.61)" fill="#3f1c12"/>
            <path id="Path_1048" data-name="Path 1048" d="M961.364,398.867a1.827,1.827,0,1,1-1.827-1.827A1.826,1.826,0,0,1,961.364,398.867Z" transform="translate(-946.06 -390.145)" fill="#fff"/>
            <path id="Path_1049" data-name="Path 1049" d="M946.042,383.168a7.177,7.177,0,0,0-4.157-.784,8.945,8.945,0,0,0-4.148,1.207c-.742.442-1.433.963-2.151,1.442a6.807,6.807,0,0,1-1.978.8.973.973,0,0,0-.23,1.761c2.353,1.268,5.017-1.752,7.215-2.194a8.118,8.118,0,0,1,2.955-.075,2.58,2.58,0,0,1,1.287.54c.47.413.517.991,1.137,1.306a1.28,1.28,0,0,0,1.733-.456C948.415,385.268,947.24,383.92,946.042,383.168Z" transform="translate(-932.908 -382.361)" fill="#3f1c12"/>
          </g>
          <path id="Path_1050" data-name="Path 1050" d="M874.7,487.374l-34.581-.014a2.134,2.134,0,0,0-1.949,3.011,41.743,41.743,0,0,0,3.978,7.154c5.8,7.854,19.723,9.779,28.488,3.584,3.974-2.809,5.529-6.252,6.646-10.381A2.668,2.668,0,0,0,874.7,487.374Z" transform="translate(-770.158 -384.561)" fill="#fff"/>
        </g>
        <path id="Path_1051" data-name="Path 1051" d="M872.106,637.352c-3.645-.146-7.285.052-10.926.207,7.811,12.861,14.73,24.909,15.162,25.445a.618.618,0,0,0,1-.056,0,0,0,0,1,0,0c.451-.747,4.688-12.64,8.45-25.426C881.242,637.677,876.676,637.536,872.106,637.352Z" transform="translate(-713.579 -430.331)" fill="#fff"/>
        <circle id="Ellipse_190" data-name="Ellipse 190" cx="5.74" cy="5.74" r="5.74" transform="translate(155.346 253.182) rotate(-82.397)" fill="#1f1818"/>
        <circle id="Ellipse_191" data-name="Ellipse 191" cx="5.74" cy="5.74" r="5.74" transform="translate(158.471 264.473)" fill="#1f1818"/>
        <path id="Path_1052" data-name="Path 1052" d="M887.426,323.966c-1.423-22.786-7.807-45-15.98-66.319-3.983-10.395-8.46-20.724-15.087-29.672-19.061-25.741-55.436-38.879-85.071-26.727-7.995,3.279-16.337,10.789-22.18,17.154a55.938,55.938,0,0,0-10.338,16.459c-7.253,17.492-6.773,42.974,2.325,59.588,16.515-13.631,28.286-38.352,31.166-59.574a263.982,263.982,0,0,0,40.617,29.409c5.458,3.208,11.052,6.238,16.435,9.563a5.232,5.232,0,0,0-1.367.606,1.937,1.937,0,0,0,.46,3.5c1.456.5,3.03.2,4.547.164.949-.023,1.907.009,2.861.014,1.884,1.334,3.72,2.734,5.491,4.227a72.36,72.36,0,0,1,13.161,96.053,16.524,16.524,0,0,0,14.669-9.1,46.976,46.976,0,0,1-2.884,25.416c2.912,1.672,6.135-1.606,7.764-4.542C885.091,370.223,888.849,346.747,887.426,323.966Z" transform="translate(-646.007 -196.674)" fill="#532020"/>
      </g>
      <g id="Group_1660" data-name="Group 1660" transform="translate(294.683)">
        <g id="Group_1650" data-name="Group 1650" transform="translate(57.895 633.525)">
          <path id="Path_1053" data-name="Path 1053" d="M1436.99,1555.685c-.531-4.753-1.259-8.586-4.251-12.123a12.99,12.99,0,0,0-20.517,0c-2.419,2.856-4.721,7.905-4.251,12.123a199.934,199.934,0,0,1,1.193,25.661c-.169,9.347,6.726,17.145,14.51,17.145,8.037,0,14.345-7.8,14.51-17.145A199.916,199.916,0,0,0,1436.99,1555.685Z" transform="translate(-1356.077 -1538.54)" fill="#2f2626"/>
          <path id="Path_1054" data-name="Path 1054" d="M1335.518,1637.638c4.138-3.932,7.182-8.657,10.893-12.908a4.345,4.345,0,0,1,2.128-1.559,5.413,5.413,0,0,1,2.969.46,39.035,39.035,0,0,0,25.177-.1,7.244,7.244,0,0,1,3.678-.667c2.156.4,3.072,2.64,3.57,4.547a130.224,130.224,0,0,1,4.157,38.122,140.047,140.047,0,0,1-28.4.991q-.106-3.023-.211-6.05a100.575,100.575,0,0,1-46.427,12.119c-3.542.056-7.318-.136-10.2-1.959-4.693-2.959-5.209-8.859-5.28-13.969-.038-2.546.136-5.491,2.438-7.008,1.794-1.184,4.241-1.043,6.477-1.015C1317.317,1648.761,1328.125,1644.665,1335.518,1637.638Z" transform="translate(-1297.561 -1583.221)" fill="#1f1818"/>
        </g>
        <g id="Group_1651" data-name="Group 1651" transform="translate(156.789 633.784)">
          <path id="Path_1055" data-name="Path 1055" d="M1643.4,1554.145c-1.193-4.631-2.452-8.323-5.914-11.4a12.991,12.991,0,0,0-20.315,2.889c-1.992,3.171-3.561,8.493-2.5,12.6a198.678,198.678,0,0,1,4.786,25.238c1.146,9.277,9.07,16.027,16.778,14.932,7.957-1.132,13.105-9.742,11.954-19.014A198.6,198.6,0,0,0,1643.4,1554.145Z" transform="translate(-1564.431 -1539.092)" fill="#2f2626"/>
          <path id="Path_1056" data-name="Path 1056" d="M1546.059,1637.638c4.138-3.932,7.182-8.657,10.893-12.908a4.344,4.344,0,0,1,2.128-1.559,5.412,5.412,0,0,1,2.969.46,39.036,39.036,0,0,0,25.177-.1,7.243,7.243,0,0,1,3.678-.667c2.156.4,3.072,2.64,3.57,4.547a130.224,130.224,0,0,1,4.157,38.122,140.048,140.048,0,0,1-28.4.991l-.211-6.05a100.576,100.576,0,0,1-46.427,12.119c-3.542.056-7.318-.136-10.2-1.959-4.692-2.959-5.209-8.859-5.28-13.969-.037-2.546.136-5.491,2.438-7.008,1.794-1.184,4.241-1.043,6.477-1.015C1527.857,1648.761,1538.665,1644.665,1546.059,1637.638Z" transform="translate(-1508.101 -1583.48)" fill="#1f1818"/>
        </g>
        <g id="Group_1653" data-name="Group 1653" transform="translate(13.602 186.473)">
          <g id="Group_1652" data-name="Group 1652" transform="translate(0 219.252)">
            <path id="Path_1057" data-name="Path 1057" d="M1322.089,1062.695c-5.261-6.731-13.232-10.216-21.724-8.826-7.553,1.24-15.867,3.6-22.321,7.816-7.6,4.965-10.7,13.049-11.593,21.757-.249,2.428,2.222,4.472,4.472,4.472,2.626,0,4.228-2.048,4.472-4.472.606-5.9,2.753-11.156,7.844-14.481,5.129-3.349,11.677-4.805,17.577-6.12s10.677,1.057,14.439,5.533c4.256,5.059,4.894,12.668,4.96,18.972.061,5.768,9,5.773,8.948,0C1329.073,1078.651,1327.57,1069.717,1322.089,1062.695Z" transform="translate(-1236.762 -1053.567)" fill="#3a0e08"/>
            <path id="Path_1058" data-name="Path 1058" d="M1340.153,1187.375c3.194-17.088,1.278-36.065-1.686-53.1-1.418-8.136-2.057-17.934-5.336-25.6-.4-.733-.827-1.447-1.273-2.156-4.988-.272-15.881.028-29.761.714-2.795.136-5.712.291-8.723.46l-2.278.127q-2.3.134-4.655.272t-4.772.291c-3.218.2-6.5.418-9.826.639l-2.5.169c-1.672.113-3.354.235-5.045.352l-5.082.366c-3.4.249-6.806.507-10.2.775-14.444,1.127-28.686,2.391-40.889,3.673a4.39,4.39,0,0,1,.93,0,6.744,6.744,0,0,0-.9.15,3.932,3.932,0,0,0-1.822.958,3.566,3.566,0,0,0-.409.465,2.694,2.694,0,0,0-.183.268.949.949,0,0,0-.089.249c-.033.117-.061.272-.1.46-.1.564-.207,1.423-.319,2.536-.056.554-.113,1.174-.169,1.846-.019.225-.037.456-.056.7-.1,1.184-.2,2.522-.3,3.979-.019.291-.037.587-.061.888-.869,13.241-1.705,35.459-1.259,46.991q.014.43.028.874c0,.1,0,.207,0,.315,0,.2.009.4.014.606,0,.122,0,.249,0,.371,0,.2,0,.39.009.592,0,.108,0,.221,0,.334,0,.366,0,.733.009,1.109,0,.347,0,.7.009,1.057,0,.132,0,.258,0,.39,0,.211,0,.428,0,.644,0,.141,0,.282,0,.423,0,.211,0,.423.01.634,0,.146,0,.291.009.442,0,.211.009.427.014.644,0,.146.009.291.014.442,0,.216.014.432.019.648,0,.15.009.3.019.446.009.216.019.437.028.653.009.146.014.291.023.441.014.225.024.446.038.672l.028.423c.014.23.033.46.052.691.009.132.024.258.033.39.019.24.042.479.066.719.01.113.024.221.038.333.028.258.056.517.089.77,0,.056.014.108.023.164q.183,1.451.47,2.856c.009.047.019.1.028.146.052.249.108.488.164.733.024.1.047.211.075.315.056.225.117.446.178.667.033.122.066.24.1.362.061.211.127.418.193.629.037.127.08.249.122.376.066.2.141.4.211.6l.141.381c.075.193.155.38.235.568.052.127.108.249.164.371.084.183.169.366.258.545.061.122.122.244.183.362.094.174.188.348.286.521.066.117.136.235.207.348.1.169.207.333.315.493.075.113.15.221.225.329.113.16.225.315.343.47.08.1.164.207.249.31.122.15.249.3.38.446.089.1.179.188.268.286.136.141.272.282.418.418.094.089.193.169.286.258.15.132.3.268.456.395.094.075.2.146.3.221.169.127.333.254.512.371.089.061.188.113.277.169.2.122.39.249.6.362a12.861,12.861,0,0,0,1.963.869,38.13,38.13,0,0,0,10.24,1.592c11.658.69,76.945.24,107.321-6.957,4.4-1.043,6.938-2.954,7.868-6.445C1339.448,1190.8,1339.829,1189.108,1340.153,1187.375Zm-136.7-9.347c0-.362,0-.723-.01-1.076V1177C1203.451,1177.337,1203.451,1177.68,1203.456,1178.027Z" transform="translate(-1203.266 -1081.593)" fill="#3a0e08"/>
          </g>
          <path id="Path_1059" data-name="Path 1059" d="M1325.536,1021.433a12.174,12.174,0,0,0-9.094-6.811q-.451-3.9-1.005-7.774c-.3-2.09-2.917-3.2-4.749-2.7a3.516,3.516,0,0,0-2.3,1.837l-3.255.042-.634.014c-1.968-2.659-7.182-1.954-6.989,2.151q.2,4.256.672,8.492a7.934,7.934,0,0,0-6.6,5.049,15.343,15.343,0,0,0-.691,5.444,75.718,75.718,0,0,0,.606,9.113,15.991,15.991,0,0,0,1.527,5.679,5.675,5.675,0,0,0,4.467,3.185,3.888,3.888,0,0,1,7.671-.446,4.415,4.415,0,0,0,3.6-3.683,3.6,3.6,0,0,0,7.2.061c-.423,2.231,2.659,3.725,4.5,2.546s2.443-3.7,2.508-5.975-.037-3.091-.037-5.266a1.5,1.5,0,0,0,.441.042C1328.556,1032.157,1327.062,1024.233,1325.536,1021.433Z" transform="translate(-1249.73 -808.047)" fill="#fdba86"/>
          <path id="Path_1060" data-name="Path 1060" d="M1321.408,1001.948a2.057,2.057,0,0,1-1.644,2.161,71.744,71.744,0,0,1-11.076,1,66.779,66.779,0,0,1-10.616-.977,2.071,2.071,0,0,1-1.63-2.25l.658-8.272h23.979Z" transform="translate(-1252.672 -802.521)" fill="#fff"/>
          <path id="Path_1061" data-name="Path 1061" d="M1347.914,597.257c-.216-.479-.465-.972-.747-1.47-2.541-4.542-7.572-9.578-13.021-8.939a9.576,9.576,0,0,0-3.6,1.09c-5.909,3.349-7.111,11.87-8.864,17.788q-3.72,12.563-7.008,25.252-6.581,25.365-11.438,51.133a797.185,797.185,0,0,0-12.335,99.28c-.009.122-.009.249-.009.371a109.984,109.984,0,0,0,18.676,1c3.706-.038,7.412-.16,11.118-.282.042-.362.08-.723.1-1.085q1.388-22.687,4.086-45.267.282-2.374.587-4.749c.07-.573.437-3.335.55-4.213q.74-5.39,1.555-10.771,1.7-11.238,3.748-22.415,4.664-25.682,11.118-50.993c2.1-8.248,4.171-16.562,6.745-24.674A29.845,29.845,0,0,0,1347.914,597.257Z" transform="translate(-1249.731 -586.793)" fill="#1f1818"/>
        </g>
        <path id="Path_1062" data-name="Path 1062" d="M1481.066,1255.354c4.739-.207,9.469-.573,14.181-1.132a142.708,142.708,0,0,0,25.332-6.219c-.071-.493-.146-.986-.235-1.489q-9.476-54.133-16.849-108.6-9.92-74.516-15.876-149.488c-.437-5.515-1.9-10.268-5.914-14.284a20,20,0,0,0-3.373-2.706,20.214,20.214,0,0,0-3.645-5c-3.452-3.452-9.235-6.44-14.284-5.914q-29.613,3.079-59.227,6.153c-4.2.437-7.877,1.259-11.184,3.4a20.392,20.392,0,0,0-15.782,19.686q.557,93.554,5.928,186.99,2.2,38.294,5.228,76.536a30.906,30.906,0,0,0,.775,5.017c.164.084.333.169.5.258.277.155.564.3.845.441a41.657,41.657,0,0,0,5.994,1.522c8.154.756,16.389.084,24.5-.935,2.447-.348,4.885-.714,7.328-1.08a15.821,15.821,0,0,0,.456-5.219q-7.349-93.265-9.892-186.826-.451-16.5-.733-33.012a121.655,121.655,0,0,0,16.971.465,140.437,140.437,0,0,0,18.906-2.17q6.919,72.74,17.483,145.072Q1474.217,1216.18,1481.066,1255.354Z" transform="translate(-1280.312 -598.47)" fill="#1f1818"/>
        <path id="Path_1063" data-name="Path 1063" d="M1320.58,365.008c.155-.911.305-1.827.47-2.738.164,1.2.348,2.391.54,3.584A6.547,6.547,0,0,0,1320.58,365.008Z" transform="translate(-1251.873 -281.259)" fill="#431807"/>
        <path id="Path_1064" data-name="Path 1064" d="M1491.659,777.251c-8.089-34.529-7.079-42.077-9.549-77.269-.08-30.076.972-80.566.893-110.647-.033-11.63-11.687-17.163-15.407-17.84-20.043-3.631-37.554-2.391-54.9-3.227-4.542-.221-2.48-1.052-13.476-.493-15.393.784-39.461,5.054-39.052,13.908q1.945,49.821-.113,99.693c-1.358,32.862-4.232,67.574-8.14,98.9-.742,5.933,2.062,11.109,7.839,11.419,46.667,2.513,79.951,5.472,126.223-3.354C1490.4,787.51,1492.692,781.647,1491.659,777.251Z" transform="translate(-1268.429 -390.135)" fill="#261e1e"/>
        <path id="Path_1065" data-name="Path 1065" d="M1420.524,569.01a106.8,106.8,0,0,0-10.569,54.52,76.351,76.351,0,0,0,15-.822,38.123,38.123,0,0,1-11.6,9.869c3.171,10.043,6.712,20.062,12.109,29.1s12.8,17.135,22.194,21.894a4.509,4.509,0,0,0,3.34.653,4.365,4.365,0,0,0,1.63-1.165c4.317-4.307,7.393-9.676,10.414-14.975,7.295-12.8,14.683-25.825,18.037-40.17.972-4.166,1.6-8.4,2.212-12.635,1.151-7.915,2.278-15.909,1.649-23.885s-3.185-16.031-8.563-21.95a363.446,363.446,0,0,0-45.91.662C1427.1,570.372,1423.493,570.64,1420.524,569.01Z" transform="translate(-1299.12 -390.89)" fill="#3d2d2d"/>
        <path id="Path_1066" data-name="Path 1066" d="M1459.916,679.406c-.132.164-9.54-27.356-15.6-55.06-5.97-27.3-10.644-56.507-10.315-56.535,16.586-1.419,38.075-2.391,54.943.15C1492.115,568.468,1460.381,678.833,1459.916,679.406Z" transform="translate(-1312.01 -389.498)" fill="#fff"/>
        <g id="Group_1654" data-name="Group 1654" transform="translate(136.673 188.523)">
          <path id="Path_1067" data-name="Path 1067" d="M1476.509,692.543c.188-.235,5.59-18.765,11.7-40.649-1.7-13.152-5.3-40.33-6.308-43.6,4.007-2.668,5.04-8.483,5.669-13.26.057-.446.113-.442-.061-.855a2.424,2.424,0,0,0-1.334-1.1,21.222,21.222,0,0,0-14.989-.991c-2.377.733-4.819,2.1-5.651,4.453-.733,2.071.225,2.067,1.127,4.068,1.16,2.569,2.861,6.21,5.049,7.985-1.3,8.042-4.354,32.1-6.228,47.733C1470.821,676.422,1476.406,692.67,1476.509,692.543Z" transform="translate(-1465.276 -591.158)" fill="#d9101b"/>
        </g>
        <path id="Path_1068" data-name="Path 1068" d="M1449.493,596.936a29.639,29.639,0,0,1,12.288-13.908,3.96,3.96,0,0,1,2.062-.7,4.037,4.037,0,0,1,2.752,1.846,40.079,40.079,0,0,1,6.341,12.767c4.669-2.02,8.939-5.172,10.766-9.38,1.573-3.626,4.068-6.891,4.862-10.761.629-3.072-10.216-11.748-11.4-12.133a8.728,8.728,0,0,0-3.852-.07q-8.962,1.169-17.929,2.344c-1.658.216-3.49.395-4.852-.573a45.111,45.111,0,0,0-10.226,10.752c-2.095,3.1.474,7,2.043,9.906A47.882,47.882,0,0,0,1449.493,596.936Z" transform="translate(-1314.946 -388.453)" fill="#e0ded7"/>
        <path id="Path_1069" data-name="Path 1069" d="M1449.493,587.5a29.639,29.639,0,0,1,12.288-13.908,3.961,3.961,0,0,1,2.062-.7,4.037,4.037,0,0,1,2.752,1.846,40.078,40.078,0,0,1,6.341,12.767c4.669-2.02,8.939-5.172,10.766-9.38,1.573-3.631,4.068-6.891,4.862-10.761.629-3.072-10.216-11.748-11.4-12.133a8.728,8.728,0,0,0-3.852-.07q-8.962,1.17-17.929,2.344c-1.658.216-3.49.395-4.852-.573a45.112,45.112,0,0,0-10.226,10.752c-2.095,3.1.474,7,2.043,9.906A47.882,47.882,0,0,0,1449.493,587.5Z" transform="translate(-1314.946 -383.447)" fill="#fff"/>
        <path id="Path_1070" data-name="Path 1070" d="M1463.133,549.381c.277,3.133.714,6.355,3.034,8.53,2.875,2.687,7.069,3.542,10.893,3.415,3.7-.117,7.718-1.08,10.179-4.058,3-3.631,3.265-6.515,3.279-10.991,0-.742-.39-11.231-.493-11.226l-27.554,1.217c-.531,1.109.047,4.218.179,5.449C1462.819,543.331,1462.969,547.516,1463.133,549.381Z" transform="translate(-1326.998 -372.882)" fill="#f2ab76"/>
        <path id="Path_1071" data-name="Path 1071" d="M1490.274,535.05s.493,11.222.493,11.226c.08,2.062-12.833,2.555-14.237,2.56-1.832.009-13.283-.681-13.312-1.32l-.5-11.25Z" transform="translate(-1327.247 -372.882)" fill="#e48b4e"/>
        <path id="Path_1072" data-name="Path 1072" d="M1193.591,918.916a2.276,2.276,0,0,0-.54.822c-.371,1.315,1.733,1.968,3.189,1.738a12.865,12.865,0,0,0,7.37-3.861c.714,3.936,3.838,7.177,7.4,9.446,1.123.714,3.532.667,4.739,2.222s-.676,4.265.62,4.66c3.875,1.184,10.5,1.066,14.561.686.216-.019-.08-3.025.084-3.152a.973.973,0,0,0,.287-.653,37.249,37.249,0,0,0-.263-12.889l-9.606.86a3.113,3.113,0,0,1-3.053-1.076,26.893,26.893,0,0,0-15.613-6.393,4.5,4.5,0,0,0-2.513.343,4.276,4.276,0,0,0-1.071.963Q1196.389,915.766,1193.591,918.916Z" transform="translate(-1184.224 -572.397)" fill="#f0a065"/>
        <path id="Path_1073" data-name="Path 1073" d="M1197.132,948.748a10.5,10.5,0,0,0-2.555-.155,4.572,4.572,0,0,0-3.776-1.437,1.557,1.557,0,0,0-.949-1.005,7.943,7.943,0,0,0-4.284-.62,7.4,7.4,0,0,0-2.753,1.01,2.621,2.621,0,0,0-1.217.291c-3.25,1.7-6.3,3.537-7.243,6.257-.258.747.545,1.564,1.827,1.536a10.623,10.623,0,0,0,1.62-.15,3.865,3.865,0,0,0,3.922,1.475c.7,1.174,2.438,1.733,4.312,1.32.883,1.184,2.677,1.841,5.1.986,1.733-.611,3.274-2.536,4.335-3.556a11.4,11.4,0,0,0,2.978-4.467C1198.673,949.6,1198.166,948.931,1197.132,948.748Z" transform="translate(-1174.307 -590.51)" fill="#f0a065"/>
        <g id="Group_1655" data-name="Group 1655" transform="translate(41.609 183.302)">
          <path id="Path_1074" data-name="Path 1074" d="M1267.451,908.542a2.561,2.561,0,0,0-2.757,1.874,82.171,82.171,0,0,0-1.761,13.147,75.665,75.665,0,0,0,.714,12.673,2.527,2.527,0,0,0,2.71,2.024l10.277-.46,1.127-28.545Z" transform="translate(-1262.89 -754.236)" fill="#fff"/>
          <path id="Path_1075" data-name="Path 1075" d="M1283.7,732.906c.606-.108,1.146-.207,1.437-.254q2.649-.571,5.28-1.217c4.354-1.071,8.633-2.363,12.861-3.776s8.366-3.034,12.438-4.772c.277-.117.836-.366,1.343-.6.7-.333,1.4-.667,2.1-1.01,2.161-1.057,4.275-2.18,6.374-3.33,3.847-2.1,7.562-4.4,11.184-6.8,1.649-1.09,3.255-2.226,4.848-3.377.958-.69,1.9-1.4,2.832-2.109.178-.136.489-.376.808-.634a155.209,155.209,0,0,0,19.127-18.869c1.3-1.508,2.551-3.048,3.791-4.6.747-.93,1.47-1.869,2.194-2.814.132-.169.235-.305.329-.427,2.518-3.466,4.876-7.022,7.149-10.616A260.059,260.059,0,0,0,1391,643.9c7.9-15.961,16.619-38.211,23.049-54.675,3.321-8.5,16.463-11.217,24.749-7.656,9.869,4.242,11.921,13.537,8.61,22.011-13.744,35.177-30.607,76.165-56.563,105.888-26.182,29.982-64.135,49.654-105.87,56.62C1281.623,755.5,1283.008,744.085,1283.7,732.906Z" transform="translate(-1273.459 -580.042)" fill="#1f1818"/>
        </g>
        <g id="Group_1659" data-name="Group 1659" transform="translate(78.811)">
          <path id="Path_1076" data-name="Path 1076" d="M1481.883,223.443c-2.118-6.181-7.525-14.242-14.021-12.612-1.813.456-3.856.963-4.974,2.123,0,0-2.236-2.922-3.344-4.533-7.516-10.963-22.73-14.632-36.131-16.642a178.774,178.774,0,0,0-40.729-1.409,16.805,16.805,0,0,0,4.913,9.333,97.056,97.056,0,0,0-40.128,1.541q7.412,4.9,14.82,9.8a38.9,38.9,0,0,0-20.2,10.512c1.973,1.8,5.228,1.78,7.765,1.729.892-.019,1.785-.056,2.677-.089a5.98,5.98,0,0,0-.221,1.062,346.08,346.08,0,0,0-1.959,57.01,4.637,4.637,0,0,0,8.168,2.832,2.947,2.947,0,0,0,2.992-2.3c1.569-5.933-.8-24.538.338-30.94.728-4.091,2.706-5.768,5.449-8.948,3.72-4.317,5.721-12.175,11.461-12.974a484.638,484.638,0,0,1,52.167-4.392c7.868-.235,16.163-.183,23.021,3.579,8.464,4.646,12.974,14.03,15.191,23.223s2.7,18.784,5.764,27.746c1.029,3,3.565,6.506,6.656,5.514,2.109-.676,2.94-3.1,3.41-5.2A103.721,103.721,0,0,0,1481.883,223.443Z" transform="translate(-1342.09 -189.803)" fill="#532020"/>
          <g id="Group_1658" data-name="Group 1658" transform="translate(6.703 33.985)">
            <path id="Path_1077" data-name="Path 1077" d="M1491.971,343.226c1.912-11.879,2.128-24.214,1.86-35.675s-3.443-22.387-11.569-30.832c-15.36-15.961-40.33-15.731-60.72-13.425-16.2,1.832-36.229,3.265-42.58,23.843-5.176,16.774-2.551,34.7-3.88,44.449a95.21,95.21,0,0,0,.263,22.711c6.637,53.3,84.535,63.36,108.848,14.491A88.977,88.977,0,0,0,1491.971,343.226Z" transform="translate(-1365.997 -262.154)" fill="#fdba86"/>
            <circle id="Ellipse_192" data-name="Ellipse 192" cx="16.656" cy="16.656" r="16.656" transform="translate(109.543 58.013)" fill="#fdba86"/>
            <circle id="Ellipse_193" data-name="Ellipse 193" cx="16.656" cy="16.656" r="16.656" transform="translate(0 51.023)" fill="#fdba86"/>
            <path id="Path_1078" data-name="Path 1078" d="M1457.8,425.727c.1-1.5,2.438-1.508,2.339,0a11.764,11.764,0,0,1-2.959,6.595c-1.442,1.823-3.41,3.659-3.682,6.1-.479,4.27,6.022,3.889,8.746,3.9a1.17,1.17,0,0,1,0,2.339c-3.748-.023-10.066.075-11.005-4.7C1450.068,434.018,1457.438,431.209,1457.8,425.727Z" transform="translate(-1406.606 -348.296)" fill="#e58749"/>
            <g id="Group_1656" data-name="Group 1656" transform="translate(77.146 57.12)">
              <ellipse id="Ellipse_194" data-name="Ellipse 194" cx="7.135" cy="8.774" rx="7.135" ry="8.774" fill="#3f1c12"/>
              <path id="Path_1079" data-name="Path 1079" d="M1524.03,399.9A1.973,1.973,0,1,0,1526,397.93,1.973,1.973,0,0,0,1524.03,399.9Z" transform="translate(-1522.419 -391.274)" fill="#fff"/>
            </g>
            <g id="Group_1657" data-name="Group 1657" transform="translate(21.945 56.002)">
              <ellipse id="Ellipse_195" data-name="Ellipse 195" cx="6.773" cy="8.328" rx="6.773" ry="8.328" fill="#3f1c12"/>
              <circle id="Ellipse_196" data-name="Ellipse 196" cx="1.874" cy="1.874" r="1.874" transform="translate(1.569 6.454)" fill="#fff"/>
            </g>
            <path id="Path_1080" data-name="Path 1080" d="M1453.968,487.864l35.506-.014a2.19,2.19,0,0,1,2,3.091,42.724,42.724,0,0,1-4.087,7.346c-5.956,8.06-20.254,10.043-29.249,3.678-4.077-2.884-5.679-6.416-6.825-10.663A2.74,2.74,0,0,1,1453.968,487.864Z" transform="translate(-1406.663 -381.837)" fill="#fff"/>
          </g>
          <path id="Path_1081" data-name="Path 1081" d="M1381.443,234.6c-2.546,2.992-4.655,7.854-1.7,10.447a8,8,0,0,0,3.42,1.48,226.111,226.111,0,0,0,94.714,3.495q2.417,12.943,4.838,25.886c.911,4.866,1.888,9.9,4.725,13.96s8.079,6.881,12.79,5.345c2.048-12.579,3.011-25.529.512-38.028s-11.17-22.128-18.977-32.2c-3.9-5.035-13.143-7.44-20.9-9.371C1432.976,208.679,1400.063,212.714,1381.443,234.6Z" transform="translate(-1361.292 -201.846)" fill="#532020"/>
        </g>
      </g>
      <path id="Path_1082" data-name="Path 1082" d="M1415.123,346.432a46.686,46.686,0,0,0-7.882-.653c-2.5.019-5.19.019-7.2,1.63a1.258,1.258,0,0,0,.254,1.963c1.837,1.109,3.969.944,6.045,1.141,2.466.24,4.932.6,7.37,1.052C1417.086,352.2,1418.486,346.977,1415.123,346.432Z" transform="translate(-999.129 -272.514)" fill="#532020"/>
      <path id="Path_1083" data-name="Path 1083" d="M1538.681,346.068c-5.1.15-11.029.108-15.928,1.649a2.087,2.087,0,0,0,.554,4.082c2.386.1,4.824-.244,7.22-.287a60.687,60.687,0,0,1,8.154.531C1542.438,352.485,1542.612,345.951,1538.681,346.068Z" transform="translate(-1063.616 -272.667)" fill="#532020"/>
      <path id="Path_1084" data-name="Path 1084" d="M831.466,359.127c-5.068-.46-10.315-.714-15.012,1.47a1.139,1.139,0,0,0,.268,2.067c4.838,1.052,9.831.691,14.74,1.306C834.524,364.355,834.585,359.408,831.466,359.127Z" transform="translate(-689.567 -279.426)" fill="#532020"/>
    </g>
  </g>
</svg>
