<svg xmlns="http://www.w3.org/2000/svg" width="261.756" height="225.149" viewBox="0 0 261.756 225.149">
  <g id="undraw_file_analysis_8k9b" transform="translate(0.001 -0.001)">
    <circle id="Ellipse_75" data-name="Ellipse 75" cx="2.422" cy="2.422" r="2.422" transform="translate(-0.001 0.001)" fill="#e6e6e6"/>
    <circle id="Ellipse_76" data-name="Ellipse 76" cx="2.422" cy="2.422" r="2.422" transform="translate(12.259 0.001)" fill="#e6e6e6"/>
    <circle id="Ellipse_77" data-name="Ellipse 77" cx="2.422" cy="2.422" r="2.422" transform="translate(24.518 0.001)" fill="#e6e6e6"/>
    <circle id="Ellipse_78" data-name="Ellipse 78" cx="2.422" cy="2.422" r="2.422" transform="translate(36.777 0.001)" fill="#e6e6e6"/>
    <circle id="Ellipse_79" data-name="Ellipse 79" cx="2.422" cy="2.422" r="2.422" transform="translate(49.037 0.001)" fill="#e6e6e6"/>
    <circle id="Ellipse_80" data-name="Ellipse 80" cx="2.422" cy="2.422" r="2.422" transform="translate(61.296 0.001)" fill="#e6e6e6"/>
    <circle id="Ellipse_81" data-name="Ellipse 81" cx="2.422" cy="2.422" r="2.422" transform="translate(73.555 0.001)" fill="#e6e6e6"/>
    <circle id="Ellipse_82" data-name="Ellipse 82" cx="2.422" cy="2.422" r="2.422" transform="translate(85.814 0.001)" fill="#e6e6e6"/>
    <circle id="Ellipse_83" data-name="Ellipse 83" cx="2.422" cy="2.422" r="2.422" transform="translate(98.074 0.001)" fill="#e6e6e6"/>
    <circle id="Ellipse_84" data-name="Ellipse 84" cx="2.422" cy="2.422" r="2.422" transform="translate(110.333 0.001)" fill="#e6e6e6"/>
    <circle id="Ellipse_85" data-name="Ellipse 85" cx="2.422" cy="2.422" r="2.422" transform="translate(-0.001 12.414)" fill="#e6e6e6"/>
    <circle id="Ellipse_86" data-name="Ellipse 86" cx="2.422" cy="2.422" r="2.422" transform="translate(12.259 12.414)" fill="#e6e6e6"/>
    <circle id="Ellipse_87" data-name="Ellipse 87" cx="2.422" cy="2.422" r="2.422" transform="translate(24.518 12.414)" fill="#e6e6e6"/>
    <circle id="Ellipse_88" data-name="Ellipse 88" cx="2.422" cy="2.422" r="2.422" transform="translate(36.777 12.414)" fill="#ffb93e"/>
    <circle id="Ellipse_89" data-name="Ellipse 89" cx="2.422" cy="2.422" r="2.422" transform="translate(49.037 12.414)" fill="#e6e6e6"/>
    <circle id="Ellipse_90" data-name="Ellipse 90" cx="2.422" cy="2.422" r="2.422" transform="translate(61.296 12.414)" fill="#e6e6e6"/>
    <circle id="Ellipse_91" data-name="Ellipse 91" cx="2.422" cy="2.422" r="2.422" transform="translate(73.555 12.414)" fill="#e6e6e6"/>
    <circle id="Ellipse_92" data-name="Ellipse 92" cx="2.422" cy="2.422" r="2.422" transform="translate(85.814 12.414)" fill="#e6e6e6"/>
    <circle id="Ellipse_93" data-name="Ellipse 93" cx="2.422" cy="2.422" r="2.422" transform="translate(98.074 12.414)" fill="#e6e6e6"/>
    <circle id="Ellipse_94" data-name="Ellipse 94" cx="2.422" cy="2.422" r="2.422" transform="translate(110.333 12.414)" fill="#e6e6e6"/>
    <circle id="Ellipse_95" data-name="Ellipse 95" cx="2.422" cy="2.422" r="2.422" transform="translate(-0.001 24.827)" fill="#e6e6e6"/>
    <circle id="Ellipse_96" data-name="Ellipse 96" cx="2.422" cy="2.422" r="2.422" transform="translate(12.259 24.827)" fill="#e6e6e6"/>
    <circle id="Ellipse_97" data-name="Ellipse 97" cx="2.422" cy="2.422" r="2.422" transform="translate(24.518 24.827)" fill="#e6e6e6"/>
    <circle id="Ellipse_98" data-name="Ellipse 98" cx="2.422" cy="2.422" r="2.422" transform="translate(36.777 24.827)" fill="#e6e6e6"/>
    <circle id="Ellipse_99" data-name="Ellipse 99" cx="2.422" cy="2.422" r="2.422" transform="translate(49.037 24.827)" fill="#e6e6e6"/>
    <circle id="Ellipse_100" data-name="Ellipse 100" cx="2.422" cy="2.422" r="2.422" transform="translate(61.296 24.827)" fill="#e6e6e6"/>
    <circle id="Ellipse_101" data-name="Ellipse 101" cx="2.422" cy="2.422" r="2.422" transform="translate(73.555 24.827)" fill="#e6e6e6"/>
    <circle id="Ellipse_102" data-name="Ellipse 102" cx="2.422" cy="2.422" r="2.422" transform="translate(85.814 24.827)" fill="#e6e6e6"/>
    <circle id="Ellipse_103" data-name="Ellipse 103" cx="2.422" cy="2.422" r="2.422" transform="translate(98.074 24.827)" fill="#e6e6e6"/>
    <circle id="Ellipse_104" data-name="Ellipse 104" cx="2.422" cy="2.422" r="2.422" transform="translate(110.333 24.827)" fill="#e6e6e6"/>
    <circle id="Ellipse_105" data-name="Ellipse 105" cx="2.422" cy="2.422" r="2.422" transform="translate(-0.001 37.24)" fill="#e6e6e6"/>
    <circle id="Ellipse_106" data-name="Ellipse 106" cx="2.422" cy="2.422" r="2.422" transform="translate(12.259 37.24)" fill="#e6e6e6"/>
    <circle id="Ellipse_107" data-name="Ellipse 107" cx="2.422" cy="2.422" r="2.422" transform="translate(24.518 37.24)" fill="#e6e6e6"/>
    <circle id="Ellipse_108" data-name="Ellipse 108" cx="2.422" cy="2.422" r="2.422" transform="translate(36.777 37.24)" fill="#e6e6e6"/>
    <circle id="Ellipse_109" data-name="Ellipse 109" cx="2.422" cy="2.422" r="2.422" transform="translate(49.037 37.24)" fill="#e6e6e6"/>
    <circle id="Ellipse_110" data-name="Ellipse 110" cx="2.422" cy="2.422" r="2.422" transform="translate(61.296 37.24)" fill="#e6e6e6"/>
    <circle id="Ellipse_111" data-name="Ellipse 111" cx="2.422" cy="2.422" r="2.422" transform="translate(73.555 37.24)" fill="#e6e6e6"/>
    <circle id="Ellipse_112" data-name="Ellipse 112" cx="2.422" cy="2.422" r="2.422" transform="translate(85.814 37.24)" fill="#e6e6e6"/>
    <circle id="Ellipse_113" data-name="Ellipse 113" cx="2.422" cy="2.422" r="2.422" transform="translate(98.074 37.24)" fill="#e6e6e6"/>
    <circle id="Ellipse_114" data-name="Ellipse 114" cx="2.422" cy="2.422" r="2.422" transform="translate(110.333 37.24)" fill="#e6e6e6"/>
    <circle id="Ellipse_115" data-name="Ellipse 115" cx="2.422" cy="2.422" r="2.422" transform="translate(-0.001 49.653)" fill="#e6e6e6"/>
    <circle id="Ellipse_116" data-name="Ellipse 116" cx="2.422" cy="2.422" r="2.422" transform="translate(12.259 49.653)" fill="#ffb93e"/>
    <circle id="Ellipse_117" data-name="Ellipse 117" cx="2.422" cy="2.422" r="2.422" transform="translate(24.518 49.653)" fill="#e6e6e6"/>
    <circle id="Ellipse_118" data-name="Ellipse 118" cx="2.422" cy="2.422" r="2.422" transform="translate(36.777 49.653)" fill="#e6e6e6"/>
    <circle id="Ellipse_119" data-name="Ellipse 119" cx="2.422" cy="2.422" r="2.422" transform="translate(49.037 49.653)" fill="#e6e6e6"/>
    <circle id="Ellipse_120" data-name="Ellipse 120" cx="2.422" cy="2.422" r="2.422" transform="translate(61.296 49.653)" fill="#e6e6e6"/>
    <circle id="Ellipse_121" data-name="Ellipse 121" cx="2.422" cy="2.422" r="2.422" transform="translate(73.555 49.653)" fill="#e6e6e6"/>
    <circle id="Ellipse_122" data-name="Ellipse 122" cx="2.422" cy="2.422" r="2.422" transform="translate(85.814 49.653)" fill="#e6e6e6"/>
    <circle id="Ellipse_123" data-name="Ellipse 123" cx="2.422" cy="2.422" r="2.422" transform="translate(98.074 49.653)" fill="#e6e6e6"/>
    <circle id="Ellipse_124" data-name="Ellipse 124" cx="2.422" cy="2.422" r="2.422" transform="translate(110.333 49.653)" fill="#e6e6e6"/>
    <circle id="Ellipse_125" data-name="Ellipse 125" cx="2.422" cy="2.422" r="2.422" transform="translate(-0.001 62.067)" fill="#e6e6e6"/>
    <circle id="Ellipse_126" data-name="Ellipse 126" cx="2.422" cy="2.422" r="2.422" transform="translate(12.259 62.067)" fill="#e6e6e6"/>
    <circle id="Ellipse_127" data-name="Ellipse 127" cx="2.422" cy="2.422" r="2.422" transform="translate(24.518 62.067)" fill="#e6e6e6"/>
    <circle id="Ellipse_128" data-name="Ellipse 128" cx="2.422" cy="2.422" r="2.422" transform="translate(36.777 62.067)" fill="#e6e6e6"/>
    <circle id="Ellipse_129" data-name="Ellipse 129" cx="2.422" cy="2.422" r="2.422" transform="translate(49.037 62.067)" fill="#e6e6e6"/>
    <circle id="Ellipse_130" data-name="Ellipse 130" cx="2.422" cy="2.422" r="2.422" transform="translate(61.296 62.067)" fill="#e6e6e6"/>
    <circle id="Ellipse_131" data-name="Ellipse 131" cx="2.422" cy="2.422" r="2.422" transform="translate(73.555 62.067)" fill="#e6e6e6"/>
    <circle id="Ellipse_132" data-name="Ellipse 132" cx="2.422" cy="2.422" r="2.422" transform="translate(85.814 62.067)" fill="#e6e6e6"/>
    <circle id="Ellipse_133" data-name="Ellipse 133" cx="2.422" cy="2.422" r="2.422" transform="translate(98.074 62.067)" fill="#e6e6e6"/>
    <circle id="Ellipse_134" data-name="Ellipse 134" cx="2.422" cy="2.422" r="2.422" transform="translate(110.333 62.067)" fill="#e6e6e6"/>
    <circle id="Ellipse_135" data-name="Ellipse 135" cx="2.422" cy="2.422" r="2.422" transform="translate(-0.001 74.48)" fill="#e6e6e6"/>
    <circle id="Ellipse_136" data-name="Ellipse 136" cx="2.422" cy="2.422" r="2.422" transform="translate(12.259 74.48)" fill="#e6e6e6"/>
    <circle id="Ellipse_137" data-name="Ellipse 137" cx="2.422" cy="2.422" r="2.422" transform="translate(24.518 74.48)" fill="#ffb93e"/>
    <circle id="Ellipse_138" data-name="Ellipse 138" cx="2.422" cy="2.422" r="2.422" transform="translate(36.777 74.48)" fill="#e6e6e6"/>
    <circle id="Ellipse_139" data-name="Ellipse 139" cx="2.422" cy="2.422" r="2.422" transform="translate(49.037 74.48)" fill="#e6e6e6"/>
    <circle id="Ellipse_140" data-name="Ellipse 140" cx="2.422" cy="2.422" r="2.422" transform="translate(61.296 74.48)" fill="#e6e6e6"/>
    <circle id="Ellipse_141" data-name="Ellipse 141" cx="2.422" cy="2.422" r="2.422" transform="translate(73.555 74.48)" fill="#e6e6e6"/>
    <circle id="Ellipse_142" data-name="Ellipse 142" cx="2.422" cy="2.422" r="2.422" transform="translate(85.814 74.48)" fill="#e6e6e6"/>
    <circle id="Ellipse_143" data-name="Ellipse 143" cx="2.422" cy="2.422" r="2.422" transform="translate(98.074 74.48)" fill="#e6e6e6"/>
    <circle id="Ellipse_144" data-name="Ellipse 144" cx="2.422" cy="2.422" r="2.422" transform="translate(110.333 74.48)" fill="#e6e6e6"/>
    <circle id="Ellipse_145" data-name="Ellipse 145" cx="2.422" cy="2.422" r="2.422" transform="translate(-0.001 86.893)" fill="#e6e6e6"/>
    <circle id="Ellipse_146" data-name="Ellipse 146" cx="2.422" cy="2.422" r="2.422" transform="translate(12.259 86.893)" fill="#e6e6e6"/>
    <circle id="Ellipse_147" data-name="Ellipse 147" cx="2.422" cy="2.422" r="2.422" transform="translate(24.518 86.893)" fill="#e6e6e6"/>
    <circle id="Ellipse_148" data-name="Ellipse 148" cx="2.422" cy="2.422" r="2.422" transform="translate(36.777 86.893)" fill="#e6e6e6"/>
    <circle id="Ellipse_149" data-name="Ellipse 149" cx="2.422" cy="2.422" r="2.422" transform="translate(49.037 86.893)" fill="#e6e6e6"/>
    <circle id="Ellipse_150" data-name="Ellipse 150" cx="2.422" cy="2.422" r="2.422" transform="translate(61.296 86.893)" fill="#e6e6e6"/>
    <circle id="Ellipse_151" data-name="Ellipse 151" cx="2.422" cy="2.422" r="2.422" transform="translate(73.555 86.893)" fill="#e6e6e6"/>
    <circle id="Ellipse_152" data-name="Ellipse 152" cx="2.422" cy="2.422" r="2.422" transform="translate(85.814 86.893)" fill="#e6e6e6"/>
    <circle id="Ellipse_153" data-name="Ellipse 153" cx="2.422" cy="2.422" r="2.422" transform="translate(98.074 86.893)" fill="#e6e6e6"/>
    <circle id="Ellipse_154" data-name="Ellipse 154" cx="2.422" cy="2.422" r="2.422" transform="translate(110.333 86.893)" fill="#e6e6e6"/>
    <circle id="Ellipse_155" data-name="Ellipse 155" cx="2.422" cy="2.422" r="2.422" transform="translate(-0.001 99.306)" fill="#e6e6e6"/>
    <circle id="Ellipse_156" data-name="Ellipse 156" cx="2.422" cy="2.422" r="2.422" transform="translate(12.259 99.306)" fill="#e6e6e6"/>
    <circle id="Ellipse_157" data-name="Ellipse 157" cx="2.422" cy="2.422" r="2.422" transform="translate(24.518 99.306)" fill="#e6e6e6"/>
    <circle id="Ellipse_158" data-name="Ellipse 158" cx="2.422" cy="2.422" r="2.422" transform="translate(36.777 99.306)" fill="#e6e6e6"/>
    <circle id="Ellipse_159" data-name="Ellipse 159" cx="2.422" cy="2.422" r="2.422" transform="translate(49.037 99.306)" fill="#e6e6e6"/>
    <circle id="Ellipse_160" data-name="Ellipse 160" cx="2.422" cy="2.422" r="2.422" transform="translate(61.296 99.306)" fill="#e6e6e6"/>
    <circle id="Ellipse_161" data-name="Ellipse 161" cx="2.422" cy="2.422" r="2.422" transform="translate(73.555 99.306)" fill="#e6e6e6"/>
    <circle id="Ellipse_162" data-name="Ellipse 162" cx="2.422" cy="2.422" r="2.422" transform="translate(85.814 99.306)" fill="#e6e6e6"/>
    <circle id="Ellipse_163" data-name="Ellipse 163" cx="2.422" cy="2.422" r="2.422" transform="translate(98.074 99.306)" fill="#e6e6e6"/>
    <circle id="Ellipse_164" data-name="Ellipse 164" cx="2.422" cy="2.422" r="2.422" transform="translate(110.333 99.306)" fill="#e6e6e6"/>
    <circle id="Ellipse_165" data-name="Ellipse 165" cx="2.422" cy="2.422" r="2.422" transform="translate(-0.001 111.719)" fill="#e6e6e6"/>
    <circle id="Ellipse_166" data-name="Ellipse 166" cx="2.422" cy="2.422" r="2.422" transform="translate(12.259 111.719)" fill="#e6e6e6"/>
    <circle id="Ellipse_167" data-name="Ellipse 167" cx="2.422" cy="2.422" r="2.422" transform="translate(24.518 111.719)" fill="#e6e6e6"/>
    <circle id="Ellipse_168" data-name="Ellipse 168" cx="2.422" cy="2.422" r="2.422" transform="translate(36.777 111.719)" fill="#e6e6e6"/>
    <circle id="Ellipse_169" data-name="Ellipse 169" cx="2.422" cy="2.422" r="2.422" transform="translate(49.037 111.719)" fill="#e6e6e6"/>
    <circle id="Ellipse_170" data-name="Ellipse 170" cx="2.422" cy="2.422" r="2.422" transform="translate(61.296 111.719)" fill="#e6e6e6"/>
    <circle id="Ellipse_171" data-name="Ellipse 171" cx="2.422" cy="2.422" r="2.422" transform="translate(73.555 111.719)" fill="#e6e6e6"/>
    <circle id="Ellipse_172" data-name="Ellipse 172" cx="2.422" cy="2.422" r="2.422" transform="translate(85.814 111.719)" fill="#e6e6e6"/>
    <circle id="Ellipse_173" data-name="Ellipse 173" cx="2.422" cy="2.422" r="2.422" transform="translate(98.074 111.719)" fill="#e6e6e6"/>
    <circle id="Ellipse_174" data-name="Ellipse 174" cx="2.422" cy="2.422" r="2.422" transform="translate(110.333 111.719)" fill="#e6e6e6"/>
    <path id="Path_179" data-name="Path 179" d="M444.312,193.83a3.062,3.062,0,0,1,3.062,3.062V319.367a3.062,3.062,0,0,1-3.062,3.062H356.436a3.062,3.062,0,0,1-3.062-3.062V196.892a3.062,3.062,0,0,1,3.062-3.062h87.876" transform="translate(-301.987 -172.185)" fill="#e6e6e6"/>
    <path id="Path_180" data-name="Path 180" d="M362.991,325.209h87.163V203.447H362.991Z" transform="translate(-308.185 -178.384)" fill="#ffeddc"/>
    <path id="Path_181" data-name="Path 181" d="M464.815,257.643a.612.612,0,0,1,.612.612v1.225a.612.612,0,0,1-.612.612H416.438a.612.612,0,0,1-.612-.612v-1.225a.612.612,0,0,1,.612-.612h48.378" transform="translate(-342.239 -213.316)" fill="#e6e6e6"/>
    <path id="Path_182" data-name="Path 182" d="M464.815,274.009a.612.612,0,0,1,.612.612v1.225a.612.612,0,0,1-.612.612H416.438a.612.612,0,0,1-.612-.612v-1.225a.612.612,0,0,1,.612-.612h48.378" transform="translate(-342.239 -223.864)" fill="#e6e6e6"/>
    <path id="Path_183" data-name="Path 183" d="M464.815,290.376a.612.612,0,0,1,.612.612v1.225a.612.612,0,0,1-.612.612H416.438a.612.612,0,0,1-.612-.612v-1.225a.612.612,0,0,1,.612-.612h48.378" transform="translate(-342.239 -234.414)" fill="#ffb93e"/>
    <path id="Path_184" data-name="Path 184" d="M464.815,307.1a.612.612,0,0,1,.612.612v1.225a.612.612,0,0,1-.612.612H416.438a.612.612,0,0,1-.612-.612v-1.225a.612.612,0,0,1,.612-.612h48.378" transform="translate(-342.239 -245.194)" fill="#e6e6e6"/>
    <path id="Path_185" data-name="Path 185" d="M464.815,323.467a.612.612,0,0,1,.612.612V325.3a.612.612,0,0,1-.612.612H416.438a.612.612,0,0,1-.612-.612v-1.225a.612.612,0,0,1,.612-.612h48.378" transform="translate(-342.239 -255.742)" fill="#e6e6e6"/>
    <path id="Path_186" data-name="Path 186" d="M464.815,339.834a.612.612,0,0,1,.612.612v1.225a.612.612,0,0,1-.612.612H416.438a.612.612,0,0,1-.612-.612v-1.225a.612.612,0,0,1,.612-.612h48.378" transform="translate(-342.239 -266.292)" fill="#e6e6e6"/>
    <path id="Path_187" data-name="Path 187" d="M417.128,394.89a.712.712,0,0,0-.711.711v33.027a.712.712,0,0,0,.711.711h47.677a.712.712,0,0,0,.711-.711V395.6a.712.712,0,0,0-.711-.711Z" transform="translate(-342.621 -301.778)" fill="#ffb93e"/>
    <path id="Path_188" data-name="Path 188" d="M276.333,86.44l-.5-.133,10.922-41.086h63.351v.518H287.153Z" transform="translate(-177.787 -29.147)" fill="#3f3d56"/>
    <path id="Path_189" data-name="Path 189" d="M698.3,174.468a5.435,5.435,0,1,1,5.435-5.435A5.435,5.435,0,0,1,698.3,174.468Zm0-10.353a4.918,4.918,0,1,0,4.918,4.918,4.918,4.918,0,0,0-4.918-4.918Z" transform="translate(-520.802 -152.699)" fill="#3f3d56"/>
    <circle id="Ellipse_175" data-name="Ellipse 175" cx="2.071" cy="2.071" r="2.071" transform="translate(175.425 14.263)" fill="#ffb93e"/>
    <path id="Path_190" data-name="Path 190" d="M138.563,356.941l.5.134-11,41.065-63.351-.121V397.5l62.953.121Z" transform="translate(-41.71 -230.064)" fill="#3f3d56"/>
    <path id="Path_191" data-name="Path 191" d="M249.11,589.4a5.435,5.435,0,1,1-5.446,5.425A5.435,5.435,0,0,1,249.11,589.4Zm-.02,10.353a4.918,4.918,0,1,0-4.908-4.927,4.918,4.918,0,0,0,4.908,4.927Z" transform="translate(-231.274 -427.145)" fill="#3f3d56"/>
    <circle id="Ellipse_176" data-name="Ellipse 176" cx="2.071" cy="2.071" r="2.071" transform="translate(15.755 165.615)" fill="#ffb93e"/>
    <path id="Path_192" data-name="Path 192" d="M610.2,563.925h-3.653L607.2,543.7l9.655.522Z" transform="translate(-390.95 -350.44)" fill="#ffb8b8"/>
    <path id="Path_193" data-name="Path 193" d="M803.594,743.683c-1.1.5-2.026-3.574-2.956-2.66-2.6,2.557-5.29,3.113-8.762,2l-.08-.014a1.627,1.627,0,0,1-1.025-2.119h0a1.626,1.626,0,0,1,1.128-1.007l2.767-.692,4.344-7.64,4.435-.3h0a10.6,10.6,0,0,1,1.96,9.039C805,741.931,804.38,743.324,803.594,743.683Z" transform="translate(-583.842 -518.577)" fill="#2f2e41"/>
    <path id="Path_194" data-name="Path 194" d="M695.92,555.417l-3.4,1.344-6.831-19.045,9.17-3.066Z" transform="translate(-441.959 -344.606)" fill="#ffb8b8"/>
    <path id="Path_195" data-name="Path 195" d="M913.112,735.035c-.84.874-3.2-2.578-3.727-1.386-1.479,3.334-3.774,4.841-7.414,5.08l-.08.017a1.626,1.626,0,0,1-1.733-1.594h0a1.626,1.626,0,0,1,.679-1.351l2.318-1.661,1.23-8.7,4.014-1.91h0a10.6,10.6,0,0,1,5.147,7.684C913.776,732.888,913.711,734.412,913.112,735.035Z" transform="translate(-654.414 -513.6)" fill="#2f2e41"/>
    <path id="Path_196" data-name="Path 196" d="M875.253,408.243l-5.608,1.442a2.935,2.935,0,0,1-3.664-2.73h0a2.935,2.935,0,0,1,3.028-3.047l4.94.159,9.519-3.466-9-6.71,1.044-9.394,17.535,14.077a2.913,2.913,0,0,1,1.082,2.064h0A2.913,2.913,0,0,1,892,403.656C887.887,407.009,881.9,408.036,875.253,408.243Z" transform="translate(-632.383 -295.079)" fill="#ffb8b8"/>
    <circle id="Ellipse_177" data-name="Ellipse 177" cx="9.133" cy="9.133" r="9.133" transform="translate(220.951 59.672)" fill="#ffb8b8"/>
    <path id="Path_197" data-name="Path 197" d="M860.224,346.6l-12.264,4.958a16.575,16.575,0,0,0-2.87-10.959l10.176-2.348C855.134,341.358,856.815,344.136,860.224,346.6Z" transform="translate(-618.92 -265.271)" fill="#ffb8b8"/>
    <path id="Path_198" data-name="Path 198" d="M851.086,378.749c-9.886.791-15.294-.522-23.615-5.349l3.131-7.306h0a6.043,6.043,0,0,1,2.489-5.786l3.251-2.3,9.916-2.87.445.022a5.428,5.428,0,0,1,5.141,5C854,366.6,854.012,372.821,851.086,378.749Z" transform="translate(-607.564 -276.153)" fill="#ffb93e"/>
    <path id="Path_199" data-name="Path 199" d="M843.734,421.456,822.6,419.108l-1.566-6.784c-3.47-5.239-1.956-10.037,2.087-14.612,7.37,4.73,14.21,6.773,24.006,5.219C844.521,409.265,842.115,415.492,843.734,421.456Z" transform="translate(-602.169 -303.596)" fill="#2f2e41"/>
    <path id="Path_200" data-name="Path 200" d="M849.954,537.426l-16.83-.913-5.479-43.576-4.436,43.315-19.961-.913c6.089-28.476,10.319-55.509,9.133-80.368l20.875,1.827c7.075,7.459,10.588,19.367,12.655,33.53A381.418,381.418,0,0,1,849.954,537.426Z" transform="translate(-591.95 -340.502)" fill="#2f2e41"/>
    <circle id="Ellipse_178" data-name="Ellipse 178" cx="3.139" cy="3.139" r="3.139" transform="translate(236.999 54.212)" fill="#2f2e41"/>
    <path id="Path_201" data-name="Path 201" d="M874.563,286.749a3.137,3.137,0,0,1,3.138-2.934c-.065-.008-.129-.018-.2-.022a3.139,3.139,0,0,0-.4,6.265c.066,0,.131,0,.2,0A3.137,3.137,0,0,1,874.563,286.749Z" transform="translate(-637.66 -230.166)" fill="#2f2e41"/>
    <path id="Path_202" data-name="Path 202" d="M842.6,294.335c-2.8-2.322-10.83.629-11.348,2.191-3.786.516-6.652,2.725-6.652,6.652h0a11.358,11.358,0,0,0,7.578,0c4.411,3.595,4.714,8.114,2.031,13.3l3.3.066,4.091-5.979.2,6.065,7.565-.152v-8.691a18.17,18.17,0,0,0-1.94-8.325C846.238,297.176,844.408,295.839,842.6,294.335Z" transform="translate(-605.71 -236.412)" fill="#2f2e41"/>
    <ellipse id="Ellipse_179" data-name="Ellipse 179" cx="1.501" cy="2.102" rx="1.501" ry="2.102" transform="translate(228.339 69.075)" fill="#ffb8b8"/>
    <path id="Path_203" data-name="Path 203" d="M794.724,559.928a.527.527,0,0,1,.527.527V581.54a.527.527,0,0,1-.527.527H779.6a.527.527,0,0,1-.527-.527V560.455a.527.527,0,0,1,.527-.527h15.129" transform="translate(-576.366 -408.152)" fill="#ffb93e"/>
    <path id="Path_204" data-name="Path 204" d="M818.188,430.757l.511,8.856a3.846,3.846,0,0,1-4.4,4.026h0c-2.25-.331-2.3-2.531-1.75-4.737l2.1-8.405c5.155-18.483,6.547-36.625,6.286-54.318a4.442,4.442,0,0,1,4.562-4.519h0a4.44,4.44,0,0,1,4.308,4.595C829.079,397.03,826.049,415.9,818.188,430.757Z" transform="translate(-597.759 -286.803)" fill="#ffb8b8"/>
  </g>
</svg>
