<svg xmlns="http://www.w3.org/2000/svg" width="1658" height="709.489" viewBox="0 0 1658 709.489">
  <g id="_5283" data-name="5283" transform="translate(0 -119.511)">
    <path id="Path_1146" data-name="Path 1146" d="M1658,829h0Z" fill="#fff"/>
    <g id="Group_1672" data-name="Group 1672" transform="translate(115.614 119.511)">
      <path id="Path_1092" data-name="Path 1092" d="M1824.205,1287.429c17.687-5.548,40.451-14.573,28.074-21.35-13.258-7.259-30.162,8.144-39.327,18.335-.476-.078-.948-.156-1.43-.223a51.563,51.563,0,0,0-7.124-.5c17.47-28,36.96-65.278,20.361-70.018-17.884-5.108-30.7,40.218-37.022,71.966-17.475,3.792-36.276,12.273-55.859,17.925-6.921-25.173-22.858-62.713-56.242-61.884-35.058.871,8.714,41.617,38.2,66.039a96.688,96.688,0,0,1-19.961,1.269c-42.871-1.995-69.728,27.069-69.728,27.069h230.238C1863.035,1322.343,1849.938,1297.071,1824.205,1287.429Z" transform="translate(-898.33 -704.216)" fill="#a8d29f"/>
      <g id="Group_1663" data-name="Group 1663" transform="translate(367.29)">
        <path id="Path_1093" data-name="Path 1093" d="M1212.871,248.793s-16.045-17.506-21.008-18.086-25.381,9.2-26.551,13.061,22.464-3.86,23.78,0,2.772,6.486,9.481,6.776a28.327,28.327,0,0,1,12.548,4.082Z" transform="translate(-1044.475 -230.681)" fill="#ffb27d"/>
        <path id="Path_1094" data-name="Path 1094" d="M1291.5,1416.522c-5.1-3.114-2.2-26.329-2.2-26.329s23.759-19.008,27.028-4.455,22.573,21.086,33.561,22.868c7.585,1.228,9.932,5.429,10.662,7.916H1291.5Z" transform="translate(-1103.854 -784.686)" fill="#233862"/>
        <path id="Path_1095" data-name="Path 1095" d="M1218.722,1114.313c-6.088-2.295-39.991-83.68-38.581-110.1.171-3.134-.446-28.846-1.409-34.177-.751-4.15-1.761-8.983-2.974-14.345-1.855-8.165-4.165-17.568-6.735-27.65-7.206-28.334-16.392-62.024-22.723-88.845,11.367-25.489,25.93-47.8,39.291-55.414,9.533,1.161,18.723,2.922,25.531,4.4a120.156,120.156,0,0,1,12.486,8.237c1.057,5.284,2.6,14.1,3.849,25.453.8,7.429,1.482,15.946,1.8,25.261,2.264,66.107-9.295,137.938,20.174,255.184C1250.252,1105.578,1228.151,1117.867,1218.722,1114.313Z" transform="translate(-1035.333 -497.233)" fill="#2b478b"/>
        <path id="Path_1096" data-name="Path 1096" d="M1227.461,821.859c-4.911,24.578-16.729,77.105-58.429,106.169-7.207-28.333-16.392-62.024-22.723-88.845,11.367-25.489,25.93-47.8,39.291-55.413,9.533,1.161,18.723,2.922,25.531,4.4a120.163,120.163,0,0,1,12.485,8.237C1224.669,801.69,1226.213,810.508,1227.461,821.859Z" transform="translate(-1035.338 -497.228)" fill="#233862"/>
        <path id="Path_1097" data-name="Path 1097" d="M1164.669,388.835l-.021,4.124s1.124,12.895-14.755,14.776-27.9-5.031-27.474-14.978c1.43-7.7,3-12.993,3.109-19.371a44.738,44.738,0,0,0-.565-7.719l30.763-.617,9.061,1.482Z" transform="translate(-1023.819 -295.437)" fill="#ffb27d"/>
        <path id="Path_1098" data-name="Path 1098" d="M1167.16,366.542l-.119,22.3a26.057,26.057,0,0,1-11.092,2.445c-14.138,0-23.277-10.367-28.054-17.894a44.749,44.749,0,0,0-.565-7.719l30.764-.617Z" transform="translate(-1026.191 -295.442)" fill="#e8945b"/>
        <path id="Path_1099" data-name="Path 1099" d="M1162.085,328.331s-39.4,7.958-43.979-16.656-12.75-40.166,12.216-46.285,31.613,2.357,35.141,10.2S1172.219,325.627,1162.085,328.331Z" transform="translate(-1019.324 -246.398)" fill="#ffb27d"/>
        <path id="Path_1100" data-name="Path 1100" d="M1119.474,1429.386s-2.15-11.781-5.564-18.6-25.111-2.482-25.111-2.482-4.341,3.72-5.269,21.081h35.944Z" transform="translate(-1005.083 -797.551)" fill="#233862"/>
        <path id="Path_1101" data-name="Path 1101" d="M1149.358,799.5s-21.6,96.233-28.52,139.673c-2.59,16.252-7.989,68.324-8.833,84.762-1.155,22.557-8.595,91.591-8.595,91.591s-12.543-7.927-31.162-.529c0,0-4.7-30.945-7.693-95.756-.875-19,2.793-47.539,2.347-56.807-2.191-45.581-16.755-163.422-5.176-170.986S1149.358,799.5,1149.358,799.5Z" transform="translate(-992.443 -499.933)" fill="#2b478b"/>
        <path id="Path_1102" data-name="Path 1102" d="M1163,243.983a82.564,82.564,0,0,1-23.951-6.481c-10.517-4.575-23.79.461-28.1,2.73a6.361,6.361,0,0,1,1.052-2.59,5.79,5.79,0,0,0-2.217,3.29c-.2.145-.29.249-.239.28a7.434,7.434,0,0,0-3.6.233s.984-.14,1.337.492a.621.621,0,0,0,.155.176c-16.407,7.927-17.925,33.861-12.641,39.861,6.352,7.217,13.968,23.474,13.968,23.474s2.777-3.839,1.621-10.2,4.331-6.352,11.263-9.242,1.155-10.973,7.217-15.884,28.3-2.021,28.013-5.777C1165.14,261.355,1163,244.828,1163,243.983Z" transform="translate(-1009.204 -233.073)" fill="#233862"/>
        <path id="Path_1103" data-name="Path 1103" d="M1147.731,249.2s-3.321,1.347-5.315,6.041c-2.549,6-.472,9.279-.472,9.279s41.7,37.82,38.99,44.7c-1.414,3.6-33.722,22.542-47.15,30.292-5.523-.461-9.792-.425-9.932-.425l-.005.005s-9.134,27.826-41.835-2.171c-5.745,8.357-50.269,28.878-42.539,64.293q2.727,12.48,4.74,23.578c9.191,50.181,8.47,79.784,6.678,96.108-1.394,12.74-6.678,14.024-1.953,17.413,0,0,9.2,4.124,26.4,7.688a261.091,261.091,0,0,0,51.15,5.139c33.639.212,46.373-11.382,46.373-11.382,8.906-8.709-8.709-42.985-7.3-67.723.725-12.693-.072-56.144-.2-76.111l.01-.01.026-.026c1.611-1.767,50.829-55.916,60.516-86.654,0-.005.005-.005.005-.016a40.508,40.508,0,0,0,1.15-4.461C1230.028,289.636,1147.731,249.2,1147.731,249.2Z" transform="translate(-983.418 -239.606)" fill="#ee9849"/>
        <path id="Path_1104" data-name="Path 1104" d="M1056.148,673.35c1.793-16.324,2.508-45.927-6.678-96.108.632-1.995,1.254-3.917,1.87-5.746a8.774,8.774,0,0,1,16.812.6C1074.944,598.343,1081.057,642.975,1056.148,673.35Z" transform="translate(-988.668 -392.046)" fill="#e58638"/>
        <path id="Path_1105" data-name="Path 1105" d="M1041.686,710.539s20.454-12.366,26.79-10.8,20.091,7.543,19.241,11.2-16.827,6.15-19.609,5.72-7.269.073-9.087,1.647-16.314,2.161-18.086-2.088S1041.686,710.539,1041.686,710.539Z" transform="translate(-984.252 -456.666)" fill="#ffb27d"/>
        <path id="Path_1106" data-name="Path 1106" d="M1030.705,418.53s-25.075,1.818-38.7,9.8c-8.812,5.165-59.895,86.555-59.895,98.533s53.642,54.476,53.642,54.476,9.957,3.305,10.31-12.548c0,0-26.759-39.555-25.35-44.135.886-2.875,40.322-34.514,40.322-34.514Z" transform="translate(-932.11 -321.21)" fill="#ee9849"/>
        <path id="Path_1107" data-name="Path 1107" d="M1342.988,365.08c-9.688,30.738-58.9,84.882-60.516,86.654l-.026.026-.016.016a.039.039,0,0,0-.005-.016c-.14-.544-4.2-16.029,5.492-27.106C1297.781,413.38,1331.818,385.124,1342.988,365.08Z" transform="translate(-1100.471 -295.451)" fill="#e58638"/>
        <g id="Group_1662" data-name="Group 1662" transform="translate(89.139 93.611)">
          <path id="Path_1108" data-name="Path 1108" d="M1104.169,422.666c-.109-2.171,10.185-5.176,10.185-5.176s11.781,16.33,31.183,16.615c0,0-5.528,10.76-12.051,13.548C1133.492,447.652,1104.812,435.566,1104.169,422.666Z" transform="translate(-1104.168 -414.319)" fill="#e58638"/>
          <path id="Path_1109" data-name="Path 1109" d="M1184.02,436.914s10.279-6.093,10.315-12.7c0,0,6.637-.829,9.538,2.388,0,0,2.44,11.325-.8,17.9C1203.08,444.5,1188.279,442.245,1184.02,436.914Z" transform="translate(-1142.651 -417.512)" fill="#e58638"/>
          <path id="Path_1110" data-name="Path 1110" d="M1219.767,606.141a21.473,21.473,0,0,1-6.108,14.226l-5.87,6a3.615,3.615,0,0,1-5.305-.15l-8.144-9.3a12.863,12.863,0,0,1-3.176-9.046c.331-7.377.922-21.588,1.275-35.3.29-11.108.425-21.889.135-28.427-.922-20.879-8.543-87.213-8.543-87.213h5.015a268.3,268.3,0,0,1,22.117,59.993,233.2,233.2,0,0,1,4.89,27.22C1216.057,544.153,1220.647,582.03,1219.767,606.141Z" transform="translate(-1142.655 -433.331)" fill="#c65447"/>
          <path id="Path_1111" data-name="Path 1111" d="M1170.007,443.822l13.941-3.342a2.117,2.117,0,0,1,1.772,2.43c-.052,2.269-3.927,8.906-5.642,9.434S1166.712,448.417,1170.007,443.822Z" transform="translate(-1135.616 -425.399)" fill="#ba4c43"/>
          <path id="Path_1112" data-name="Path 1112" d="M1104.169,416.546c-.109-2.171,10.185-5.176,10.185-5.176s11.781,16.33,31.183,16.615c0,0-5.528,10.76-12.051,13.548C1133.492,441.532,1104.812,429.446,1104.169,416.546Z" transform="translate(-1104.168 -411.37)" fill="#ee9849"/>
          <path id="Path_1113" data-name="Path 1113" d="M1184.02,431.534s10.279-6.093,10.315-12.7c0,0,6.637-.829,9.538,2.388,0,0,2.44,11.325-.8,17.9C1203.08,439.119,1188.279,436.865,1184.02,431.534Z" transform="translate(-1142.651 -414.919)" fill="#ee9849"/>
          <path id="Path_1114" data-name="Path 1114" d="M1226.391,661.948a21.472,21.472,0,0,1-6.108,14.226l-5.87,6a3.615,3.615,0,0,1-5.305-.15l-8.144-9.3a12.864,12.864,0,0,1-3.176-9.046c.332-7.377.922-21.588,1.275-35.3,13.014-16.257,17.5-38.016,18.728-55.647a233.158,233.158,0,0,1,4.891,27.22S1227.272,637.836,1226.391,661.948Z" transform="translate(-1149.28 -489.138)" fill="#ba4c43"/>
        </g>
      </g>
      <g id="Group_1665" data-name="Group 1665" transform="translate(306.665 548.653)">
        <path id="Path_1115" data-name="Path 1115" d="M923.77,1381.244H838.5a8.477,8.477,0,0,1-8.455-8.455v-57.284a8.477,8.477,0,0,1,8.455-8.455H923.77a8.477,8.477,0,0,1,8.455,8.455v57.284A8.484,8.484,0,0,1,923.77,1381.244Z" transform="translate(-822.3 -1298.062)" fill="#233862"/>
        <path id="Path_1116" data-name="Path 1116" d="M917.265,1315.5v57.289a8.477,8.477,0,0,1-8.455,8.455H823.545a8.477,8.477,0,0,1-8.455-8.455V1315.5a8.477,8.477,0,0,1,8.455-8.455H908.81A8.481,8.481,0,0,1,917.265,1315.5Z" transform="translate(-815.09 -1298.057)" fill="#2b478b"/>
        <g id="Group_1664" data-name="Group 1664" transform="translate(32.456)">
          <path id="Path_1117" data-name="Path 1117" d="M877.739,1298.683c5.455-6.445,12.558-8.983,17.1-8.983,11.118,0,17.325,8.652,17.558,8.983l-2.709.181c-.2-.28-4.6-5.818-14.206-5.818-3.948,0-9.74.016-14.5,5.637C880.681,1299.046,877.671,1298.761,877.739,1298.683Z" transform="translate(-877.738 -1289.7)" fill="#233862"/>
        </g>
        <path id="Path_1118" data-name="Path 1118" d="M917.265,1320.025v16.651a8.477,8.477,0,0,1-8.455,8.455H823.545a8.477,8.477,0,0,1-8.455-8.455v-16.651a8.477,8.477,0,0,1,8.455-8.455H908.81A8.484,8.484,0,0,1,917.265,1320.025Z" transform="translate(-815.09 -1300.239)" fill="#233862"/>
        <path id="Path_1119" data-name="Path 1119" d="M917.265,1315.5v16.651a8.477,8.477,0,0,1-8.455,8.455H823.545a8.477,8.477,0,0,1-8.455-8.455V1315.5a8.477,8.477,0,0,1,8.455-8.455H908.81A8.481,8.481,0,0,1,917.265,1315.5Z" transform="translate(-815.09 -1298.057)" fill="#2b478b"/>
        <path id="Path_1120" data-name="Path 1120" d="M905.76,1356.775a2.585,2.585,0,1,1,2.585,2.585A2.586,2.586,0,0,1,905.76,1356.775Z" transform="translate(-858.786 -1320.779)" fill="#233862"/>
      </g>
      <path id="Path_1121" data-name="Path 1121" d="M2557.356,1353.949l-322.607-.093-.43-.078s28.412-39.141,83.752-39,54.641-28.572,127.121-46.451c21.458-5.295,41.876-13.724,59.993-22.977C2546.466,1260.068,2573.385,1288.039,2557.356,1353.949Z" transform="translate(-1192.385 -719.674)" fill="#a8d29f"/>
      <g id="Group_1671" data-name="Group 1671" transform="translate(667.086 98.522)">
        <path id="Path_1122" data-name="Path 1122" d="M1903.888,548.67v456.037a7.241,7.241,0,0,1-6.952,7.46h-6.953a6.709,6.709,0,0,1-4.9-2.181,7.732,7.732,0,0,1-2.052-5.279V548.67a7.572,7.572,0,0,1,3.321-6.346,6.531,6.531,0,0,1,3.632-1.114h6.953A7.238,7.238,0,0,1,1903.888,548.67Z" transform="translate(-1690.176 -478.854)" fill="#f1a34f"/>
        <path id="Path_1123" data-name="Path 1123" d="M1888.387,548.634v456.037a7.588,7.588,0,0,1-3.316,6.347,7.734,7.734,0,0,1-2.052-5.279V549.706a7.572,7.572,0,0,1,3.321-6.346A7.71,7.71,0,0,1,1888.387,548.634Z" transform="translate(-1690.171 -479.89)" fill="#e58638"/>
        <path id="Path_1124" data-name="Path 1124" d="M1703.838,899.13l-38.488,25.94,34.9,30.6,86.379-5.45V915.33Z" transform="translate(-1585.271 -651.344)" fill="#f1a34f"/>
        <path id="Path_1125" data-name="Path 1125" d="M1888.106,938.681a3.987,3.987,0,0,0,.28,3.311c.549.762,1.311.518,1.7-.544a3.987,3.987,0,0,0-.28-3.31C1889.261,937.376,1888.5,937.619,1888.106,938.681Z" transform="translate(-1692.511 -669.929)" fill="#ce8032"/>
        <path id="Path_1126" data-name="Path 1126" d="M1888.106,978.5a3.987,3.987,0,0,0,.28,3.311c.549.762,1.311.518,1.7-.544a3.988,3.988,0,0,0-.28-3.311C1889.261,977.2,1888.5,977.439,1888.106,978.5Z" transform="translate(-1692.511 -689.119)" fill="#ce8032"/>
        <g id="Group_1666" data-name="Group 1666" transform="translate(204.972 177.291)">
          <path id="Path_1127" data-name="Path 1127" d="M2042.514,763.06l60.149,25.9-57.838,30.712-138.4-4.808v-43.2Z" transform="translate(-1906.42 -763.06)" fill="#f1a34f"/>
          <path id="Path_1128" data-name="Path 1128" d="M2169.11,763.06h8.74l60.144,25.9h-8.735Z" transform="translate(-2033.016 -763.06)" fill="#e89746"/>
          <path id="Path_1129" data-name="Path 1129" d="M2173.57,843.762h4.657l61.915-30.712h-8.735Z" transform="translate(-2035.166 -787.151)" fill="#ce8032"/>
          <path id="Path_1130" data-name="Path 1130" d="M1921.258,791a5.094,5.094,0,0,1-.358,4.243c-.7.979-1.683.668-2.186-.694a5.1,5.1,0,0,1,.358-4.243C1919.776,789.321,1920.756,789.632,1921.258,791Z" transform="translate(-1912.202 -775.913)" fill="#ce8032"/>
          <path id="Path_1131" data-name="Path 1131" d="M1921.258,842.09a5.094,5.094,0,0,1-.358,4.243c-.7.979-1.683.668-2.186-.694a5.1,5.1,0,0,1,.358-4.243C1919.776,840.411,1920.756,840.722,1921.258,842.09Z" transform="translate(-1912.202 -800.534)" fill="#ce8032"/>
        </g>
        <g id="Group_1667" data-name="Group 1667" transform="translate(0 102.377)">
          <path id="Path_1132" data-name="Path 1132" d="M1587.783,618.46l-60.144,25.9,57.833,30.712,138.4-4.808v-43.2Z" transform="translate(-1518.905 -618.46)" fill="#f1a34f"/>
          <path id="Path_1133" data-name="Path 1133" d="M1579.658,618.46h-8.735l-60.144,25.9h8.735Z" transform="translate(-1510.78 -618.46)" fill="#e89746"/>
          <path id="Path_1134" data-name="Path 1134" d="M1577.348,699.161h-4.658l-61.91-30.712h8.735Z" transform="translate(-1510.78 -642.551)" fill="#ce8032"/>
          <path id="Path_1135" data-name="Path 1135" d="M1888.664,646.4a5.1,5.1,0,0,0,.357,4.243c.7.979,1.684.668,2.187-.694a5.115,5.115,0,0,0-.358-4.243C1890.151,644.722,1889.172,645.038,1888.664,646.4Z" transform="translate(-1692.748 -631.314)" fill="#ce8032"/>
          <path id="Path_1136" data-name="Path 1136" d="M1888.664,697.493a5.1,5.1,0,0,0,.357,4.243c.7.979,1.684.668,2.187-.694a5.115,5.115,0,0,0-.358-4.243C1890.151,695.819,1889.172,696.13,1888.664,697.493Z" transform="translate(-1692.748 -655.938)" fill="#ce8032"/>
        </g>
        <path id="Path_1137" data-name="Path 1137" d="M1696.98,899.13H1692L1651.12,925.3h7.372Z" transform="translate(-1578.413 -651.344)" fill="#e89746"/>
        <path id="Path_1138" data-name="Path 1138" d="M1693.4,980.02h-6.714l-35.561-30.37h7.372Z" transform="translate(-1578.413 -675.691)" fill="#ce8032"/>
        <path id="Path_1139" data-name="Path 1139" d="M1904.954,1333.494v51.466H1853.11v-51.668a18.534,18.534,0,0,1,16.61-18.433c.632-.062,1.274-.1,1.922-.1h14.574A18.732,18.732,0,0,1,1904.954,1333.494Z" transform="translate(-1675.757 -851.646)" fill="#f1a34f"/>
        <path id="Path_1140" data-name="Path 1140" d="M1886.51,1333.585v51.466h-33.4v-51.668a18.534,18.534,0,0,1,16.61-18.433A18.735,18.735,0,0,1,1886.51,1333.585Z" transform="translate(-1675.757 -851.738)" fill="#e58638"/>
        <g id="Group_1670" data-name="Group 1670" transform="translate(185.461)">
          <g id="Group_1668" data-name="Group 1668">
            <path id="Path_1141" data-name="Path 1141" d="M1899.053,511.608v-1.8h-4.58v.031a5.229,5.229,0,0,0-3.243,1.513,5.268,5.268,0,0,0,.036,7.559,5.261,5.261,0,0,0,3.8,1.58h3.984V518.7a5.563,5.563,0,0,0,.005-7.092Z" transform="translate(-1878.827 -463.722)" fill="#e58638"/>
            <path id="Path_1142" data-name="Path 1142" d="M1897.783,424.984a18.215,18.215,0,0,0-12.18-4.134,19.263,19.263,0,0,0-8.87,2.145,15.762,15.762,0,0,0-6.543,6.051,9.353,9.353,0,0,0-1.43,4.813,4.367,4.367,0,0,0,1.166,3.119,3.887,3.887,0,0,0,2.969,1.238h3.984s-.046-1.5-.052-2.518l2.756-3.72a8.731,8.731,0,0,1,10.942-.487,5.822,5.822,0,0,1,2.067,4.771,6.973,6.973,0,0,1-2.181,5.486,14.976,14.976,0,0,1-5.414,2.632,9.907,9.907,0,0,0-3.8,1.844,3.826,3.826,0,0,0-.943,2.818v7.517a5.834,5.834,0,0,0,1.2,3.761,4.076,4.076,0,0,0,3.383,1.5h3.984v-2.28a5.786,5.786,0,0,0,.451-1.181,36.259,36.259,0,0,0,.3-6.165,16.7,16.7,0,0,0,9.735-5.3,15.175,15.175,0,0,0,3.569-10.341A14.537,14.537,0,0,0,1897.783,424.984Z" transform="translate(-1868.76 -420.85)" fill="#e58638"/>
          </g>
          <g id="Group_1669" data-name="Group 1669" transform="translate(3.999 0.01)">
            <path id="Path_1143" data-name="Path 1143" d="M1910.6,436.573a15.192,15.192,0,0,1-3.57,10.341,16.712,16.712,0,0,1-9.734,5.3,35.631,35.631,0,0,1-.3,6.165,4.187,4.187,0,0,1-4.435,3.461,4.091,4.091,0,0,1-3.383-1.5,5.814,5.814,0,0,1-1.2-3.761v-7.517a3.8,3.8,0,0,1,.943-2.818,9.973,9.973,0,0,1,3.8-1.844,15.016,15.016,0,0,0,5.414-2.632,6.973,6.973,0,0,0,2.181-5.486,5.809,5.809,0,0,0-2.067-4.771,8.731,8.731,0,0,0-10.942.487l-3,4.062a4.512,4.512,0,0,1-3.684,2.181,3.906,3.906,0,0,1-2.969-1.238,4.377,4.377,0,0,1-1.166-3.119,9.364,9.364,0,0,1,1.43-4.813,15.761,15.761,0,0,1,6.543-6.051,19.279,19.279,0,0,1,8.87-2.145A18.213,18.213,0,0,1,1905.5,425,14.6,14.6,0,0,1,1910.6,436.573Zm-12.631,35.711a5.237,5.237,0,0,1-1.5,3.8,5.042,5.042,0,0,1-3.761,1.539,5.26,5.26,0,0,1-3.8-1.58,5.262,5.262,0,0,1-.036-7.554,5.294,5.294,0,0,1,3.834-1.544,5.036,5.036,0,0,1,3.761,1.544A5.246,5.246,0,0,1,1897.97,472.284Z" transform="translate(-1876.48 -420.87)" fill="#f1a34f"/>
          </g>
        </g>
      </g>
      <path id="Path_1144" data-name="Path 1144" d="M252.79,1315.688l242.543,1.585s-22.428-45.088-78.079-35.442c-35.126,6.087-46.756-3.093-61.211-12.1,26.759-10.123,66.4-26.857,47.948-30.9-17.609-3.859-41.612,13.294-56.393,26.039a71.982,71.982,0,0,0-10.273-4.336c31.634-29.546,91.166-88.456,64.868-90.135-25.8-1.647-58.449,56.631-73.987,87.731q-2.681-.536-5.642-.927a41.289,41.289,0,0,0-22.443,3.445c-3.43-12.905-9.761-27.665-18.179-24.661-8.5,3.036,1.109,17.987,9.926,29.225C267.441,1281.448,252.79,1315.688,252.79,1315.688Z" transform="translate(-237.439 -683.536)" fill="#82b378"/>
      <path id="Path_1145" data-name="Path 1145" d="M1656.077,1454.058H224.787a1.63,1.63,0,0,1-1.627-1.627v-.554a1.63,1.63,0,0,1,1.627-1.627h1431.29a1.633,1.633,0,0,1,1.627,1.627v.554A1.629,1.629,0,0,1,1656.077,1454.058Z" transform="translate(-223.16 -818.42)" fill="#2e3552"/>
    </g>
  </g>
</svg>
