<svg xmlns="http://www.w3.org/2000/svg" width="271.361" height="221.977" viewBox="0 0 271.361 221.977">
  <g id="analyst" transform="translate(0 0)">
    <g id="Background_Complete" data-name="Background Complete" transform="translate(2.819 0)">
      <path id="Path_1261" data-name="Path 1261" d="M309.55,194.768h91.307V64.82H309.55Zm88.851-2.382H312.006V67.2H398.4Z" transform="translate(-303.514 -64.356)" fill="#ebebeb"/>
      <rect id="Rectangle_1298" data-name="Rectangle 1298" width="2.456" height="125.751" transform="translate(50.502 3.471)" fill="#ebebeb"/>
      <rect id="Rectangle_1299" data-name="Rectangle 1299" width="95.766" height="3.316" transform="translate(3.807 5.281)" fill="#ebebeb"/>
      <rect id="Rectangle_1300" data-name="Rectangle 1300" width="95.766" height="3.316" transform="translate(3.807 9.008)" fill="#ebebeb"/>
      <rect id="Rectangle_1301" data-name="Rectangle 1301" width="95.766" height="3.316" transform="translate(3.807 12.741)" fill="#ebebeb"/>
      <rect id="Rectangle_1302" data-name="Rectangle 1302" width="95.766" height="3.316" transform="translate(3.807 16.474)" fill="#ebebeb"/>
      <rect id="Rectangle_1303" data-name="Rectangle 1303" width="95.766" height="3.316" transform="translate(3.807 20.201)" fill="#ebebeb"/>
      <rect id="Rectangle_1304" data-name="Rectangle 1304" width="95.766" height="3.316" transform="translate(3.807 23.934)" fill="#ebebeb"/>
      <rect id="Rectangle_1305" data-name="Rectangle 1305" width="95.766" height="3.316" transform="translate(3.807 27.667)" fill="#ebebeb"/>
      <rect id="Rectangle_1306" data-name="Rectangle 1306" width="95.766" height="3.316" transform="translate(3.807 31.395)" fill="#ebebeb"/>
      <rect id="Rectangle_1307" data-name="Rectangle 1307" width="95.766" height="3.316" transform="translate(3.807 35.128)" fill="#ebebeb"/>
      <rect id="Rectangle_1308" data-name="Rectangle 1308" width="0.614" height="76.441" transform="translate(11.103 4.608)" fill="#263238"/>
      <path id="Path_1262" data-name="Path 1262" d="M416.95,138.716h2.18l-.547-3.036H417.5Z" transform="translate(-406.627 -54.898)" fill="#263238"/>
      <rect id="Rectangle_1309" data-name="Rectangle 1309" width="0.614" height="104.627" transform="translate(8.892 4.608)" fill="#263238"/>
      <path id="Path_1263" data-name="Path 1263" d="M420.55,185.156h2.18l-.547-3.036H421.1Z" transform="translate(-412.438 -73.689)" fill="#263238"/>
      <rect id="Rectangle_1310" data-name="Rectangle 1310" width="103.386" height="6.936" transform="translate(0)" fill="#dbdbdb"/>
      <rect id="Rectangle_1311" data-name="Rectangle 1311" width="50.299" height="59.157" transform="translate(204.107 0.024)" fill="#ebebeb"/>
      <rect id="Rectangle_1312" data-name="Rectangle 1312" width="38.804" height="48.357" transform="translate(209.855 5.424)" fill="#fff"/>
      <rect id="Rectangle_1313" data-name="Rectangle 1313" width="1.517" height="48.357" transform="translate(247.142 5.424)" fill="#dbdbdb"/>
      <rect id="Rectangle_1314" data-name="Rectangle 1314" width="1.517" height="59.157" transform="translate(202.585 0.024)" fill="#dbdbdb"/>
      <rect id="Rectangle_1315" data-name="Rectangle 1315" width="9.15" height="26.429" transform="translate(226.503 12.092)" fill="#dbdbdb"/>
      <path id="Path_1264" data-name="Path 1264" d="M77.32,127.625h25.011V114.08H77.32Zm24.4-.6H77.934V114.675h23.783Z" transform="translate(137.62 -84.287)" fill="#ebebeb"/>
      <rect id="Rectangle_1316" data-name="Rectangle 1316" width="50.299" height="59.157" transform="translate(139.402 62.533)" fill="#ebebeb"/>
      <rect id="Rectangle_1317" data-name="Rectangle 1317" width="38.804" height="48.357" transform="translate(145.15 67.933)" fill="#fff"/>
      <rect id="Rectangle_1318" data-name="Rectangle 1318" width="1.517" height="48.357" transform="translate(182.437 67.933)" fill="#dbdbdb"/>
      <rect id="Rectangle_1319" data-name="Rectangle 1319" width="1.517" height="59.157" transform="translate(137.885 62.533)" fill="#dbdbdb"/>
      <rect id="Rectangle_1320" data-name="Rectangle 1320" width="7.842" height="19.219" transform="translate(160.465 80.43)" fill="#ebebeb"/>
      <path id="Path_1265" data-name="Path 1265" d="M185.4,232.093h21.677V218.25H185.4Zm21.063-.6H186.014V218.845h20.449Z" transform="translate(-33.495 -126.436)" fill="#dbdbdb"/>
    </g>
    <g id="Desk" transform="translate(2.1 213.278)">
      <path id="Path_1266" data-name="Path 1266" d="M269.261,358.518l-33.658-.143-33.658-.054-67.315-.1-67.315.1-33.658.054L0,358.518l33.658.149,33.658.054,67.315.1,67.315-.1,33.658-.048Z" transform="translate(0 -358.22)" fill="#263238"/>
    </g>
    <g id="Gears" transform="translate(0 66.736)">
      <path id="Path_1267" data-name="Path 1267" d="M432.822,316.361l3.463-5.644h-.123l1.879,1.084a1.792,1.792,0,0,0,1.154.161,1.911,1.911,0,0,0,.54-.208l.473-.256.473-.256a1.739,1.739,0,0,0,.467-.345,1.685,1.685,0,0,0,.479-1.042v-2.12l-.178.173,6.755.048-.227-.22v2.125a1.819,1.819,0,0,0,.983,1.471l.461.262.461.262a1.83,1.83,0,0,0,.583.232,1.9,1.9,0,0,0,1.228-.137l1.9-1.054-.368-.1,3.365,5.692.1-.381-1.9,1.066a1.792,1.792,0,0,0-.755.982,1.736,1.736,0,0,0-.086.6V319.8a1.88,1.88,0,0,0,.086.6,1.792,1.792,0,0,0,.755.988l1.9,1.072-.117-.4-3.365,5.692.4-.1-1.91-1.054a1.958,1.958,0,0,0-1.228-.143,2.108,2.108,0,0,0-.614.238l-.461.262-.461.256a1.835,1.835,0,0,0-.5.381,1.8,1.8,0,0,0-.5,1.113v2.126l.27-.262h-6.755l.239.232v-2.126a1.783,1.783,0,0,0-.976-1.435l-.467-.262-.473-.256a1.875,1.875,0,0,0-.565-.22,1.838,1.838,0,0,0-1.191.143l-1.885,1.066.246.065-3.445-5.65-.037.149,1.842-1.084a1.629,1.629,0,0,0,.651-.881,3.294,3.294,0,0,0,.043-1.066,3.1,3.1,0,0,0-.074-1.06,1.566,1.566,0,0,0-.657-.845Zm0,0,1.842,1.078a1.522,1.522,0,0,1,.614.822,3.061,3.061,0,0,1,.043,1.036,3.35,3.35,0,0,1-.068,1.03,1.453,1.453,0,0,1-.614.78l-1.891,1.03-.1.054.061.1L436.034,328l.086.155.16-.089,1.885-1.03a1.415,1.415,0,0,1,.927-.1,1.318,1.318,0,0,1,.436.179l.473.268.473.268a1.467,1.467,0,0,1,.375.286,1.326,1.326,0,0,1,.356.816v2.334h7.271v-2.352a1.273,1.273,0,0,1,.35-.786,1.3,1.3,0,0,1,.362-.262l.479-.268.473-.268a1.356,1.356,0,0,1,1.29-.065l1.842,1.048.252.143.147-.244,3.4-5.68.154-.256-.264-.149-1.873-1.048a1.225,1.225,0,0,1-.516-.667,1.446,1.446,0,0,1-.061-.429v-1.072a1.266,1.266,0,0,1,.055-.429,1.23,1.23,0,0,1,.516-.679l1.842-1.054.246-.137-.141-.244-3.4-5.674-.135-.226-.233.131-1.842,1.048a1.37,1.37,0,0,1-.884.1,1.307,1.307,0,0,1-.424-.167l-.479-.268-.479-.262a1.482,1.482,0,0,1-.368-.268,1.3,1.3,0,0,1-.362-.8V307.49h-.227l-6.755.048h-.184v2.268a1.349,1.349,0,0,1-.381.857,1.442,1.442,0,0,1-.387.3l-.467.268-.473.274a1.417,1.417,0,0,1-.461.191,1.491,1.491,0,0,1-.976-.1l-1.9-1.024-.074-.042-.043.071Z" transform="translate(-432.65 -229.28)" fill="#263238"/>
      <path id="Path_1268" data-name="Path 1268" d="M443.28,323.564a5.524,5.524,0,0,0,3.469,5.084,5.833,5.833,0,0,0,6.184-1.107,5.4,5.4,0,0,0,1.015-6.682,5.771,5.771,0,0,0-6.411-2.642,5.558,5.558,0,0,0-4.257,5.346Zm0,0a5.139,5.139,0,0,1,1.623-3.747,5.472,5.472,0,0,1,3.9-1.48,5.231,5.231,0,1,1-5.527,5.227Z" transform="translate(-436.635 -233.548)" fill="#263238"/>
      <path id="Path_1269" data-name="Path 1269" d="M34.562,265.387l3.457-5.638-.117.03,1.879,1.078a1.8,1.8,0,0,0,1.683-.071l.473-.256.467-.256a1.726,1.726,0,0,0,.952-1.387v-2.12l-.178.173,6.755.048-.227-.22v2.126a1.759,1.759,0,0,0,.485,1.1,1.951,1.951,0,0,0,.491.369l.467.262.461.262a1.833,1.833,0,0,0,.614.232,1.9,1.9,0,0,0,1.228-.131l1.9-1.06-.368-.1,3.365,5.692.1-.375-1.9,1.06a1.834,1.834,0,0,0-.755.982,1.736,1.736,0,0,0-.086.6v1.042a1.921,1.921,0,0,0,.086.6,1.845,1.845,0,0,0,.755.988l1.9,1.072-.117-.4-3.365,5.692.4-.107-1.91-1.054a1.9,1.9,0,0,0-1.228-.137,1.927,1.927,0,0,0-.614.232l-.461.262-.461.262a1.72,1.72,0,0,0-.5.375,1.76,1.76,0,0,0-.5,1.113v2.131l.27-.262H43.214l.239.238V277.7a1.761,1.761,0,0,0-.491-1.084,2.022,2.022,0,0,0-.485-.357L42.011,276l-.473-.262a1.893,1.893,0,0,0-1.756-.077L37.9,276.735l.246.065L34.7,271.145l-.037.149,1.842-1.078a1.652,1.652,0,0,0,.651-.881,3.332,3.332,0,0,0,.043-1.072,3.114,3.114,0,0,0-.074-1.06,1.555,1.555,0,0,0-.657-.839Zm0,0,1.842,1.078a1.521,1.521,0,0,1,.614.822,3.078,3.078,0,0,1,.043,1.036,3.351,3.351,0,0,1-.068,1.03,1.488,1.488,0,0,1-.614.786l-1.891,1.03-.1.054.061.1,3.341,5.739.086.149.16-.083,1.885-1.036a1.448,1.448,0,0,1,1.363.083l.473.268.473.274a1.323,1.323,0,0,1,.375.28,1.343,1.343,0,0,1,.356.822v2.328h7.271v-2.358a1.244,1.244,0,0,1,.35-.78,1.452,1.452,0,0,1,.362-.268l.479-.268.473-.268a1.314,1.314,0,0,1,.418-.161,1.364,1.364,0,0,1,.872.1l1.842,1.048.252.143.147-.244,3.4-5.674.154-.262L58.714,271l-1.873-1.042a1.243,1.243,0,0,1-.516-.673,1.446,1.446,0,0,1-.061-.429v-1.072a1.25,1.25,0,0,1,.571-1.107l1.842-1.054.246-.137-.141-.238-3.4-5.674-.135-.232-.233.131-1.842,1.054a1.409,1.409,0,0,1-.884.1,1.306,1.306,0,0,1-.424-.167l-.479-.268-.479-.262a1.484,1.484,0,0,1-.368-.268,1.268,1.268,0,0,1-.362-.8V256.54h-.227l-6.755.048h-.184v2.274a1.361,1.361,0,0,1-.381.857,1.555,1.555,0,0,1-.387.292l-.467.274-.473.268a1.418,1.418,0,0,1-.461.191,1.453,1.453,0,0,1-.976-.1l-1.9-1.024-.074-.042-.043.071Z" transform="translate(210.155 -208.665)" fill="#263238"/>
      <path id="Path_1270" data-name="Path 1270" d="M45.029,272.582a5.577,5.577,0,0,0,4.6,5.443,5.742,5.742,0,0,0,6.387-3.347,5.441,5.441,0,0,0-2.174-6.716,5.838,5.838,0,0,0-7.214.792A5.456,5.456,0,0,0,45.029,272.582Zm0,0a5.394,5.394,0,1,1,5.392,5.228A5.311,5.311,0,0,1,45.029,272.582Z" transform="translate(206.16 -212.924)" fill="#263238"/>
      <path id="Path_1271" data-name="Path 1271" d="M103.5,200.3a2.956,2.956,0,0,0-2.2,2.167c-.074.286-.154.6-.246.863s-.19.6-.289.863a2.811,2.811,0,0,0,.614,2.977l2.641,2.727-9.15,8.335-2.659-2.739a3.031,3.031,0,0,0-3.04-.738,17.921,17.921,0,0,1-1.781.411,2.984,2.984,0,0,0-2.376,1.971l-1.111,3.572-12.042-3.519,1.111-3.572a2.871,2.871,0,0,0-.835-2.947,13.649,13.649,0,0,1-1.228-1.3,3.019,3.019,0,0,0-2.941-.988l-3.783.857L61.33,197.385l3.783-.851a2.91,2.91,0,0,0,2.174-2.108q.117-.458.258-.911c.092-.3.2-.6.307-.9a2.782,2.782,0,0,0-.614-2.935L64.6,186.96l9.15-8.335,2.628,2.721a3.016,3.016,0,0,0,2.972.792,16.706,16.706,0,0,1,1.947-.441,2.9,2.9,0,0,0,2.284-1.995l1.111-3.572,12.005,3.495L95.583,183.2a2.865,2.865,0,0,0,.847,2.977,16.878,16.878,0,0,1,1.228,1.3,3.038,3.038,0,0,0,2.954.988l3.8-.863,2.868,11.848ZM88.528,189.324A10.517,10.517,0,0,0,76.781,191.6a9.74,9.74,0,0,0-1.557,11.516,10.386,10.386,0,0,0,10.745,5.135,10.134,10.134,0,0,0,8.472-8.211A9.922,9.922,0,0,0,88.528,189.324Z" transform="translate(145.307 -176.13)" fill="#455a64"/>
    </g>
    <g id="Character" transform="translate(72.793 85.514)">
      <path id="Path_1272" data-name="Path 1272" d="M147.977,211.918c1.394.185,7.467-.441,11.465,4.948,3.783,5.1,4.974,20.511,5.76,23.875s5.324,3.906,6.356,7.811c.884,3.364-1.646,4.567-1.928,7.025-.215,1.905,1.732,4.763-.086,7.585-1.658,2.554-4.526,1.983-6.264,2.769s-2.862,4.668-6.079,5.692-6.024-1.846-7.725-1.846-3.77,5.049-9.322,4.555-7.111-5.067-9.4-5.99-8.057.6-10.66-2.221-3.015-6.519-4.188-7.895-3.648-1.191-5.091-4.358,1.627-5.15,2.063-7.889c.319-1.905-1.412-3.679-.154-6.585,1.732-4,6.755-3.09,8.757-7.192,1.541-3.215,4.814-17.23,13.6-20.612C141.154,209.262,147.977,211.918,147.977,211.918Z" transform="translate(-22.103 -208.869)" fill="#263238"/>
      <path id="Path_1273" data-name="Path 1273" d="M111.61,259.84a4.891,4.891,0,0,0,1.443,1.822l1.842,1.53a14.7,14.7,0,0,1,3.169,3.3,4.523,4.523,0,0,1,.491,4.1,7,7,0,0,1-1.2,1.846,8.284,8.284,0,0,0-1.388,2.03,3.865,3.865,0,0,0,.2,2.536c.252.75.534,1.459.743,2.185a5.331,5.331,0,0,1-.19,4.215,3.206,3.206,0,0,1-1.529,1.435,6.131,6.131,0,0,1-2.223.447c-.78.048-1.578,0-2.376,0a4.146,4.146,0,0,0-2.321.488,4.424,4.424,0,0,1,2.333-.238c.786.065,1.578.161,2.389.179a6.437,6.437,0,0,0,2.456-.363,3.891,3.891,0,0,0,1.91-1.6,5.789,5.789,0,0,0,.375-4.763c-.209-.768-.485-1.5-.706-2.221a3.142,3.142,0,0,1-.178-1.989c.491-1.227,1.934-2.31,2.493-3.906a5.078,5.078,0,0,0-.682-4.763,15.146,15.146,0,0,0-3.476-3.275l-1.922-1.375A5.387,5.387,0,0,1,111.61,259.84Z" transform="translate(31.328 -228.778)" fill="#263238"/>
      <path id="Path_1274" data-name="Path 1274" d="M199.374,225.42a68.924,68.924,0,0,0-3.721,7.46c-.614,1.244-1.173,2.507-1.842,3.679a8.984,8.984,0,0,1-1.161,1.619,1.3,1.3,0,0,1-.332.3,1.781,1.781,0,0,1-.381.238c-.3.149-.614.286-.94.417a41.691,41.691,0,0,0-3.93,1.721,7.206,7.206,0,0,0-3.156,3.013,4.282,4.282,0,0,0-.467,2.155,5.585,5.585,0,0,0,.614,2.06,8.7,8.7,0,0,1,1.29,3.876,8.2,8.2,0,0,0-.878-4.043A5.1,5.1,0,0,1,184,246a3.751,3.751,0,0,1,.51-1.828,7.028,7.028,0,0,1,2.941-2.614,41.217,41.217,0,0,1,3.881-1.613c.332-.143.663-.292.995-.464a3.276,3.276,0,0,0,.946-.732,9.718,9.718,0,0,0,1.228-1.786,32.493,32.493,0,0,0,1.787-3.8l1.511-3.894A36.751,36.751,0,0,1,199.374,225.42Z" transform="translate(-94.563 -214.851)" fill="#263238"/>
      <path id="Path_1275" data-name="Path 1275" d="M176.14,289a6.846,6.846,0,0,1,.89,2.786c.221.953.411,1.941.669,2.905a14.205,14.205,0,0,0,1.038,2.864,6.623,6.623,0,0,0,2.014,2.465,8.875,8.875,0,0,0,6.227.762c1.019-.167,2.014-.393,3.009-.542a6.506,6.506,0,0,1,2.991.042,6.073,6.073,0,0,0-3.07-.47c-1.032.065-2.045.214-3.07.3-1.971.191-4.077.2-5.619-.816a5.837,5.837,0,0,1-1.762-2.12,17.967,17.967,0,0,1-1.142-2.673c-.332-.923-.614-1.875-.9-2.822-.16-.47-.319-.947-.51-1.411A2.822,2.822,0,0,0,176.14,289Z" transform="translate(-83.685 -240.577)" fill="#263238"/>
      <path id="Path_1276" data-name="Path 1276" d="M235.854,309.061c-4.913,19.945-15.352,44.981-22.881,49.923-6.067,3.989-37.557,10.562-39.3,10.717-4.335.327-12.189-29.477-7.682-30.579,5.68-1.4,32.546-1.625,34.112-3.114s14-17.611,25.4-32.234C233.367,293.664,239.962,292.521,235.854,309.061Z" transform="translate(-120.757 -243.556)" fill="#ad6359"/>
      <path id="Path_1277" data-name="Path 1277" d="M318.665,397.112a96.193,96.193,0,0,1-12.466,4.823c-3.4.875-13.246,3.144-14.609-.387-.933-2.382,4.692-4.4,8.64-5.894,2.082-.786,4.667-2.822,4.09-4.12-1.007-2.268-6.368-.131-9.9,1.756-6.835,3.656-15.966,10.3-20.019,6.895-1.529-1.286.332-3.531,3.034-5.716-4.354,2.518-8.984,4.561-10.74,3.191-1.007-.774-1.032-1.786-.43-2.977a3.047,3.047,0,0,1-3.3-.6c-1.363-1.447-.614-3.519.94-5.626a1.682,1.682,0,0,1-1.228-.839c-2.855-4.43,12.226-16.671,17.366-17.713,15.131-3.144,31.109-1.53,31.109-1.53C316.933,373.094,318.677,397.1,318.665,397.112Z" transform="translate(-262.25 -272.527)" fill="#ad6359"/>
      <path id="Path_1278" data-name="Path 1278" d="M317.613,393.56a26.052,26.052,0,0,0-10.126,3.525c-3.869,2.382-6.466,5.162-9.733,7.972-.086.071.031.2.117.131,1.554-1.334,7.983-6.341,9.653-7.472a24.713,24.713,0,0,1,10.1-4.1C317.662,393.613,317.65,393.554,317.613,393.56Z" transform="translate(-283.016 -282.883)" fill="#263238"/>
      <path id="Path_1279" data-name="Path 1279" d="M329.828,383.054a62.141,62.141,0,0,0-11.772,3.668c-4.065,1.9-7.283,5.067-10.439,8.109q-2.843,2.751-5.57,5.614c-.074.077.037.208.117.131q4.821-4.727,9.924-9.163a32.287,32.287,0,0,1,10.8-6.275c2.284-.786,4.624-1.405,6.964-2.018C329.9,383.108,329.9,383.019,329.828,383.054Z" transform="translate(-297.89 -278.629)" fill="#263238"/>
      <path id="Path_1280" data-name="Path 1280" d="M335.075,373.809c-3.863.679-7.228,1.262-10.679,3.185-4.563,2.542-9.015,6.906-10.581,8.449-1.726,1.709-3.39,3.471-5.023,5.257-.068.071.061.185.129.113a127.564,127.564,0,0,1,11.981-11,25.529,25.529,0,0,1,6.65-3.989,47.233,47.233,0,0,1,7.529-1.989S335.093,373.8,335.075,373.809Z" transform="translate(-307.239 -274.892)" fill="#263238"/>
      <path id="Path_1281" data-name="Path 1281" d="M168.244,335.011l-5.465,36.134s38.2-6.234,46.787-14.885S229.83,319.787,231.6,303.1s-2.641-15.284-12.613-3.138-24.053,31.174-25.945,32.24S168.244,335.011,168.244,335.011Z" transform="translate(-114.482 -241.267)" fill="#ffc727"/>
      <path id="Path_1282" data-name="Path 1282" d="M229.391,321.835l.166.036v-.077Zm-40,41.748a1.258,1.258,0,0,0-.614.167,1.055,1.055,0,0,0-.534.887,1.363,1.363,0,0,1-.854,1.262,2.529,2.529,0,0,1-1.461-.054c.233-.06.461-.083.694-.125a1.179,1.179,0,0,0,.577-.185,1.052,1.052,0,0,0,.5-.911,1.361,1.361,0,0,1,.909-1.244,2.809,2.809,0,0,1,1.449.071C189.826,363.512,189.593,363.542,189.39,363.584Zm-23.108-5.853a4.147,4.147,0,0,1,1.1.143c-.233.06-.467.083-.694.125a1.449,1.449,0,0,0-.461.1Zm41.856-8.961a1.174,1.174,0,0,0-.583.167,1.043,1.043,0,0,0-.534.881,1.369,1.369,0,0,1-.86,1.268,2.53,2.53,0,0,1-1.455-.054c.227-.06.461-.083.688-.131a1.155,1.155,0,0,0,.577-.179,1.069,1.069,0,0,0,.5-.911,1.36,1.36,0,0,1,.9-1.244,2.827,2.827,0,0,1,1.455.071C208.6,348.7,208.372,348.729,208.138,348.771Zm8.659-8.71a1.24,1.24,0,0,0,.534.286,1.1,1.1,0,0,0,1.025-.262,1.426,1.426,0,0,1,1.529-.3c.534.226.725.673.995,1.036-.209-.119-.393-.256-.614-.381a1.143,1.143,0,0,0-1.554.03,1.433,1.433,0,0,1-1.547.262,2.7,2.7,0,0,1-.976-1.048C216.41,339.792,216.6,339.935,216.8,340.06ZM188.549,342.6a1.2,1.2,0,0,0,.54.286,1.111,1.111,0,0,0,1.019-.256,1.438,1.438,0,0,1,1.529-.31c.534.226.725.673.995,1.036-.209-.113-.393-.256-.583-.381a1.155,1.155,0,0,0-.54-.268,1.115,1.115,0,0,0-1.019.3,1.42,1.42,0,0,1-1.547.262,2.668,2.668,0,0,1-.976-1.048,5.214,5.214,0,0,1,.608.381Zm10.4,19.052a1.239,1.239,0,0,0,.54.286,1.092,1.092,0,0,0,1.019-.256,1.438,1.438,0,0,1,1.529-.31c.534.226.731.673.995,1.036-.209-.113-.387-.256-.583-.381a1.145,1.145,0,0,0-1.56.036,1.427,1.427,0,0,1-1.547.256,2.649,2.649,0,0,1-.97-1.048c.233.125.411.268.6.393Zm-22.156-4.168a1.289,1.289,0,0,0,.54.286,1.111,1.111,0,0,0,1.019-.262,1.438,1.438,0,0,1,1.529-.31c.534.226.731.673.995,1.036-.209-.113-.387-.25-.583-.381a1.18,1.18,0,0,0-.54-.268,1.134,1.134,0,0,0-1.019.3,1.44,1.44,0,0,1-1.548.262,2.661,2.661,0,0,1-.97-1.054c.227.131.411.268.6.4Zm51.134-51.078a1.163,1.163,0,0,0,.166.6,1.088,1.088,0,0,0,.915.512,1.414,1.414,0,0,1,1.308.834,2.376,2.376,0,0,1-.055,1.411c-.061-.22-.092-.447-.135-.667a1.09,1.09,0,0,0-.184-.56,1.121,1.121,0,0,0-.94-.488,1.38,1.38,0,0,1-1.283-.875,2.584,2.584,0,0,1,.074-1.411,4,4,0,0,1,.16.661Zm-13.694,49.3c.061.226.092.447.135.673a1.362,1.362,0,0,0,.074.381l-.264.4v-.042a2.584,2.584,0,0,1,.08-1.4Zm-39.117-11.658a1.163,1.163,0,0,0,.166.6,1.093,1.093,0,0,0,.915.518A1.42,1.42,0,0,1,177.5,346a2.376,2.376,0,0,1-.055,1.411c-.061-.226-.092-.447-.135-.673a1.09,1.09,0,0,0-.184-.56,1.115,1.115,0,0,0-.946-.482,1.386,1.386,0,0,1-1.277-.875,2.526,2.526,0,0,1,.074-1.411,3.932,3.932,0,0,1,.16.655Zm-2.3,25.274a1.164,1.164,0,0,0,.172.6,1.112,1.112,0,0,0,.915.518,1.4,1.4,0,0,1,1.3.828,2.313,2.313,0,0,1-.055,1.417c-.061-.226-.086-.447-.129-.673a1.1,1.1,0,0,0-.19-.56,1.115,1.115,0,0,0-.94-.488,1.386,1.386,0,0,1-1.283-.875,2.5,2.5,0,0,1,.08-1.405C172.724,368.877,172.749,369.1,172.81,369.323ZM191.1,352.45a1.164,1.164,0,0,0,.172.6,1.088,1.088,0,0,0,.915.512,1.4,1.4,0,0,1,1.3.834,2.313,2.313,0,0,1-.049,1.411,6.416,6.416,0,0,1-.135-.667,1.1,1.1,0,0,0-.19-.56,1.115,1.115,0,0,0-.94-.488,1.392,1.392,0,0,1-1.283-.875,2.526,2.526,0,0,1,.08-1.411c.043.2.068.423.111.649ZM216.7,326.878a1.164,1.164,0,0,0,.172.6,1.112,1.112,0,0,0,.915.518,1.4,1.4,0,0,1,1.3.828,2.313,2.313,0,0,1-.055,1.417c-.061-.226-.086-.447-.129-.673a1.1,1.1,0,0,0-.19-.56,1.115,1.115,0,0,0-.94-.488,1.386,1.386,0,0,1-1.283-.875,2.5,2.5,0,0,1,.08-1.405c.043.2.068.423.111.643Zm-13.6,11.467a1.164,1.164,0,0,0,.172.6,1.088,1.088,0,0,0,.915.512,1.4,1.4,0,0,1,1.3.834,2.313,2.313,0,0,1-.055,1.411c-.061-.22-.086-.447-.129-.667a1.1,1.1,0,0,0-.19-.56,1.115,1.115,0,0,0-.94-.488,1.393,1.393,0,0,1-1.283-.875,2.526,2.526,0,0,1,.08-1.411c.043.2.068.423.111.649Zm15.512-22.916a1.177,1.177,0,0,0-.534-.286,1.092,1.092,0,0,0-1.019.262,1.451,1.451,0,0,1-1.529.3c-.534-.226-.731-.673-.995-1.036.209.113.387.256.583.381a1.151,1.151,0,0,0,1.56-.03,1.421,1.421,0,0,1,1.548-.262,2.649,2.649,0,0,1,.97,1.048A3.754,3.754,0,0,1,218.621,315.429Z" transform="translate(-115.013 -247.358)" opacity="0.2"/>
      <path id="Path_1283" data-name="Path 1283" d="M253.18,398a56.158,56.158,0,0,1,.669-6.138c.227-2.024.547-4.168.854-6.263.614-4.055,1.339-8.1,2.076-12.14.43-2.352.952-4.686,1.412-7.031,0-.083.16-.065.154,0-.51,4.138-.97,8.276-1.56,12.4s-1.228,8.115-1.984,12.158c-.215,1.155-.473,2.3-.7,3.453a34.208,34.208,0,0,1-.761,3.572.079.079,0,0,1-.086.071A.078.078,0,0,1,253.18,398Z" transform="translate(-196.359 -271.88)" fill="#263238"/>
      <path id="Path_1284" data-name="Path 1284" d="M162.771,366.977c10.66-2.638,22.426-6.371,26.737-10.717,8.6-8.645,20.265-36.473,22.033-53.162.933-8.728.166-12.5-2.2-12.39Z" transform="translate(-94.424 -241.267)" opacity="0.2"/>
      <path id="Path_1285" data-name="Path 1285" d="M98.333,341.968,94.79,368.456h69.667c-1.971-31.252-20.676-65.391-28.917-75.126-4.127-4.876-12.282-5.918-18.471-1.941-1.468.941-18.514,25.4-19.958,28.954C91.787,333.46,98.333,341.968,98.333,341.968Z" transform="translate(-5.208 -240.555)" fill="#ffc727"/>
      <path id="Path_1286" data-name="Path 1286" d="M121.826,314.908a2.827,2.827,0,0,0-1.455-.071,1.354,1.354,0,0,0-.9,1.244,1.069,1.069,0,0,1-.5.911,1.173,1.173,0,0,1-.577.179c-.227.048-.461.071-.688.131a2.53,2.53,0,0,0,1.455.054,1.369,1.369,0,0,0,.86-1.268,1.037,1.037,0,0,1,.528-.881,1.219,1.219,0,0,1,.614-.167C121.365,315,121.593,314.967,121.826,314.908Zm-5.22,28.156a1.194,1.194,0,0,0-.614.167,1.043,1.043,0,0,0-.534.881,1.369,1.369,0,0,1-.86,1.268,2.53,2.53,0,0,1-1.455-.054c.233-.06.461-.083.694-.131a1.174,1.174,0,0,0,.577-.179,1.051,1.051,0,0,0,.5-.911,1.348,1.348,0,0,1,.9-1.244,2.827,2.827,0,0,1,1.455.071,2.414,2.414,0,0,1-.663.113Zm17.071-18.689a1.194,1.194,0,0,0-.614.167,1.055,1.055,0,0,0-.534.881,1.351,1.351,0,0,1-.854,1.268,2.53,2.53,0,0,1-1.455-.054c.227-.06.461-.083.688-.131a1.173,1.173,0,0,0,.577-.179,1.069,1.069,0,0,0,.5-.911,1.354,1.354,0,0,1,.9-1.244,2.827,2.827,0,0,1,1.455.071C134.138,324.3,133.9,324.333,133.678,324.375Zm9.254,28.7a1.258,1.258,0,0,0-.614.161,1.049,1.049,0,0,0-.534.887,1.369,1.369,0,0,1-.86,1.268,2.6,2.6,0,0,1-1.455-.054c.233-.06.461-.089.694-.131a1.1,1.1,0,0,0,1.075-1.1,1.349,1.349,0,0,1,.9-1.238,2.827,2.827,0,0,1,1.455.071C143.4,353.007,143.165,353.03,142.932,353.078Zm-41.659,13.938a1.175,1.175,0,0,0-.583.167,1.043,1.043,0,0,0-.534.881,1.369,1.369,0,0,1-.86,1.268,2.53,2.53,0,0,1-1.455-.054c.233-.06.461-.083.694-.131a1.13,1.13,0,0,0,.571-.179,1.046,1.046,0,0,0,.5-.911,1.348,1.348,0,0,1,.9-1.244,2.827,2.827,0,0,1,1.455.071c-.227.06-.461.083-.694.131Zm58.337-10.461a1.181,1.181,0,0,0,.614-.179,1.109,1.109,0,0,0,.356-.375c.037.2.08.387.117.6a1.2,1.2,0,0,1-.282.155,2.619,2.619,0,0,1-1.462-.054q.313-.086.632-.143ZM128.593,294.82a1.257,1.257,0,0,0-.614.167,1.037,1.037,0,0,0-.528.881,1.369,1.369,0,0,1-.86,1.268,2.53,2.53,0,0,1-1.455-.054c.227-.06.461-.083.688-.131a1.173,1.173,0,0,0,.577-.179,1.069,1.069,0,0,0,.5-.911,1.354,1.354,0,0,1,.9-1.244,2.827,2.827,0,0,1,1.455.071C129.054,294.73,128.826,294.76,128.593,294.82ZM105.1,335.544a1.239,1.239,0,0,0,.534.286,1.1,1.1,0,0,0,1.025-.262,1.426,1.426,0,0,1,1.529-.3c.534.226.725.673.995,1.036-.209-.119-.393-.256-.614-.381a1.143,1.143,0,0,0-1.554.03,1.433,1.433,0,0,1-1.548.262,2.7,2.7,0,0,1-.976-1.048,4.389,4.389,0,0,1,.608.363Zm44.779-8.931a1.171,1.171,0,0,0,.534.286,1.143,1.143,0,0,0,.761-.083c.068.161.135.322.2.482a1.4,1.4,0,0,1-1.105,0,2.7,2.7,0,0,1-.976-1.048,2.435,2.435,0,0,1,.59.333Zm0,19.273a1.24,1.24,0,0,0,.54.286,1.092,1.092,0,0,0,1.019-.256,1.438,1.438,0,0,1,1.529-.31c.534.226.731.673.995,1.036-.209-.113-.387-.256-.614-.381a1.145,1.145,0,0,0-1.56.036,1.427,1.427,0,0,1-1.547.256,2.65,2.65,0,0,1-.97-1.048,2.977,2.977,0,0,1,.6.351Zm-19.307,19.475a1.178,1.178,0,0,0,.534.286,1.111,1.111,0,0,0,1.026-.262,1.432,1.432,0,0,1,1.529-.3c.528.226.725.673.989,1.036-.2-.119-.387-.256-.614-.381a1.151,1.151,0,0,0-1.56.03,1.421,1.421,0,0,1-1.541.262,2.662,2.662,0,0,1-.976-1.048,3.728,3.728,0,0,1,.608.351Zm-1.449-23.631a1.24,1.24,0,0,0,.534.286,1.111,1.111,0,0,0,1.019-.262,1.438,1.438,0,0,1,1.529-.31c.534.226.731.673.995,1.036-.209-.113-.387-.25-.583-.381a1.18,1.18,0,0,0-.54-.268,1.134,1.134,0,0,0-1.019.3,1.439,1.439,0,0,1-1.547.262,2.661,2.661,0,0,1-.97-1.054,4.338,4.338,0,0,1,.577.357Zm-16.371,19.648a1.24,1.24,0,0,0,.534.286,1.13,1.13,0,0,0,1.026-.262,1.426,1.426,0,0,1,1.529-.3c.528.226.725.673.989,1.036-.2-.119-.387-.256-.583-.387a1.168,1.168,0,0,0-.54-.262,1.115,1.115,0,0,0-1.019.3,1.42,1.42,0,0,1-1.541.262,2.662,2.662,0,0,1-.976-1.048,2.72,2.72,0,0,1,.577.333Zm3.506-59.443a1.163,1.163,0,0,0,.166.6,1.088,1.088,0,0,0,.915.512,1.414,1.414,0,0,1,1.308.834,2.376,2.376,0,0,1-.055,1.411c-.061-.22-.092-.447-.135-.667a1.09,1.09,0,0,0-.184-.56,1.121,1.121,0,0,0-.94-.488,1.38,1.38,0,0,1-1.283-.875,2.584,2.584,0,0,1,.074-1.411,5.962,5.962,0,0,1,.129.6ZM102.7,351.905a1.114,1.114,0,0,0,1.081,1.084,1.414,1.414,0,0,1,1.308.834,2.313,2.313,0,0,1-.055,1.411c-.061-.22-.086-.447-.135-.673a1.1,1.1,0,0,0-1.124-1.042,1.386,1.386,0,0,1-1.283-.875,2.584,2.584,0,0,1,.074-1.411,6.261,6.261,0,0,1,.129.625Zm2.3-29.513a1.164,1.164,0,0,0,.172.6,1.112,1.112,0,0,0,.915.518,1.4,1.4,0,0,1,1.3.828,2.313,2.313,0,0,1-.055,1.417c-.061-.226-.086-.447-.129-.673a1.1,1.1,0,0,0-.19-.56,1.115,1.115,0,0,0-.94-.488,1.386,1.386,0,0,1-1.283-.875,2.5,2.5,0,0,1,.08-1.405,4.632,4.632,0,0,1,.123.6Zm14.345,7.407a1.114,1.114,0,0,0,1.081,1.084,1.414,1.414,0,0,1,1.308.834,2.313,2.313,0,0,1-.055,1.411c-.061-.22-.086-.447-.135-.673a1.1,1.1,0,0,0-1.124-1.042,1.4,1.4,0,0,1-1.283-.875,2.584,2.584,0,0,1,.074-1.411,6.27,6.27,0,0,1,.129.625Zm31.183,32.407a1.165,1.165,0,0,0,.172.566,1.093,1.093,0,0,0,.915.518,1.4,1.4,0,0,1,1.3.834,2.312,2.312,0,0,1-.055,1.411c-.061-.226-.086-.447-.129-.673a1.105,1.105,0,0,0-1.13-1.042,1.4,1.4,0,0,1-1.283-.875,2.526,2.526,0,0,1,.08-1.411C150.46,361.753,150.485,361.979,150.528,362.205Zm-10.065-46.8a1.105,1.105,0,0,0,.172.6,1.087,1.087,0,0,0,.909.518,1.4,1.4,0,0,1,1.308.834,2.313,2.313,0,0,1-.055,1.411c-.061-.226-.086-.447-.135-.673a1.09,1.09,0,0,0-.184-.56,1.1,1.1,0,0,0-.94-.482,1.4,1.4,0,0,1-1.283-.875,2.584,2.584,0,0,1,.074-1.411,6.278,6.278,0,0,1,.135.643Zm0,19.582a1.113,1.113,0,0,0,1.081,1.113,1.408,1.408,0,0,1,1.308.828,2.347,2.347,0,0,1-.055,1.417c-.061-.226-.086-.447-.135-.673a1.09,1.09,0,0,0-.184-.56,1.121,1.121,0,0,0-.94-.488,1.386,1.386,0,0,1-1.283-.875,2.561,2.561,0,0,1,.074-1.405,6.279,6.279,0,0,1,.135.643Zm-16.236,16.873a1.164,1.164,0,0,0,.172.566,1.093,1.093,0,0,0,.915.518,1.4,1.4,0,0,1,1.3.834,2.313,2.313,0,0,1-.049,1.411,6.217,6.217,0,0,1-.135-.673,1.056,1.056,0,0,0-.19-.554,1.1,1.1,0,0,0-.94-.488,1.4,1.4,0,0,1-1.283-.875,2.526,2.526,0,0,1,.08-1.411c.061.226.086.447.129.673Zm-17.3-40.962a1.178,1.178,0,0,0-.534-.286,1.092,1.092,0,0,0-1.019.262,1.451,1.451,0,0,1-1.529.3c-.534-.226-.731-.673-.995-1.036.209.113.387.256.583.381a1.151,1.151,0,0,0,1.56-.03,1.42,1.42,0,0,1,1.547-.262,2.649,2.649,0,0,1,.97,1.048A3.751,3.751,0,0,1,106.928,310.895Zm24.809-1.983a1.24,1.24,0,0,0-.54-.286,1.111,1.111,0,0,0-1.019.256,1.438,1.438,0,0,1-1.529.31c-.534-.226-.731-.673-.995-1.036.209.113.393.256.614.381a1.151,1.151,0,0,0,1.56-.03,1.42,1.42,0,0,1,1.547-.262,2.71,2.71,0,0,1,.976,1.048A4.837,4.837,0,0,1,131.737,308.912Z" transform="translate(-3.321 -242.824)" opacity="0.2"/>
      <path id="Path_1287" data-name="Path 1287" d="M191.028,350.354a20.734,20.734,0,0,1-1.185-12.5,33.506,33.506,0,0,1,4.225-9.586c.307-.512.921-1.459,1.664-2.584.657-1.387,1.369-2.745,2.112-4.1.043-.071.147,0,.111.071-.411.869-.829,1.733-1.265,2.59,1.744-2.59,3.783-5.555,4.563-6.621a.063.063,0,0,1,.078-.013.059.059,0,0,1,.026.073c-.817,1.744-4.968,8.091-5.92,9.746a41.161,41.161,0,0,0-4.342,9.6,19.984,19.984,0,0,0,1.621,14.771,4.491,4.491,0,0,1,.614,2.441c-.055.953-.221,1.905-.344,2.852-.282,2.167-.614,4.328-.9,6.49s-.577,4.281-1.056,6.371c-.031.131-.233.089-.233-.036.055-1.971.3-3.947.522-5.906s.448-3.84.675-5.757c.117-.982.246-1.971.375-2.977.055-.429.129-.863.141-1.292a2.987,2.987,0,0,0-.368-1.387C191.765,351.872,191.36,351.134,191.028,350.354Z" transform="translate(-100.194 -252.15)" fill="#263238"/>
      <path id="Path_1288" data-name="Path 1288" d="M77.955,299.54c9.26,7.419,42.513,34.872,40.548,44.612-2.008,9.871-9.715,17.862-15.641,12.33C97.95,351.94,76.254,318.223,72.318,309.2,68.572,300.618,68.885,292.259,77.955,299.54Z" transform="translate(55.846 -243.716)" fill="#ad6359"/>
      <path id="Path_1289" data-name="Path 1289" d="M119.618,341c0,6.829-4.716,19.719-13.884,17.32-6.006-1.572-30.913-41.373-34.929-50.816-4.649-10.943-.614-15.236,7.946-8.788S119.606,331.228,119.618,341Z" transform="translate(55.56 -243.283)" fill="#ffc727"/>
      <path id="Path_1290" data-name="Path 1290" d="M101.778,315.648a2.53,2.53,0,0,0,1.455.054.857.857,0,0,0,.209-.107c-.117-.1-.227-.191-.344-.3l-.049.042a1.173,1.173,0,0,1-.577.179C102.263,315.565,102.03,315.589,101.778,315.648Zm10.439,23.345a1.257,1.257,0,0,0-.614.161,1.066,1.066,0,0,0-.534.887,1.363,1.363,0,0,1-.854,1.268,2.625,2.625,0,0,1-1.462-.054c.233-.06.461-.089.694-.131a1.173,1.173,0,0,0,.577-.179,1.057,1.057,0,0,0,.5-.917,1.349,1.349,0,0,1,.909-1.238,2.8,2.8,0,0,1,1.449.071A5.831,5.831,0,0,1,112.217,338.993Zm-1.511,18.969a2.827,2.827,0,0,1,1.455.071,6.756,6.756,0,0,1-.694.125,1.332,1.332,0,0,0-.583.167,1.1,1.1,0,0,0-.516.7l-.4-.417a1.259,1.259,0,0,1,.761-.649ZM99.039,330.324a1.289,1.289,0,0,0,.54.286,1.111,1.111,0,0,0,1.019-.262,1.426,1.426,0,0,1,1.529-.3c.534.226.731.673.995,1.036-.209-.119-.387-.256-.614-.387a1.162,1.162,0,0,0-1.56.036,1.433,1.433,0,0,1-1.547.262,2.685,2.685,0,0,1-.97-1.048A5.216,5.216,0,0,1,99.039,330.324Zm-10.8-25.875a1.164,1.164,0,0,0,.172.6,1.112,1.112,0,0,0,.915.518,1.4,1.4,0,0,1,1.3.828,2.313,2.313,0,0,1-.055,1.411c-.061-.22-.086-.447-.129-.667a1.1,1.1,0,0,0-.19-.56,1.115,1.115,0,0,0-.94-.488,1.393,1.393,0,0,1-1.283-.875,2.526,2.526,0,0,1,.08-1.411A6.417,6.417,0,0,1,88.237,304.449Zm1.388,14.694a1.106,1.106,0,0,0,.172.6,1.087,1.087,0,0,0,.909.518,1.4,1.4,0,0,1,1.308.834,2.313,2.313,0,0,1-.055,1.411c-.061-.226-.086-.447-.135-.673a1.09,1.09,0,0,0-.184-.56,1.1,1.1,0,0,0-.94-.482,1.4,1.4,0,0,1-1.283-.875,2.584,2.584,0,0,1,.074-1.411,6.282,6.282,0,0,1,.135.643Zm29.1,31.329a1.164,1.164,0,0,0,.172.6,1.081,1.081,0,0,0,.915.512,1.408,1.408,0,0,1,1.3.833,2.313,2.313,0,0,1-.055,1.411c-.061-.22-.086-.447-.135-.667a1.038,1.038,0,0,0-.184-.56,1.121,1.121,0,0,0-.94-.488,1.393,1.393,0,0,1-1.283-.875,2.584,2.584,0,0,1,.074-1.411A6.406,6.406,0,0,1,118.72,350.472ZM80.5,311.981a2.674,2.674,0,0,1,.976,1.054c-.2-.119-.381-.256-.577-.381a1.241,1.241,0,0,0-.54-.286,1.131,1.131,0,0,0-.743.071c-.086-.161-.16-.316-.233-.47a1.377,1.377,0,0,1,1.118.012Z" transform="translate(47.517 -246.565)" opacity="0.2"/>
      <path id="Path_1291" data-name="Path 1291" d="M98.408,336.066c.829,1.113,1.744,2.179,2.628,3.257l.614.768c-.553-1.024-1.087-2.06-1.621-3.1a47.834,47.834,0,0,1-2.168-4.6c-.037-.1.123-.149.172-.065.829,1.262,1.5,2.608,2.278,3.894s1.541,2.59,2.3,3.894c1.511,2.6,3.07,5.186,4.655,7.74,3.205,5.1,6.614,10.08,10.138,14.974.983,1.369,1.965,2.751,3,4.084s2.014,2.8,3.07,4.168c.037.048,0,.107-.068.065-.995-1.191-2.02-2.3-3.034-3.453s-1.91-2.34-2.849-3.513c-1.9-2.382-3.684-4.811-5.441-7.282a176.816,176.816,0,0,1-9.709-15.4c-.08-.137-.147-.268-.221-.4-.5-.524-.995-1.054-1.462-1.613-.878-1.06-1.633-2.2-2.407-3.334C98.273,336.06,98.365,336.012,98.408,336.066Z" transform="translate(33.883 -258.088)" fill="#263238"/>
      <path id="Path_1292" data-name="Path 1292" d="M145.536,277.719s-2.033,8.073.4,9.187c4.526,2.078,12.613-4.37,13.135-5.531.135-.292.8-8.05,1.314-14.081.325-3.876.583-7.043.583-7.043l-15.819,6.1.362,10.616Z" transform="translate(-32.392 -228.944)" fill="#ad6359"/>
      <path id="Path_1293" data-name="Path 1293" d="M144.74,266.347l.362,10.616a22,22,0,0,0,14.873-9.669c.325-3.876.583-7.043.583-7.043l-1.983.691Z" transform="translate(-31.983 -228.944)" fill="#263238"/>
      <path id="Path_1294" data-name="Path 1294" d="M189.279,245.359c-.061,4.34-3.3,7.817-7.228,7.74s-7.062-3.614-7-7.96,3.3-7.817,7.228-7.74S189.309,241.019,189.279,245.359Z" transform="translate(-79.316 -219.698)" fill="#455a64"/>
      <path id="Path_1295" data-name="Path 1295" d="M187.13,245.263c-.074,4.835-3.684,8.7-8.044,8.639s-7.854-4.025-7.787-8.853,3.684-8.7,8.044-8.639S187.2,240.434,187.13,245.263Z" transform="translate(-74.865 -219.297)" fill="#c7c7c7"/>
      <path id="Path_1296" data-name="Path 1296" d="M136.879,230.881c-.712,18.618,10.71,21.136,14.848,21.279,3.758.137,16.58.119,19.276-18.332s-6.006-24.655-14.591-25.4S137.6,212.257,136.879,230.881Z" transform="translate(-38.08 -207.946)" fill="#ad6359"/>
      <path id="Path_1297" data-name="Path 1297" d="M181.894,238.879a11.622,11.622,0,0,0,1.3-.28,2.189,2.189,0,0,0,1.265-.53.645.645,0,0,0,0-.81,1.721,1.721,0,0,0-1.67-.363,2.474,2.474,0,0,0-1.554.869.69.69,0,0,0-.035.762A.737.737,0,0,0,181.894,238.879Z" transform="translate(-78.348 -219.463)" fill="#263238"/>
      <path id="Path_1298" data-name="Path 1298" d="M166.485,239.651a11.856,11.856,0,0,1-1.29-.292,2.158,2.158,0,0,1-1.265-.536.657.657,0,0,1,0-.81,1.747,1.747,0,0,1,1.676-.357,2.515,2.515,0,0,1,1.541.887.69.69,0,0,1,.03.757A.737.737,0,0,1,166.485,239.651Z" transform="translate(-50.4 -219.77)" fill="#263238"/>
      <path id="Path_1299" data-name="Path 1299" d="M168.253,248.862c0-.048.1.065.1.119-.1,1.262,0,2.727,1.154,3.2.037,0,0,.077,0,.071C168.056,251.994,167.946,250.047,168.253,248.862Z" transform="translate(-55.299 -224.332)" fill="#263238"/>
      <path id="Path_1300" data-name="Path 1300" d="M166.93,246.74c2.112-.06,2.069,4.037.117,4.09S165.161,246.787,166.93,246.74Z" transform="translate(-52.742 -223.477)" fill="#263238"/>
      <path id="Path_1301" data-name="Path 1301" d="M163.066,247.042c.362.238.725.649,1.167.7s.909-.369,1.228-.78c.037-.042.074,0,.074.048,0,.786-.313,1.584-1.185,1.7s-1.351-.6-1.547-1.393C162.783,247.167,162.918,246.976,163.066,247.042Z" transform="translate(-48.049 -223.559)" fill="#263238"/>
      <path id="Path_1302" data-name="Path 1302" d="M182.867,247.992c0-.048-.1.06-.1.113.037,1.268-.135,2.727-1.32,3.15-.037,0-.031.077,0,.071C182.9,251.112,183.119,249.183,182.867,247.992Z" transform="translate(-76.908 -223.979)" fill="#263238"/>
      <path id="Path_1303" data-name="Path 1303" d="M183.143,245.747c-2.1-.161-2.272,3.93-.325,4.078S184.912,245.9,183.143,245.747Z" transform="translate(-78.351 -223.074)" fill="#263238"/>
      <path id="Path_1304" data-name="Path 1304" d="M186.8,245.932c-.344.2-.688.6-1.087.6s-.786-.447-1.062-.881c-.031-.048-.068,0-.068.042-.055.78.178,1.608.946,1.786s1.228-.488,1.474-1.256C187.044,246.075,186.94,245.849,186.8,245.932Z" transform="translate(-82.897 -223.027)" fill="#263238"/>
      <path id="Path_1305" data-name="Path 1305" d="M172.743,265.406c-.3.31-.614.726-1.075.786a3.633,3.633,0,0,1-1.419-.268.045.045,0,0,0-.061.006.041.041,0,0,0,.006.06,1.822,1.822,0,0,0,1.689.631,1.381,1.381,0,0,0,.989-1.161C172.884,265.388,172.786,265.364,172.743,265.406Z" transform="translate(-59.918 -231.022)" fill="#263238"/>
      <path id="Path_1306" data-name="Path 1306" d="M173.9,249.152s-.307,1.887-.332,2.78c0,.083.221.125.534.149h.037a4.46,4.46,0,0,0,4.3-1.5.089.089,0,0,0,0-.128.1.1,0,0,0-.132,0,6.779,6.779,0,0,1-4.028,1.03c-.061-.25.614-3.221.5-3.233a8.265,8.265,0,0,0-2.1.417c.528-3.953,1.707-7.794,2.174-11.735a.126.126,0,0,0-.094-.121.131.131,0,0,0-.146.056,63.114,63.114,0,0,0-2.9,12.545C171.619,249.926,173.535,249.294,173.9,249.152Z" transform="translate(-66.452 -219.459)" fill="#263238"/>
      <path id="Path_1307" data-name="Path 1307" d="M171.065,260.9a4.811,4.811,0,0,0,1.842,1.6,2.254,2.254,0,0,0,1.308.179c.97-.173,1.062-1.018.946-1.786a4.842,4.842,0,0,0-.338-1.143,6.38,6.38,0,0,1-3.758,1.155Z" transform="translate(-62.791 -228.738)" fill="#263238"/>
      <path id="Path_1308" data-name="Path 1308" d="M171.105,263.268a2.254,2.254,0,0,0,1.308.179c.97-.173,1.062-1.018.946-1.786A2.289,2.289,0,0,0,171.105,263.268Z" transform="translate(-61.014 -229.514)" fill="#f392b9"/>
      <path id="Path_1309" data-name="Path 1309" d="M165.5,231.9c-2.094.06-8.026-5.007-9.113-14.736,0,0,1.6,8.669,2.395,9.889s-3.322-2.852-4.3-10.687a33.158,33.158,0,0,1-7.922,4.918c-3.727,1.381-6.073,1.548-6.368,1.3s5.164-2.459,6.528-4.3c0,0-9.745,5.489-14.4,6.246-.54.089.368-8.038,7.191-13.271s16.2-3.924,19.558-1.3c0,0,3.684.185,8.106,5.037S167.755,231.83,165.5,231.9Z" transform="translate(-32.928 -207.669)" fill="#263238"/>
      <path id="Path_1310" data-name="Path 1310" d="M130.753,250.044s3.893-6.007,6.687-4.692.068,9.889-3.07,11.193a3.335,3.335,0,0,1-2.544.178,3.208,3.208,0,0,1-1.89-1.661Z" transform="translate(-0.937 -222.84)" fill="#ad6359"/>
      <path id="Path_1311" data-name="Path 1311" d="M138.087,249.58a.041.041,0,0,1,0,.077c-2.192.988-3.267,3.054-3.992,5.186a1.811,1.811,0,0,1,2.659-.6c.061.036,0,.131-.055.119a2.04,2.04,0,0,0-2.162.78,9.246,9.246,0,0,0-.964,1.786c-.1.2-.461.113-.4-.113v-.054C133.021,254,135.041,250,138.087,249.58Z" transform="translate(-2.431 -224.627)" fill="#263238"/>
      <path id="Path_1312" data-name="Path 1312" d="M137.639,262.573a.665.665,0,0,0,.722.6.658.658,0,0,0,.617-.7.665.665,0,0,0-.722-.6A.658.658,0,0,0,137.639,262.573Z" transform="translate(-6.042 -229.6)" fill="#fff"/>
      <path id="Path_1313" data-name="Path 1313" d="M135.52,260.626a.4.4,0,0,0,.146.28.426.426,0,0,0,.309.095.421.421,0,0,0,.393-.441.429.429,0,0,0-.75-.236A.4.4,0,0,0,135.52,260.626Z" transform="translate(-2.13 -228.915)" fill="#fff"/>
      <path id="Path_1314" data-name="Path 1314" d="M129.438,251.339l1.326.22a.276.276,0,0,0,.313-.214h0a.256.256,0,0,0-.045-.2.271.271,0,0,0-.176-.107l-1.326-.214a.277.277,0,0,0-.2.044.261.261,0,0,0-.111.17h0A.263.263,0,0,0,129.438,251.339Z" transform="translate(7.029 -225.13)" fill="#ffc727"/>
      <path id="Path_1315" data-name="Path 1315" d="M129.334,249.944h1.345a.266.266,0,0,0,.27-.256h0a.266.266,0,0,0-.258-.268h-1.345a.263.263,0,0,0-.194.067.246.246,0,0,0-.082.183h0a.257.257,0,0,0,.073.191A.274.274,0,0,0,129.334,249.944Z" transform="translate(7.249 -224.562)" fill="#ffc727"/>
      <path id="Path_1316" data-name="Path 1316" d="M162.125,230.445s1.228-9.425-1.308-14.813c-2.825-6-15.352-10.6-24.741-4.864,0,0,14.511-3.394,20.879,5.061,2.677,3.572,1.922,14.682,1.922,14.682Z" transform="translate(-28.526 -207.862)" fill="#c7c7c7"/>
      <path id="Path_1317" data-name="Path 1317" d="M126.184,247.171c-.344,4.823,2.911,8.966,7.271,9.258s8.18-3.376,8.523-8.2-2.911-8.961-7.277-9.252S126.528,242.355,126.184,247.171Z" transform="translate(-2.018 -220.331)" fill="#c7c7c7"/>
      <path id="Path_1318" data-name="Path 1318" d="M125.021,247.53c-.313,4.334,2.616,8.062,6.534,8.335s7.369-3.036,7.658-7.371-2.616-8.056-6.534-8.335S125.328,243.2,125.021,247.53Z" transform="translate(1.467 -220.808)" fill="#455a64"/>
      <path id="Path_1319" data-name="Path 1319" d="M113.832,205.693l6.356-1.352,5.846-4.817-.768-.875-5.619,4.632-6.067,1.292Z" transform="translate(2.788 -165.891)" fill="#c7c7c7"/>
      <path id="Path_1320" data-name="Path 1320" d="M167.688,272.272c-.239-1.786-5.152-2.048-4.784.6S167.934,274.04,167.688,272.272Z" transform="translate(-50.264 -233.256)" fill="#37474f"/>
      <path id="Path_1321" data-name="Path 1321" d="M151.486,290.324a67.651,67.651,0,0,1,9.856,5.114s-12.331,12.051-19.829,10.568-3.39-12.825-3.39-12.825S143.042,286.966,151.486,290.324Z" transform="translate(-28.013 -240.71)" fill="#ad6359"/>
      <path id="Path_1322" data-name="Path 1322" d="M86.849,354.652c5.693,6.746,14.971-.959,16.027-6.966,2.456-14.087-.712-39.932-4.949-52.179-1.363-3.947-28.364,3.572-28.426,8.008C69.409,308.164,75.261,340.964,86.849,354.652Z" transform="translate(71.043 -242.76)" fill="#ad6359"/>
      <path id="Path_1323" data-name="Path 1323" d="M123.378,280.575s-.405-12.938-5.152-21.559c-3.279-5.954-11.913-18.159-32.694-19.023-4.913-.2-12.1,2.894-4.176,6.067,5.625,2.251,9.9,2.024,12.9,3.912,0,0-8.64,5-8.659,9.788a85.247,85.247,0,0,0,.872,12.539,20.851,20.851,0,0,0,2.456.054s.129,4.489,5.3,9.145Z" transform="translate(46.292 -220.744)" fill="#ad6359"/>
      <path id="Path_1324" data-name="Path 1324" d="M132.067,260.574c-3.414-1.256-10.7-3.8-17.4-3.876-7.449-.083-21.818,1.7-21.824,7.031,0,3.912,5.527,3.7,5.527,3.7s-5.778,1.953-4.986,5.483c.718,3.221,5,2.8,5,2.8s-3.3,1.786-1.983,4.763c1.572,3.572,8.223-.72,13.049,1.56C110.55,282.526,132.067,260.574,132.067,260.574Z" transform="translate(28.379 -227.506)" fill="#ad6359"/>
      <path id="Path_1325" data-name="Path 1325" d="M136.666,269.352a30.32,30.32,0,0,0-17.428,2.977c-.129.071-.147.208,0,.167a75.311,75.311,0,0,1,17.44-3.054C136.709,269.418,136.709,269.358,136.666,269.352Z" transform="translate(7.599 -232.515)" fill="#263238"/>
      <path id="Path_1326" data-name="Path 1326" d="M136.937,281.742c-3.009-.292-11.391.488-17.194,3.953-.129.077-.135.214,0,.173a80.485,80.485,0,0,1,17.194-4.061.035.035,0,0,0,0-.065Z" transform="translate(7.027 -237.617)" fill="#263238"/>
      <path id="Path_1327" data-name="Path 1327" d="M148.223,263.392a11.956,11.956,0,0,1,2.966-1.786c.055-.03.1.06.043.083-1.769.72-3.629,2.423-3.334,4.442.356,2.429,3.353,3.042,5.441,3.1.1,0,.055.113-.055.131-2.315.393-5.582-.387-6.006-3.03A3.455,3.455,0,0,1,148.223,263.392Z" transform="translate(-26.353 -229.49)" fill="#263238"/>
      <path id="Path_1328" data-name="Path 1328" d="M152.632,274.29c.061,0,.1.06.049.083-3.212,1.191-5.183,3.352-5.349,4.573a2.943,2.943,0,0,0,1.425,3.1,5.577,5.577,0,0,0,3.685.56c.1,0,.141.131.037.149-1.5.268-4.391.6-5.435-1.756C146.141,279.029,147.118,275.749,152.632,274.29Z" transform="translate(-25.364 -234.625)" fill="#263238"/>
      <path id="Path_1329" data-name="Path 1329" d="M139.154,289.786A4.822,4.822,0,0,1,141.776,288c.055,0,.086.065.037.083a4.461,4.461,0,0,0-2.782,3.935c.061.81.657,2.471,4.3,2.28a27.837,27.837,0,0,0,2.917-.256c.657-.071.276.149.086.185-2.2.435-7.658,1.667-7.774-2.465A3.389,3.389,0,0,1,139.154,289.786Z" transform="translate(-14.245 -240.172)" fill="#263238"/>
      <path id="Path_1330" data-name="Path 1330" d="M146.622,243.165c.141-.887,1.308-1.786,3.531-2.185h0c-1.842.488-3.187,1.447-3.175,2.322s.669,1.786,2.622,2.8c.055,0,0,.06-.043.036C148.409,245.624,146.364,244.773,146.622,243.165Z" transform="translate(-22.72 -221.147)" fill="#263238"/>
      <path id="Path_1331" data-name="Path 1331" d="M101.969,299.9l-33.43,10.907S80.7,347.126,86.457,354.961s13.719,6.394,18.318-3.281S101.969,299.9,101.969,299.9Z" transform="translate(69.089 -244.987)" fill="#ffc727"/>
      <path id="Path_1332" data-name="Path 1332" d="M79.3,316.362a2.827,2.827,0,0,0-1.455-.071,1.349,1.349,0,0,0-.9,1.244,1.051,1.051,0,0,1-.5.911,1.174,1.174,0,0,1-.577.179c-.233.048-.461.071-.694.131a2.53,2.53,0,0,0,1.455.054,1.369,1.369,0,0,0,.86-1.268,1.043,1.043,0,0,1,.534-.881,1.194,1.194,0,0,1,.614-.167C78.835,316.451,79.068,316.422,79.3,316.362ZM85.59,342.1a1.258,1.258,0,0,0-.614.161,1.066,1.066,0,0,0-.534.887,1.363,1.363,0,0,1-.854,1.268,2.625,2.625,0,0,1-1.462-.054c.233-.06.461-.089.694-.131a1.173,1.173,0,0,0,.577-.179,1.057,1.057,0,0,0,.5-.917A1.349,1.349,0,0,1,84.8,341.9a2.8,2.8,0,0,1,1.449.071A5.832,5.832,0,0,1,85.59,342.1Zm-1.5,18.969a2.834,2.834,0,0,1,1.455.071c-.233.06-.467.089-.694.131a1.214,1.214,0,0,0-.614.161,1.064,1.064,0,0,0-.522.774c-.147-.125-.295-.256-.442-.4a1.306,1.306,0,0,1,.841-.738ZM72.418,333.432a1.289,1.289,0,0,0,.54.286,1.111,1.111,0,0,0,1.019-.262,1.426,1.426,0,0,1,1.529-.3c.534.226.731.673.995,1.036-.209-.119-.387-.256-.614-.387a1.162,1.162,0,0,0-1.56.036,1.433,1.433,0,0,1-1.547.262,2.686,2.686,0,0,1-.97-1.048,5.684,5.684,0,0,1,.6.381Zm22.721,2.292a1.177,1.177,0,0,0,.534.286,1.111,1.111,0,0,0,1.026-.262,1.432,1.432,0,0,1,1.529-.3c.528.226.725.673.989,1.036-.2-.119-.387-.256-.614-.381a1.151,1.151,0,0,0-1.56.03,1.42,1.42,0,0,1-1.541.262,2.662,2.662,0,0,1-.976-1.048,4,4,0,0,1,.639.381Zm-3.721-23.863a1.24,1.24,0,0,0,.54.286,1.092,1.092,0,0,0,1.019-.256,1.438,1.438,0,0,1,1.529-.31c.534.226.725.673.995,1.036-.209-.113-.393-.256-.614-.381a1.145,1.145,0,0,0-1.56.036,1.427,1.427,0,0,1-1.547.256,2.71,2.71,0,0,1-.976-1.048,4.288,4.288,0,0,1,.639.381Zm-3.783,12.39a1.106,1.106,0,0,0,.172.6,1.087,1.087,0,0,0,.909.518,1.4,1.4,0,0,1,1.308.834,2.313,2.313,0,0,1-.055,1.411c-.061-.226-.086-.447-.135-.673a1.09,1.09,0,0,0-.184-.56,1.1,1.1,0,0,0-.94-.482,1.4,1.4,0,0,1-1.277-.9,2.584,2.584,0,0,1,.074-1.411,4.355,4.355,0,0,1,.154.667Zm4.434,29.329a1.164,1.164,0,0,0,.172.6,1.081,1.081,0,0,0,.915.512,1.408,1.408,0,0,1,1.3.834,2.313,2.313,0,0,1-.055,1.411c-.061-.22-.086-.447-.135-.667a1.038,1.038,0,0,0-.184-.56,1.121,1.121,0,0,0-.94-.488,1.392,1.392,0,0,1-1.283-.875,2.584,2.584,0,0,1,.074-1.411,3.148,3.148,0,0,1,.16.649Z" transform="translate(74.144 -249.672)" opacity="0.2"/>
      <path id="Path_1333" data-name="Path 1333" d="M76.3,322.062a56.315,56.315,0,0,1,5.576-2.126c1.9-.715,3.826-1.346,5.742-1.989,3.734-1.238,7.5-2.346,11.262-3.441,2.192-.643,4.4-1.191,6.6-1.786.08,0,.111.131.031.155-3.777,1.375-7.535,2.792-11.33,4.078s-7.51,2.483-11.25,3.543c-1.075.31-2.162.6-3.236.869a28.279,28.279,0,0,1-3.353.863C76.222,322.24,76.222,322.1,76.3,322.062Z" transform="translate(65.09 -250.174)" fill="#263238"/>
      <path id="Path_1334" data-name="Path 1334" d="M111.686,317.486c.092-.3,3.8-1.227,3.985-1.286.061,0,.08.071,0,.1-.184.054-3.316,1.322-3.3,1.352,1.842,4.763,3.525,9.574,5.287,14.361s3.586,9.586,5.257,14.42c.94,2.715.872,2.977-.123.649s-2.014-4.251-2.923-6.621c-1.842-4.763-3.574-9.6-5.293-14.426C113.614,323.3,111.656,317.581,111.686,317.486Z" transform="translate(25.296 -251.582)" fill="#263238"/>
    </g>
    <g id="Calendar" transform="translate(2.892 183.12)">
      <path id="Path_1335" data-name="Path 1335" d="M358.28,338.919h41.254l7.2-29.019H365.489Z" transform="translate(-358.28 -308.51)" fill="#a6a6a6"/>
      <path id="Path_1336" data-name="Path 1336" d="M394.8,338.919H353.549L346.34,309.9h41.248Z" transform="translate(-339.008 -308.51)" fill="#dbdbdb"/>
      <path id="Path_1337" data-name="Path 1337" d="M358.16,319.06l.921,3.709.055.226.952,3.846.055.232.952,3.846.055.226L362.1,335l.055.226.933,3.769h30.286l-.933-3.769-.055-.226-.958-3.852-.055-.226-.952-3.846-.055-.232L389.417,323l-.055-.226-.921-3.709Z" transform="translate(-344.847 -312.217)" fill="#fff"/>
      <path id="Path_1338" data-name="Path 1338" d="M365,319.06l.915,3.709.061.226.946,3.846.061.232.952,3.846.055.226.952,3.852.055.226.933,3.769h.24l-.933-3.769-.055-.226-.952-3.852-.055-.226-.952-3.846-.055-.232L366.216,323l-.061-.226-.915-3.709Z" transform="translate(-325.84 -312.217)" fill="#ebebeb"/>
      <path id="Path_1339" data-name="Path 1339" d="M372.02,319.06l.921,3.709L373,323l.952,3.846.055.232.952,3.846.055.226.958,3.852.055.226.933,3.769h.24l-.933-3.769-.055-.226-.952-3.852-.055-.226-.952-3.846-.061-.232L373.236,323l-.055-.226-.915-3.709Z" transform="translate(-337.177 -312.217)" fill="#ebebeb"/>
      <path id="Path_1340" data-name="Path 1340" d="M379.05,319.06l.921,3.709.055.226.952,3.846.055.232.952,3.846.055.226L383,335l.055.226.933,3.769h.24l-.933-3.769-.055-.226-.952-3.852-.055-.226-.952-3.846-.055-.232L380.266,323l-.055-.226-.915-3.709Z" transform="translate(-348.524 -312.217)" fill="#ebebeb"/>
      <path id="Path_1341" data-name="Path 1341" d="M386.07,319.06l.921,3.709.055.226.952,3.846.055.232.952,3.846.055.226.952,3.852.055.226.933,3.769h.246l-.933-3.769-.061-.226-.952-3.852-.055-.226-.952-3.846-.055-.232L387.286,323l-.055-.226-.915-3.709Z" transform="translate(-359.855 -312.217)" fill="#ebebeb"/>
      <path id="Path_1342" data-name="Path 1342" d="M393.1,319.06l.921,3.709.055.226.952,3.846.055.232.952,3.846.055.226.952,3.852.061.226.927,3.769h.246l-.933-3.769-.055-.226-.952-3.852-.061-.226-.946-3.846-.061-.232L394.316,323l-.055-.226-.915-3.709Z" transform="translate(-371.202 -312.217)" fill="#ebebeb"/>
      <path id="Path_1343" data-name="Path 1343" d="M400.12,319.06l.915,3.709.061.226.946,3.846.061.232.952,3.846.055.226.952,3.852.055.226.933,3.769h.246l-.94-3.769L404.3,335l-.952-3.852-.055-.226-.952-3.846-.055-.232L401.336,323l-.061-.226-.915-3.709Z" transform="translate(-382.533 -312.217)" fill="#ebebeb"/>
      <path id="Path_1344" data-name="Path 1344" d="M364.61,325.29l.055.226h30.28l-.055-.226Z" transform="translate(-350.376 -314.737)" fill="#ebebeb"/>
      <path id="Path_1345" data-name="Path 1345" d="M362.97,332.13l.055.232h30.28l-.055-.232Z" transform="translate(-347.729 -317.505)" fill="#ebebeb"/>
      <path id="Path_1346" data-name="Path 1346" d="M361.33,338.98l.055.226h30.28l-.055-.226Z" transform="translate(-345.082 -320.277)" fill="#ebebeb"/>
      <path id="Path_1347" data-name="Path 1347" d="M359.68,345.83l.055.226h30.286l-.055-.226Z" transform="translate(-342.424 -323.048)" fill="#ebebeb"/>
      <path id="Path_1348" data-name="Path 1348" d="M429.946,396.83a6.7,6.7,0,0,1,1.48,1.066,2.482,2.482,0,0,1,.86,1.483.96.96,0,0,1-.2.75,1.427,1.427,0,0,1-.731.375,4.031,4.031,0,0,1-1.769-.042,4.093,4.093,0,0,1-1.609-.726,2.087,2.087,0,0,1-.553-.649,1.3,1.3,0,0,1-.178-.786,1.022,1.022,0,0,1,.448-.667,2.247,2.247,0,0,1,.817-.339,3.91,3.91,0,0,1,1.842,0,3.692,3.692,0,0,0-1.842-.167,2.5,2.5,0,0,0-.9.327,1.228,1.228,0,0,0-.571.786,1.438,1.438,0,0,0,.178.947,2.325,2.325,0,0,0,.614.738,4.471,4.471,0,0,0,3.629.822,1.682,1.682,0,0,0,.86-.488,1,1,0,0,0,.221-.458,1.629,1.629,0,0,0,0-.488,2.686,2.686,0,0,0-.989-1.56,6.39,6.39,0,0,0-1.615-.923Z" transform="translate(-407.44 -381.812)" fill="#ffc727"/>
      <path id="Path_1349" data-name="Path 1349" d="M366.732,320.531h3.218l-.092-.381H366.64Z" transform="translate(-326.627 -312.658)" fill="#c7c7c7"/>
      <path id="Path_1350" data-name="Path 1350" d="M366.482,321.631h1.891l-.092-.381H366.39Z" transform="translate(-324.897 -313.103)" fill="#c7c7c7"/>
      <path id="Path_1351" data-name="Path 1351" d="M390.072,340.661h1.959l-.092-.381H389.98Z" transform="translate(-363.04 -320.803)" fill="#c7c7c7"/>
      <path id="Path_1352" data-name="Path 1352" d="M389.566,342.891h1.959l-.092-.381H389.48Z" transform="translate(-362.227 -321.705)" fill="#c7c7c7"/>
      <path id="Path_1353" data-name="Path 1353" d="M389.816,341.751h3.07l-.092-.381H389.73Z" transform="translate(-363.742 -321.244)" fill="#c7c7c7"/>
      <path id="Path_1354" data-name="Path 1354" d="M398.332,335.735h1.953l-.086-.375H398.24Z" transform="translate(-376.367 -318.812)" fill="#c7c7c7"/>
      <path id="Path_1355" data-name="Path 1355" d="M398.072,336.831h3.07l-.092-.381h-3.07Z" transform="translate(-377.065 -319.253)" fill="#c7c7c7"/>
      <path id="Path_1356" data-name="Path 1356" d="M391.867,386.168l-1.885-1.369a1.1,1.1,0,0,1-.436-.6.685.685,0,0,1,.092-.56.677.677,0,0,1,.571-.274,1.108,1.108,0,0,1,.614.214l.2.143c.061.048.135.042.16,0a.1.1,0,0,0,.014-.087.108.108,0,0,0-.057-.068l-.2-.149a1.422,1.422,0,0,0-.8-.274.838.838,0,0,0-.719.351.87.87,0,0,0-.123.708,1.446,1.446,0,0,0,.547.786l1.621,1.191h-1.584a.087.087,0,0,0-.075.034.081.081,0,0,0-.011.079.159.159,0,0,0,.141.113h1.885a.094.094,0,0,0,.074-.03.124.124,0,0,0,.051-.114.126.126,0,0,0-.076-.1Z" transform="translate(-343.625 -376.276)" fill="#a6a6a6"/>
      <path id="Path_1357" data-name="Path 1357" d="M390.161,394.069a2.611,2.611,0,0,0-.614-1.137,1.389,1.389,0,0,0-.952-.482.779.779,0,0,0-.718.482,1.838,1.838,0,0,0-.055,1.137,2.617,2.617,0,0,0,.614,1.131,1.383,1.383,0,0,0,.958.494.779.779,0,0,0,.718-.494A1.775,1.775,0,0,0,390.161,394.069Zm-.233,0a1.6,1.6,0,0,1-.043,1.006.613.613,0,0,1-.547.387,1.071,1.071,0,0,1-.731-.387,2.25,2.25,0,0,1-.528-1.006,1.55,1.55,0,0,1,.049-1.006.613.613,0,0,1,.547-.387,1.028,1.028,0,0,1,.731.387,2.237,2.237,0,0,1,.522,1.006Z" transform="translate(-340.985 -380.04)" fill="#a6a6a6"/>
      <path id="Path_1358" data-name="Path 1358" d="M387.572,404.858l-1.891-1.369a1.1,1.1,0,0,1-.436-.6.708.708,0,0,1,.092-.56.689.689,0,0,1,.571-.274,1.108,1.108,0,0,1,.614.214l.2.143a.107.107,0,0,0,.16,0,.11.11,0,0,0,.012-.086.114.114,0,0,0-.055-.069l-.2-.149a1.454,1.454,0,0,0-.811-.274.828.828,0,0,0-.835,1.06,1.41,1.41,0,0,0,.547.786l1.615,1.191h-1.578a.093.093,0,0,0-.076.034.087.087,0,0,0-.016.079.165.165,0,0,0,.141.113h1.885a.1.1,0,0,0,.08-.03.129.129,0,0,0,.049-.112A.131.131,0,0,0,387.572,404.858Z" transform="translate(-336.677 -383.839)" fill="#a6a6a6"/>
      <path id="Path_1359" data-name="Path 1359" d="M385.855,412.759a2.611,2.611,0,0,0-.614-1.137,1.39,1.39,0,0,0-.958-.482.779.779,0,0,0-.718.482,1.838,1.838,0,0,0-.055,1.137,2.629,2.629,0,0,0,.614,1.131,1.382,1.382,0,0,0,.952.494.779.779,0,0,0,.718-.494A1.775,1.775,0,0,0,385.855,412.759Zm-.233,0a1.641,1.641,0,0,1-.043,1.006.613.613,0,0,1-.553.387,1.072,1.072,0,0,1-.731-.387,2.309,2.309,0,0,1-.528-1.006,1.636,1.636,0,0,1,.049-1.006.613.613,0,0,1,.547-.387,1.041,1.041,0,0,1,.737.387A2.355,2.355,0,0,1,385.622,412.759Z" transform="translate(-334.027 -387.602)" fill="#a6a6a6"/>
      <path id="Path_1360" data-name="Path 1360" d="M390.336,374.978a1.087,1.087,0,0,0,.792-.381,1.741,1.741,0,0,0,.209-1.786c-.283-.911-.964-1.286-1.5-1.191-.405.077-.854.476-.774,1.357a.241.241,0,0,0,.089.17.257.257,0,0,0,.188.056.252.252,0,0,0,.233-.268c-.037-.458.1-.774.362-.822s.712.22.909.839a1.368,1.368,0,0,1-.111,1.31.553.553,0,0,1-.436.2.257.257,0,0,0-.289.214.252.252,0,0,0,.221.28Z" transform="translate(-343.046 -371.606)" fill="#a6a6a6"/>
      <path id="Path_1361" data-name="Path 1361" d="M395.505,374.978a1.1,1.1,0,0,0,.8-.381,1.741,1.741,0,0,0,.209-1.786c-.289-.911-.97-1.286-1.5-1.191-.405.077-.854.476-.78,1.357a.257.257,0,0,0,.279.229.253.253,0,0,0,.236-.271c-.043-.458.1-.774.362-.822s.712.22.9.839a1.351,1.351,0,0,1-.1,1.31.553.553,0,0,1-.436.2.263.263,0,0,0-.295.214.252.252,0,0,0,.221.28Z" transform="translate(-351.396 -371.606)" fill="#a6a6a6"/>
      <path id="Path_1362" data-name="Path 1362" d="M400.687,374.978a1.087,1.087,0,0,0,.792-.381,1.741,1.741,0,0,0,.209-1.786c-.282-.911-.964-1.286-1.5-1.191-.405.077-.854.476-.774,1.357a.256.256,0,0,0,.276.226.259.259,0,0,0,.24-.268c-.043-.458.1-.774.356-.822s.712.22.909.839a1.385,1.385,0,0,1-.1,1.31.566.566,0,0,1-.442.2.257.257,0,0,0-.289.214.252.252,0,0,0,.221.28Z" transform="translate(-359.752 -371.606)" fill="#a6a6a6"/>
      <path id="Path_1363" data-name="Path 1363" d="M405.861,374.978a1.1,1.1,0,0,0,.792-.381,1.741,1.741,0,0,0,.209-1.786,1.446,1.446,0,0,0-1.5-1.191c-.405.077-.854.476-.78,1.357a.257.257,0,0,0,.279.229.253.253,0,0,0,.236-.271c-.037-.458.1-.774.362-.822s.712.22.9.839a1.351,1.351,0,0,1-.1,1.31.553.553,0,0,1-.436.2.263.263,0,0,0-.295.214.252.252,0,0,0,.221.28Z" transform="translate(-368.102 -371.606)" fill="#a6a6a6"/>
      <path id="Path_1364" data-name="Path 1364" d="M411.032,374.978a1.112,1.112,0,0,0,.8-.381,1.741,1.741,0,0,0,.2-1.786c-.283-.911-.964-1.286-1.492-1.191-.411.077-.854.476-.78,1.357a.256.256,0,0,0,.276.226.261.261,0,0,0,.177-.086.245.245,0,0,0,.062-.182c-.043-.458.1-.774.356-.822s.712.22.909.839a1.351,1.351,0,0,1-.1,1.31.553.553,0,0,1-.442.2.257.257,0,0,0-.289.214.252.252,0,0,0,.221.28Z" transform="translate(-376.453 -371.606)" fill="#a6a6a6"/>
      <path id="Path_1365" data-name="Path 1365" d="M416.207,374.978A1.087,1.087,0,0,0,417,374.6a1.741,1.741,0,0,0,.209-1.786,1.446,1.446,0,0,0-1.5-1.191c-.405.077-.854.476-.774,1.357a.242.242,0,0,0,.089.17.257.257,0,0,0,.188.056.252.252,0,0,0,.233-.268c-.037-.458.1-.774.362-.822s.712.22.9.839a1.351,1.351,0,0,1-.1,1.31.553.553,0,0,1-.436.2.256.256,0,0,0-.289.214.233.233,0,0,0,.045.185.248.248,0,0,0,.17.095Z" transform="translate(-384.803 -371.606)" fill="#a6a6a6"/>
      <path id="Path_1366" data-name="Path 1366" d="M421.391,374.978a1.112,1.112,0,0,0,.8-.381,1.741,1.741,0,0,0,.2-1.786c-.282-.911-.964-1.286-1.492-1.191-.405.077-.854.476-.78,1.357a.257.257,0,0,0,.279.229.253.253,0,0,0,.236-.271c-.043-.458.1-.774.356-.822s.719.22.909.839a1.351,1.351,0,0,1-.1,1.31.553.553,0,0,1-.436.2.263.263,0,0,0-.295.214.252.252,0,0,0,.221.28Z" transform="translate(-393.175 -371.606)" fill="#a6a6a6"/>
      <path id="Path_1367" data-name="Path 1367" d="M426.556,374.978a1.087,1.087,0,0,0,.792-.381,1.741,1.741,0,0,0,.209-1.786c-.282-.911-.964-1.286-1.5-1.191-.405.077-.854.476-.774,1.357a.249.249,0,0,0,.138.233.265.265,0,0,0,.276-.023.246.246,0,0,0,.1-.252c-.037-.458.1-.774.362-.822s.712.22.909.839a1.368,1.368,0,0,1-.111,1.31.553.553,0,0,1-.436.2.256.256,0,0,0-.269.217.251.251,0,0,0,.2.277Z" transform="translate(-401.508 -371.606)" fill="#a6a6a6"/>
      <path id="Path_1368" data-name="Path 1368" d="M431.725,374.978a1.1,1.1,0,0,0,.8-.381,1.741,1.741,0,0,0,.209-1.786c-.289-.911-.97-1.286-1.5-1.191-.405.077-.854.476-.78,1.357a.257.257,0,0,0,.279.229.253.253,0,0,0,.236-.271c-.043-.458.1-.774.362-.822s.712.22.9.839a1.351,1.351,0,0,1-.1,1.31.553.553,0,0,1-.436.2.263.263,0,0,0-.295.214.252.252,0,0,0,.221.28Z" transform="translate(-409.858 -371.606)" fill="#a6a6a6"/>
      <path id="Path_1369" data-name="Path 1369" d="M436.906,374.978a1.087,1.087,0,0,0,.792-.381,1.741,1.741,0,0,0,.209-1.786c-.283-.911-.964-1.286-1.5-1.191-.405.077-.854.476-.774,1.357a.256.256,0,0,0,.276.226.259.259,0,0,0,.24-.268c-.043-.458.1-.774.356-.822s.712.22.909.839a1.385,1.385,0,0,1-.1,1.31.566.566,0,0,1-.442.2.257.257,0,0,0-.289.214.252.252,0,0,0,.221.28Z" transform="translate(-418.214 -371.606)" fill="#a6a6a6"/>
      <path id="Path_1370" data-name="Path 1370" d="M442.081,374.978a1.1,1.1,0,0,0,.792-.381,1.741,1.741,0,0,0,.209-1.786,1.446,1.446,0,0,0-1.5-1.191c-.405.077-.854.476-.78,1.357a.257.257,0,0,0,.279.229.253.253,0,0,0,.236-.271c-.037-.458.1-.774.362-.822s.712.22.9.839a1.351,1.351,0,0,1-.1,1.31.553.553,0,0,1-.436.2.263.263,0,0,0-.295.214.252.252,0,0,0,.221.28Z" transform="translate(-426.564 -371.606)" fill="#a6a6a6"/>
      <path id="Path_1371" data-name="Path 1371" d="M447.252,374.978a1.112,1.112,0,0,0,.8-.381,1.741,1.741,0,0,0,.2-1.786c-.282-.911-.964-1.286-1.492-1.191-.411.077-.854.476-.78,1.357a.256.256,0,0,0,.276.226.261.261,0,0,0,.177-.086.246.246,0,0,0,.062-.182c-.043-.458.1-.774.356-.822s.712.22.909.839a1.351,1.351,0,0,1-.1,1.31.553.553,0,0,1-.442.2.257.257,0,0,0-.289.214.252.252,0,0,0,.221.28Z" transform="translate(-434.915 -371.606)" fill="#a6a6a6"/>
      <path id="Path_1372" data-name="Path 1372" d="M452.4,374.978a1.087,1.087,0,0,0,.792-.381,1.741,1.741,0,0,0,.209-1.786,1.446,1.446,0,0,0-1.5-1.191c-.405.077-.854.476-.774,1.357a.241.241,0,0,0,.089.17.257.257,0,0,0,.188.056.253.253,0,0,0,.233-.268c-.037-.458.1-.774.362-.822s.712.22.9.839a1.351,1.351,0,0,1-.1,1.31.553.553,0,0,1-.436.2.256.256,0,0,0-.289.214.233.233,0,0,0,.045.185.247.247,0,0,0,.17.095Z" transform="translate(-443.216 -371.606)" fill="#a6a6a6"/>
    </g>
    <g id="Device" transform="translate(29.605 146.03)">
      <rect id="Rectangle_1321" data-name="Rectangle 1321" width="4.213" height="2.667" transform="translate(109.717 68.171)" fill="#455a64"/>
      <rect id="Rectangle_1322" data-name="Rectangle 1322" width="4.213" height="2.667" transform="translate(104.252 67.993)" fill="#455a64"/>
      <rect id="Rectangle_1323" data-name="Rectangle 1323" width="4.213" height="2.667" transform="translate(98.793 67.82)" fill="#455a64"/>
      <rect id="Rectangle_1324" data-name="Rectangle 1324" width="4.213" height="2.667" transform="translate(93.328 67.642)" fill="#455a64"/>
      <rect id="Rectangle_1325" data-name="Rectangle 1325" width="4.213" height="2.667" transform="translate(87.862 67.469)" fill="#455a64"/>
      <rect id="Rectangle_1326" data-name="Rectangle 1326" width="4.213" height="2.667" transform="translate(82.397 67.29)" fill="#455a64"/>
      <rect id="Rectangle_1327" data-name="Rectangle 1327" width="4.213" height="2.667" transform="translate(76.932 67.112)" fill="#455a64"/>
      <rect id="Rectangle_1328" data-name="Rectangle 1328" width="4.213" height="2.667" transform="translate(71.466 66.939)" fill="#455a64"/>
      <rect id="Rectangle_1329" data-name="Rectangle 1329" width="4.213" height="2.667" transform="translate(66.001 66.76)" fill="#455a64"/>
      <path id="Path_1373" data-name="Path 1373" d="M206.48,363.706h49.992v-3.245L206.48,359.11Z" transform="translate(-141.51 -291.332)" fill="#37474f"/>
      <path id="Path_1374" data-name="Path 1374" d="M246.073,304.844h82.532L315.482,245.27H232.95Z" transform="translate(-229.898 -245.27)" fill="#455a64"/>
      <path id="Path_1375" data-name="Path 1375" d="M251.043,304.844h82.532L320.452,245.27H237.92Z" transform="translate(-237.92 -245.27)" fill="#37474f"/>
      <path id="Path_1376" data-name="Path 1376" d="M341.509,350.186a6.146,6.146,0,0,0,5.908,4.942,4.309,4.309,0,0,0,3.383-1.462,4.029,4.029,0,0,0,.915-3.48,6.158,6.158,0,0,0-5.914-4.948,4.3,4.3,0,0,0-3.385,1.464A4.023,4.023,0,0,0,341.509,350.186Z" transform="translate(-300.814 -323.846)" fill="#263238"/>
      <path id="Path_1377" data-name="Path 1377" d="M268.21,368.518H308.8v-3.054L268.21,364.19Z" transform="translate(-231.746 -293.387)" fill="#455a64"/>
      <path id="Path_1378" data-name="Path 1378" d="M295.42,348.767h21.794l13.123-33.377H308.543Z" transform="translate(-269.991 -273.642)" fill="#455a64"/>
      <path id="Path_1379" data-name="Path 1379" d="M301.26,348.767h21.794l13.123-33.377H314.383Z" transform="translate(-279.417 -273.642)" fill="#263238"/>
      <path id="Path_1380" data-name="Path 1380" d="M165.372,427.152h41.849c3.574,0-1.6-9.86-14.627-13.646S161.264,423.448,165.372,427.152Z" transform="translate(-48.869 -351.204)" fill="#37474f"/>
      <path id="Path_1381" data-name="Path 1381" d="M215.148,429.526a11.973,11.973,0,0,0-.571-3.31,13.84,13.84,0,0,0-1.412-3.09,11.177,11.177,0,0,0-2.217-2.62A10.057,10.057,0,0,0,208,418.72a15.134,15.134,0,0,1,1.376,1l.614.53.614.6a14.637,14.637,0,0,1,2.033,2.59,19.172,19.172,0,0,1,1.48,2.935,23.874,23.874,0,0,1,1.032,3.155Z" transform="translate(-82.231 -353.579)" fill="#263238"/>
      <path id="Path_1382" data-name="Path 1382" d="M227.525,421.11a24.64,24.64,0,0,0-3.611,1.429,25.316,25.316,0,0,0-3.365,1.935,14.957,14.957,0,0,0-2.917,2.566,8.963,8.963,0,0,0-1.081,1.608,4.648,4.648,0,0,0-.491,1.846,5.227,5.227,0,0,1,.755-1.709,8.38,8.38,0,0,1,1.173-1.447,19.794,19.794,0,0,1,2.917-2.382c1.038-.732,2.131-1.375,3.236-2.024.553-.322,1.111-.625,1.676-.923S226.948,421.408,227.525,421.11Z" transform="translate(-99.557 -354.546)" fill="#263238"/>
    </g>
    <g id="Line" transform="translate(81.967 31.865)">
      <path id="Path_1383" data-name="Path 1383" d="M109.778,53.52H107.93l.006.024Z" transform="translate(13.338 -53.52)" fill="#263238"/>
      <path id="Path_1384" data-name="Path 1384" d="M120.711,53.66l-3.721.2.012.107,3.709-.238Z" transform="translate(-3.158 -53.577)" fill="#263238"/>
      <path id="Path_1385" data-name="Path 1385" d="M132.757,54.49l-3.7.4.031.2,3.684-.452Z" transform="translate(-22.634 -53.912)" fill="#263238"/>
      <path id="Path_1386" data-name="Path 1386" d="M144.706,56.04l-3.666.625.055.286,3.654-.667Z" transform="translate(-41.965 -54.54)" fill="#263238"/>
      <path id="Path_1387" data-name="Path 1387" d="M156.517,58.34l-3.617.851.086.316,3.6-.863Z" transform="translate(-61.089 -55.47)" fill="#263238"/>
      <path id="Path_1388" data-name="Path 1388" d="M168.162,61.39,164.6,62.456l.117.339,3.543-1.078Z" transform="translate(-79.943 -56.704)" fill="#263238"/>
      <path id="Path_1389" data-name="Path 1389" d="M179.562,65.14l-3.482,1.274.147.363,3.47-1.286Z" transform="translate(-98.43 -58.222)" fill="#263238"/>
      <path id="Path_1390" data-name="Path 1390" d="M190.712,69.59l-3.4,1.483.184.375,3.384-1.483Z" transform="translate(-116.507 -60.022)" fill="#263238"/>
      <path id="Path_1391" data-name="Path 1391" d="M201.554,74.72l-3.3,1.679.227.393,3.279-1.685Z" transform="translate(-134.103 -62.098)" fill="#263238"/>
      <path id="Path_1392" data-name="Path 1392" d="M212.043,80.51l-3.193,1.864.264.411,3.169-1.875Z" transform="translate(-151.139 -64.441)" fill="#263238"/>
      <path id="Path_1393" data-name="Path 1393" d="M222.15,86.93l-3.07,2.048.307.417,3.046-2.054Z" transform="translate(-167.571 -67.038)" fill="#263238"/>
      <path id="Path_1394" data-name="Path 1394" d="M231.835,93.96,228.9,96.187l.35.417,2.917-2.221Z" transform="translate(-183.335 -69.883)" fill="#263238"/>
      <path id="Path_1395" data-name="Path 1395" d="M241.074,101.58l-2.794,2.387.4.423L241.449,102Z" transform="translate(-198.377 -72.966)" fill="#263238"/>
      <path id="Path_1396" data-name="Path 1396" d="M249.814,109.74l-2.634,2.554.436.411,2.622-2.542Z" transform="translate(-212.632 -76.268)" fill="#263238"/>
      <path id="Path_1397" data-name="Path 1397" d="M258.069,118.46l-2.469,2.709.436.363,2.469-2.685Z" transform="translate(-226.069 -79.796)" fill="#263238"/>
      <path id="Path_1398" data-name="Path 1398" d="M265.8,127.68l-2.3,2.846.43.316,2.3-2.822Z" transform="translate(-238.642 -83.526)" fill="#263238"/>
      <path id="Path_1399" data-name="Path 1399" d="M272.942,137.35l-2.112,2.971.424.28,2.119-2.953Z" transform="translate(-250.289 -87.439)" fill="#263238"/>
      <path id="Path_1400" data-name="Path 1400" d="M279.5,147.44l-1.922,3.09.411.238,1.928-3.072Z" transform="translate(-260.981 -91.522)" fill="#263238"/>
      <path id="Path_1401" data-name="Path 1401" d="M285.426,157.92l-1.726,3.2.4.2,1.738-3.179Z" transform="translate(-270.657 -95.762)" fill="#263238"/>
      <path id="Path_1402" data-name="Path 1402" d="M290.713,168.75l-1.523,3.292.381.161,1.535-3.275Z" transform="translate(-279.297 -100.144)" fill="#263238"/>
      <path id="Path_1403" data-name="Path 1403" d="M295.334,179.89l-1.314,3.376.356.131,1.326-3.364Z" transform="translate(-286.86 -104.651)" fill="#263238"/>
      <path id="Path_1404" data-name="Path 1404" d="M299.259,191.3l-1.1,3.447.338.1,1.111-3.429Z" transform="translate(-293.309 -109.268)" fill="#263238"/>
      <path id="Path_1405" data-name="Path 1405" d="M302.488,202.94l-.878,3.507.307.071.9-3.495Z" transform="translate(-298.632 -113.978)" fill="#263238"/>
      <path id="Path_1406" data-name="Path 1406" d="M304.995,214.76l-.645,3.554.252.042.688-3.537Z" transform="translate(-302.79 -118.76)" fill="#263238"/>
      <path id="Path_1407" data-name="Path 1407" d="M306.834,226.73l-.424,3.584.166.018.467-3.572Z" transform="translate(-305.808 -123.604)" fill="#263238"/>
      <path id="Path_1408" data-name="Path 1408" d="M307.953,238.79l-.2,3.608h.074l.246-3.6Z" transform="translate(-307.658 -128.483)" fill="#263238"/>
      <path id="Path_1409" data-name="Path 1409" d="M308.386,251l-.006,1.786L308.4,251Z" transform="translate(-308.38 -133.424)" fill="#263238"/>
    </g>
    <g id="Envelope" transform="translate(68.703 93.761)">
      <path id="Path_1410" data-name="Path 1410" d="M264.79,209.844h40.056V176.99l-20.025-12.33L264.79,176.99Z" transform="translate(-264.79 -160.385)" fill="#ffc727"/>
      <path id="Path_1411" data-name="Path 1411" d="M264.79,209.844h40.056V176.99l-20.025-12.33L264.79,176.99Z" transform="translate(-264.79 -160.385)" opacity="0.2"/>
      <path id="Path_1412" data-name="Path 1412" d="M268.47,201.711h35.537V157.48H277.62l-9.15,8.425Z" transform="translate(-266.21 -157.48)" fill="#ebebeb"/>
      <path id="Path_1413" data-name="Path 1413" d="M320.59,157.48l-9.15,8.425h9.15Z" transform="translate(-309.18 -157.48)" fill="#dbdbdb"/>
      <rect id="Rectangle_1330" data-name="Rectangle 1330" width="19.761" height="1.137" transform="translate(14.572 7.418)" fill="#dbdbdb"/>
      <rect id="Rectangle_1331" data-name="Rectangle 1331" width="19.761" height="1.137" transform="translate(14.572 10.288)" fill="#dbdbdb"/>
      <rect id="Rectangle_1332" data-name="Rectangle 1332" width="19.761" height="1.137" transform="translate(14.572 13.152)" fill="#dbdbdb"/>
      <rect id="Rectangle_1333" data-name="Rectangle 1333" width="28.948" height="1.137" transform="translate(5.379 16.022)" fill="#dbdbdb"/>
      <rect id="Rectangle_1334" data-name="Rectangle 1334" width="28.948" height="1.137" transform="translate(5.379 18.886)" fill="#dbdbdb"/>
      <rect id="Rectangle_1335" data-name="Rectangle 1335" width="28.948" height="1.137" transform="translate(5.379 21.755)" fill="#dbdbdb"/>
      <rect id="Rectangle_1336" data-name="Rectangle 1336" width="28.948" height="1.137" transform="translate(5.379 24.619)" fill="#dbdbdb"/>
      <rect id="Rectangle_1337" data-name="Rectangle 1337" width="28.948" height="1.137" transform="translate(5.379 27.489)" fill="#dbdbdb"/>
      <rect id="Rectangle_1338" data-name="Rectangle 1338" width="28.948" height="1.137" transform="translate(5.379 30.353)" fill="#dbdbdb"/>
      <rect id="Rectangle_1339" data-name="Rectangle 1339" width="28.948" height="1.137" transform="translate(5.379 33.222)" fill="#dbdbdb"/>
      <rect id="Rectangle_1340" data-name="Rectangle 1340" width="28.948" height="1.137" transform="translate(5.379 36.086)" fill="#dbdbdb"/>
      <rect id="Rectangle_1341" data-name="Rectangle 1341" width="28.948" height="1.137" transform="translate(5.379 38.956)" fill="#dbdbdb"/>
      <path id="Path_1414" data-name="Path 1414" d="M295.55,263.22v24.631h40.056V263.22c-1.726.947-3.414,1.935-5.115,2.905s-3.39,1.971-5.078,2.977q-2.812,1.661-5.625,3.37l-.055-.036a.281.281,0,0,0,.043.042l-4.2,2.548c-1.4-.851-2.8-1.709-4.2-2.548l.049-.042-.061.03c-1.873-1.131-3.74-2.257-5.625-3.37q-2.524-1.5-5.072-2.977C298.958,265.155,297.257,264.167,295.55,263.22Z" transform="translate(-295.55 -238.392)" fill="#ffc727"/>
      <path id="Path_1415" data-name="Path 1415" d="M295.54,263.22c1.615,1.1,3.267,2.161,4.913,3.245s3.291,2.12,4.943,3.173,3.457,2.179,5.2,3.257l.154.107,4.612,2.852.233.137.221-.137L320.416,273l.166-.1q2.61-1.619,5.2-3.263c1.646-1.048,3.3-2.108,4.913-3.167s3.279-2.143,4.913-3.245c-1.726.947-3.414,1.935-5.115,2.905s-3.39,1.971-5.078,2.977q-2.812,1.661-5.625,3.37h0l-4.2,2.548c-1.4-.851-2.8-1.709-4.2-2.548h0c-1.873-1.131-3.74-2.257-5.625-3.37q-2.524-1.5-5.072-2.977C298.948,265.155,297.247,264.167,295.54,263.22Z" transform="translate(-295.54 -238.392)" fill="#fff"/>
      <path id="Path_1416" data-name="Path 1416" d="M295.76,278.7a.278.278,0,0,0,.043.042l.614.518c1.007.822,2.033,1.608,3.07,2.382,1.271.941,2.579,1.846,3.893,2.745s2.641,1.756,3.992,2.6,2.72,1.661,4.133,2.417c-1.228-1.036-2.456-1.995-3.752-2.935s-2.591-1.852-3.893-2.751-2.647-1.756-4-2.6c-1.081-.673-2.174-1.334-3.291-1.953l-.786-.423Z" transform="translate(-271.578 -244.656)" fill="#fff"/>
      <path id="Path_1417" data-name="Path 1417" d="M334.97,289.385c1.419-.756,2.788-1.578,4.133-2.417s2.677-1.715,4-2.6,2.616-1.786,3.887-2.745c1.044-.768,2.069-1.548,3.07-2.382l.614-.524.049-.042-.061.03-.78.429c-1.124.6-2.211,1.28-3.291,1.953-1.357.84-2.677,1.715-4,2.6s-2.616,1.786-3.887,2.751S336.186,288.349,334.97,289.385Z" transform="translate(-334.878 -244.648)" fill="#fff"/>
    </g>
    <g id="Tool" transform="translate(103.506 38.103)">
      <path id="Path_1418" data-name="Path 1418" d="M291.23,130.4a8.494,8.494,0,0,0-8.517-1.941l4.808,4.662-1.689,3.441-3.549,1.637-4.808-4.668a7.958,7.958,0,0,0,4.058,9.715,8.474,8.474,0,0,0,10.524-2.4,7.874,7.874,0,0,0-.827-10.451Z" transform="translate(-277.042 -128.037)" fill="#ffc727"/>
      <path id="Path_1419" data-name="Path 1419" d="M236.314,184.937a8.488,8.488,0,0,0,8.517,1.935l-4.808-4.662,1.689-3.435,3.543-1.637,4.821,4.65a7.958,7.958,0,0,0-4.063-9.712,8.473,8.473,0,0,0-10.523,2.4,7.874,7.874,0,0,0,.83,10.45Z" transform="translate(-207.389 -145.491)" fill="#ffc727"/>
      <path id="Path_1430" data-name="Path 1430" d="M.458,29.656l7.293.113L7.293.113,0,0Z" transform="translate(8.614 13.425) rotate(-45)" fill="#ffc727"/>
    </g>
    <g id="Clock" transform="translate(167.114 8.216)">
      <path id="Path_1441" data-name="Path 1441" d="M24.926,51.591c13.834-.068,25.1-11.673,25.173-25.919S39.008-.068,25.174,0,.069,11.673,0,25.92,11.092,51.66,24.926,51.591Z" transform="matrix(-0.16, -0.987, 0.987, -0.16, 7.993, 57.689)" fill="#ffc727"/>
      <ellipse id="Ellipse_204" data-name="Ellipse 204" cx="24.563" cy="23.815" rx="24.563" ry="23.815" transform="translate(4.012 5.769)" opacity="0.2"/>
      <path id="Path_1442" data-name="Path 1442" d="M22.257,46.01C34.58,45.978,44.6,35.653,44.628,22.948S34.695-.032,22.371,0,.032,10.357,0,23.062,9.933,46.041,22.257,46.01Z" transform="matrix(-0.082, -0.997, 0.997, -0.082, 7.482, 53.707)" fill="#fff"/>
      <path id="Path_1420" data-name="Path 1420" d="M119.59,109.4c10.476,6.156,27.7,16.254,37.324,21.791a22.37,22.37,0,0,0,6.288-8.2L131.368,94.41A22.41,22.41,0,0,0,119.59,109.4Z" transform="translate(-113.503 -84.544)" fill="#ebebeb" opacity="0.5"/>
      <path id="Path_1421" data-name="Path 1421" d="M136.36,128.84a21.638,21.638,0,0,0,1.5,7.24l28.7,13.158a23.8,23.8,0,0,0,3.623-1.506C161.537,142.885,145.694,134.044,136.36,128.84Z" transform="translate(-130.783 -98.475)" fill="#ebebeb" opacity="0.5"/>
      <rect id="Rectangle_1343" data-name="Rectangle 1343" width="0.442" height="3.382" transform="translate(28.36 8.895)" fill="#c7c7c7"/>
      <path id="Path_1433" data-name="Path 1433" d="M0,3.414l.439-.006L.485,0,.046.006Z" transform="translate(37.736 14.724) rotate(-150)" fill="#c7c7c7"/>
      <path id="Path_1434" data-name="Path 1434" d="M0,3.467l.432-.006L.478,0,.046.006Z" transform="translate(44.168 21.155) rotate(-120)" fill="#c7c7c7"/>
      <rect id="Rectangle_1346" data-name="Rectangle 1346" width="3.488" height="0.429" transform="translate(46.432 29.37)" fill="#c7c7c7"/>
      <path id="Path_1435" data-name="Path 1435" d="M0,.478,3.461.432,3.467,0,.006.046Z" transform="matrix(-0.866, -0.5, 0.5, -0.866, 46.931, 40.155)" fill="#c7c7c7"/>
      <path id="Path_1436" data-name="Path 1436" d="M0,.485,3.408.439,3.414,0,.006.046Z" transform="translate(39.021 47.636) rotate(-119.97)" fill="#c7c7c7"/>
      <rect id="Rectangle_1349" data-name="Rectangle 1349" width="0.442" height="3.382" transform="translate(28.36 46.893)" fill="#c7c7c7"/>
      <path id="Path_1437" data-name="Path 1437" d="M0,3.414l.439-.006L.485,0,.046.006Z" transform="translate(18.138 47.642) rotate(-150)" fill="#c7c7c7"/>
      <path id="Path_1438" data-name="Path 1438" d="M0,3.479l.434-.006L.48,0,.046.006Z" transform="translate(9.868 39.719) rotate(-119.887)" fill="#c7c7c7"/>
      <rect id="Rectangle_1352" data-name="Rectangle 1352" width="3.488" height="0.429" transform="translate(7.235 29.37)" fill="#c7c7c7"/>
      <path id="Path_1439" data-name="Path 1439" d="M0,.478,3.461.432,3.467,0,.006.046Z" transform="matrix(-0.866, -0.5, 0.5, -0.866, 12.988, 21.151)" fill="#c7c7c7"/>
      <path id="Path_1440" data-name="Path 1440" d="M0,.485,3.408.439,3.414,0,.006.046Z" transform="translate(19.428 14.719) rotate(-119.97)" fill="#c7c7c7"/>
      <path id="Path_1422" data-name="Path 1422" d="M122.205,31.306l-.755,20.666,2.18-.024L122.795,31.3Z" transform="translate(-93.962 -20.881)" fill="#455a64"/>
      <path id="Path_1423" data-name="Path 1423" d="M120.34,51.046l14.339,8.871,1.044-1.858-15.1-7.52Z" transform="translate(-105.373 -28.665)" fill="#263238"/>
      <path id="Path_1424" data-name="Path 1424" d="M152.78,127.04a.743.743,0,1,0,.743-.72A.732.732,0,0,0,152.78,127.04Z" transform="translate(-124.948 -97.456)" fill="#ffc727"/>
    </g>
    <g id="Speech_Bubble" data-name="Speech Bubble" transform="translate(119.337 84.129)">
      <path id="Path_1425" data-name="Path 1425" d="M212.509,225.547a18.125,18.125,0,0,0,11.91,14.98,19.037,19.037,0,0,0,19.156-3.579l9.3,1.322-4.673-7.794a17.648,17.648,0,0,0-4.59-20.03,19.046,19.046,0,0,0-20.952-2.892,17.919,17.919,0,0,0-10.173,17.993Z" transform="translate(-212.39 -205.466)" fill="#fff"/>
      <path id="Path_1426" data-name="Path 1426" d="M211.474,225.423a17.912,17.912,0,0,0,3.764,9.139,19.664,19.664,0,0,0,1.683,1.875,19.4,19.4,0,0,0,1.965,1.613,18.728,18.728,0,0,0,12.073,3.626,16.316,16.316,0,0,0,2.573-.262,18.965,18.965,0,0,0,9.211-4.4l-.221.066,9.273,1.4.675.1-.344-.6-4.624-7.811v.31a17.741,17.741,0,0,0-1.148-16.075,18.7,18.7,0,0,0-5.821-6.007,19.11,19.11,0,0,0-7.934-2.888,18.9,18.9,0,0,0-15.579,5.013A17.826,17.826,0,0,0,211.474,225.423Zm0,0a17.558,17.558,0,0,1,5.6-14.773,18.661,18.661,0,0,1,28.728,4.086,17.3,17.3,0,0,1,1.05,15.48l-.068.161.086.149,4.685,7.782.332-.476-9.309-1.262h-.129l-.092.083a18.537,18.537,0,0,1-8.9,4.448,17.078,17.078,0,0,1-2.524.3,18.371,18.371,0,0,1-7.51-1.066,17.29,17.29,0,0,1-4.483-2.346,16.5,16.5,0,0,1-3.654-3.447A17.877,17.877,0,0,1,211.474,225.423Z" transform="translate(-211.355 -205.342)" fill="#263238"/>
      <path id="Path_1427" data-name="Path 1427" d="M257.55,235.355a2.255,2.255,0,1,0,2.254-2.185,2.284,2.284,0,0,0-1.6.638,2.146,2.146,0,0,0-.658,1.547Z" transform="translate(-249.3 -216.602)" fill="#263238"/>
      <path id="Path_1428" data-name="Path 1428" d="M244.41,235.355a2.255,2.255,0,1,0,2.248-2.185,2.283,2.283,0,0,0-1.591.64,2.146,2.146,0,0,0-.656,1.545Z" transform="translate(-228.091 -216.602)" fill="#263238"/>
      <path id="Path_1429" data-name="Path 1429" d="M231.28,235.355a2.255,2.255,0,1,0,2.254-2.185,2.284,2.284,0,0,0-1.6.638A2.146,2.146,0,0,0,231.28,235.355Z" transform="translate(-206.899 -216.602)" fill="#263238"/>
    </g>
  </g>
</svg>
